G04 EAGLE Gerber X2 export*
%TF.Part,Single*%
%TF.FileFunction,Copper,L2,Bot,Mixed*%
%TF.FilePolarity,Positive*%
%TF.GenerationSoftware,Autodesk,EAGLE,8.7.0*%
%TF.CreationDate,2018-03-20T17:42:03Z*%
G75*
%MOMM*%
%FSLAX34Y34*%
%LPD*%
%AMOC8*
5,1,8,0,0,1.08239X$1,22.5*%
G01*
%ADD10C,0.177800*%
%ADD11R,1.508000X1.508000*%
%ADD12C,1.508000*%
%ADD13P,4.123906X8X202.500000*%
%ADD14C,6.477000*%
%ADD15P,1.539592X8X292.500000*%
%ADD16C,1.422400*%
%ADD17P,1.539592X8X112.500000*%
%ADD18P,1.814519X8X202.500000*%
%ADD19P,1.814519X8X292.500000*%
%ADD20C,4.216000*%
%ADD21C,3.816000*%
%ADD22P,1.649562X8X112.500000*%
%ADD23C,1.320800*%
%ADD24C,1.524000*%
%ADD25C,1.879600*%
%ADD26C,1.270000*%
%ADD27C,0.609600*%
%ADD28C,0.406400*%


D10*
X-66957Y-564261D02*
X-62498Y-564261D01*
X-62366Y-564259D01*
X-62234Y-564253D01*
X-62102Y-564243D01*
X-61971Y-564230D01*
X-61840Y-564212D01*
X-61709Y-564191D01*
X-61580Y-564165D01*
X-61451Y-564136D01*
X-61323Y-564103D01*
X-61196Y-564067D01*
X-61070Y-564026D01*
X-60945Y-563982D01*
X-60822Y-563934D01*
X-60700Y-563883D01*
X-60580Y-563828D01*
X-60462Y-563769D01*
X-60345Y-563707D01*
X-60230Y-563641D01*
X-60118Y-563573D01*
X-60007Y-563500D01*
X-59899Y-563425D01*
X-59792Y-563346D01*
X-59688Y-563265D01*
X-59587Y-563180D01*
X-59488Y-563092D01*
X-59392Y-563001D01*
X-59299Y-562908D01*
X-59208Y-562812D01*
X-59120Y-562713D01*
X-59035Y-562612D01*
X-58954Y-562508D01*
X-58875Y-562402D01*
X-58800Y-562293D01*
X-58727Y-562182D01*
X-58659Y-562070D01*
X-58593Y-561955D01*
X-58531Y-561838D01*
X-58472Y-561720D01*
X-58417Y-561600D01*
X-58366Y-561478D01*
X-58318Y-561355D01*
X-58274Y-561230D01*
X-58233Y-561104D01*
X-58197Y-560977D01*
X-58164Y-560849D01*
X-58135Y-560720D01*
X-58109Y-560591D01*
X-58088Y-560460D01*
X-58070Y-560329D01*
X-58057Y-560198D01*
X-58047Y-560066D01*
X-58041Y-559934D01*
X-58039Y-559802D01*
X-58039Y-548654D01*
X-58041Y-548522D01*
X-58047Y-548390D01*
X-58057Y-548258D01*
X-58070Y-548127D01*
X-58088Y-547996D01*
X-58109Y-547865D01*
X-58135Y-547736D01*
X-58164Y-547607D01*
X-58197Y-547479D01*
X-58233Y-547352D01*
X-58274Y-547226D01*
X-58318Y-547101D01*
X-58366Y-546978D01*
X-58417Y-546856D01*
X-58472Y-546736D01*
X-58531Y-546618D01*
X-58593Y-546501D01*
X-58659Y-546386D01*
X-58727Y-546274D01*
X-58800Y-546163D01*
X-58875Y-546055D01*
X-58954Y-545948D01*
X-59035Y-545844D01*
X-59120Y-545743D01*
X-59208Y-545644D01*
X-59299Y-545548D01*
X-59392Y-545455D01*
X-59488Y-545364D01*
X-59587Y-545276D01*
X-59688Y-545191D01*
X-59792Y-545110D01*
X-59898Y-545031D01*
X-60007Y-544956D01*
X-60118Y-544883D01*
X-60230Y-544815D01*
X-60345Y-544749D01*
X-60462Y-544687D01*
X-60580Y-544628D01*
X-60700Y-544573D01*
X-60822Y-544522D01*
X-60945Y-544474D01*
X-61070Y-544430D01*
X-61196Y-544389D01*
X-61323Y-544353D01*
X-61451Y-544320D01*
X-61580Y-544291D01*
X-61709Y-544265D01*
X-61840Y-544244D01*
X-61971Y-544226D01*
X-62102Y-544213D01*
X-62234Y-544203D01*
X-62366Y-544197D01*
X-62498Y-544195D01*
X-66957Y-544195D01*
X-73399Y-555343D02*
X-73399Y-559802D01*
X-73399Y-555343D02*
X-73401Y-555211D01*
X-73407Y-555079D01*
X-73417Y-554947D01*
X-73430Y-554816D01*
X-73448Y-554685D01*
X-73469Y-554554D01*
X-73495Y-554425D01*
X-73524Y-554296D01*
X-73557Y-554168D01*
X-73593Y-554041D01*
X-73634Y-553915D01*
X-73678Y-553790D01*
X-73726Y-553667D01*
X-73777Y-553545D01*
X-73832Y-553425D01*
X-73891Y-553307D01*
X-73953Y-553190D01*
X-74019Y-553075D01*
X-74087Y-552963D01*
X-74160Y-552852D01*
X-74235Y-552743D01*
X-74314Y-552637D01*
X-74395Y-552533D01*
X-74480Y-552432D01*
X-74568Y-552333D01*
X-74659Y-552237D01*
X-74752Y-552144D01*
X-74848Y-552053D01*
X-74947Y-551965D01*
X-75048Y-551880D01*
X-75152Y-551799D01*
X-75258Y-551720D01*
X-75367Y-551645D01*
X-75478Y-551572D01*
X-75590Y-551504D01*
X-75705Y-551438D01*
X-75822Y-551376D01*
X-75940Y-551317D01*
X-76060Y-551262D01*
X-76182Y-551211D01*
X-76305Y-551163D01*
X-76430Y-551119D01*
X-76556Y-551078D01*
X-76683Y-551042D01*
X-76811Y-551009D01*
X-76940Y-550980D01*
X-77069Y-550954D01*
X-77200Y-550933D01*
X-77331Y-550915D01*
X-77462Y-550902D01*
X-77594Y-550892D01*
X-77726Y-550886D01*
X-77858Y-550884D01*
X-77990Y-550886D01*
X-78122Y-550892D01*
X-78254Y-550902D01*
X-78385Y-550915D01*
X-78516Y-550933D01*
X-78647Y-550954D01*
X-78776Y-550980D01*
X-78905Y-551009D01*
X-79033Y-551042D01*
X-79160Y-551078D01*
X-79286Y-551119D01*
X-79411Y-551163D01*
X-79534Y-551211D01*
X-79656Y-551262D01*
X-79776Y-551317D01*
X-79894Y-551376D01*
X-80011Y-551438D01*
X-80126Y-551504D01*
X-80238Y-551572D01*
X-80349Y-551645D01*
X-80458Y-551720D01*
X-80564Y-551799D01*
X-80668Y-551880D01*
X-80769Y-551965D01*
X-80868Y-552053D01*
X-80964Y-552144D01*
X-81057Y-552237D01*
X-81148Y-552333D01*
X-81236Y-552432D01*
X-81321Y-552533D01*
X-81402Y-552637D01*
X-81481Y-552743D01*
X-81556Y-552852D01*
X-81629Y-552963D01*
X-81697Y-553075D01*
X-81763Y-553190D01*
X-81825Y-553307D01*
X-81884Y-553425D01*
X-81939Y-553545D01*
X-81990Y-553667D01*
X-82038Y-553790D01*
X-82082Y-553915D01*
X-82123Y-554041D01*
X-82159Y-554168D01*
X-82192Y-554296D01*
X-82221Y-554425D01*
X-82247Y-554554D01*
X-82268Y-554685D01*
X-82286Y-554816D01*
X-82299Y-554947D01*
X-82309Y-555079D01*
X-82315Y-555211D01*
X-82317Y-555343D01*
X-82317Y-559802D01*
X-82315Y-559934D01*
X-82309Y-560066D01*
X-82299Y-560198D01*
X-82286Y-560329D01*
X-82268Y-560460D01*
X-82247Y-560591D01*
X-82221Y-560720D01*
X-82192Y-560849D01*
X-82159Y-560977D01*
X-82123Y-561104D01*
X-82082Y-561230D01*
X-82038Y-561355D01*
X-81990Y-561478D01*
X-81939Y-561600D01*
X-81884Y-561720D01*
X-81825Y-561838D01*
X-81763Y-561955D01*
X-81697Y-562070D01*
X-81629Y-562182D01*
X-81556Y-562293D01*
X-81481Y-562402D01*
X-81402Y-562508D01*
X-81321Y-562612D01*
X-81236Y-562713D01*
X-81148Y-562812D01*
X-81057Y-562908D01*
X-80964Y-563001D01*
X-80868Y-563092D01*
X-80769Y-563180D01*
X-80668Y-563265D01*
X-80564Y-563346D01*
X-80458Y-563425D01*
X-80349Y-563500D01*
X-80238Y-563573D01*
X-80126Y-563641D01*
X-80011Y-563707D01*
X-79894Y-563769D01*
X-79776Y-563828D01*
X-79656Y-563883D01*
X-79534Y-563934D01*
X-79411Y-563982D01*
X-79286Y-564026D01*
X-79160Y-564067D01*
X-79033Y-564103D01*
X-78905Y-564136D01*
X-78776Y-564165D01*
X-78647Y-564191D01*
X-78516Y-564212D01*
X-78385Y-564230D01*
X-78254Y-564243D01*
X-78122Y-564253D01*
X-77990Y-564259D01*
X-77858Y-564261D01*
X-77726Y-564259D01*
X-77594Y-564253D01*
X-77462Y-564243D01*
X-77331Y-564230D01*
X-77200Y-564212D01*
X-77069Y-564191D01*
X-76940Y-564165D01*
X-76811Y-564136D01*
X-76683Y-564103D01*
X-76556Y-564067D01*
X-76430Y-564026D01*
X-76305Y-563982D01*
X-76182Y-563934D01*
X-76060Y-563883D01*
X-75940Y-563828D01*
X-75822Y-563769D01*
X-75705Y-563707D01*
X-75590Y-563641D01*
X-75478Y-563573D01*
X-75367Y-563500D01*
X-75258Y-563425D01*
X-75152Y-563346D01*
X-75048Y-563265D01*
X-74947Y-563180D01*
X-74848Y-563092D01*
X-74752Y-563001D01*
X-74659Y-562908D01*
X-74568Y-562812D01*
X-74480Y-562713D01*
X-74395Y-562612D01*
X-74314Y-562508D01*
X-74235Y-562402D01*
X-74160Y-562293D01*
X-74087Y-562182D01*
X-74019Y-562070D01*
X-73953Y-561955D01*
X-73891Y-561838D01*
X-73832Y-561720D01*
X-73777Y-561600D01*
X-73726Y-561478D01*
X-73678Y-561355D01*
X-73634Y-561230D01*
X-73593Y-561104D01*
X-73557Y-560977D01*
X-73524Y-560849D01*
X-73495Y-560720D01*
X-73469Y-560591D01*
X-73448Y-560460D01*
X-73430Y-560329D01*
X-73417Y-560198D01*
X-73407Y-560066D01*
X-73401Y-559934D01*
X-73399Y-559802D01*
X-90083Y-564261D02*
X-90083Y-550884D01*
X-95657Y-550884D01*
X-95771Y-550886D01*
X-95885Y-550892D01*
X-95999Y-550902D01*
X-96112Y-550915D01*
X-96225Y-550933D01*
X-96337Y-550954D01*
X-96449Y-550979D01*
X-96559Y-551008D01*
X-96669Y-551041D01*
X-96777Y-551077D01*
X-96884Y-551117D01*
X-96989Y-551161D01*
X-97093Y-551208D01*
X-97195Y-551259D01*
X-97296Y-551313D01*
X-97394Y-551371D01*
X-97491Y-551432D01*
X-97585Y-551496D01*
X-97678Y-551563D01*
X-97767Y-551634D01*
X-97855Y-551708D01*
X-97939Y-551784D01*
X-98022Y-551863D01*
X-98101Y-551946D01*
X-98177Y-552030D01*
X-98251Y-552118D01*
X-98322Y-552207D01*
X-98389Y-552300D01*
X-98453Y-552394D01*
X-98514Y-552490D01*
X-98572Y-552589D01*
X-98626Y-552690D01*
X-98677Y-552792D01*
X-98724Y-552896D01*
X-98768Y-553001D01*
X-98808Y-553108D01*
X-98844Y-553216D01*
X-98877Y-553326D01*
X-98906Y-553436D01*
X-98931Y-553548D01*
X-98952Y-553660D01*
X-98970Y-553773D01*
X-98983Y-553886D01*
X-98993Y-554000D01*
X-98999Y-554114D01*
X-99001Y-554228D01*
X-99002Y-554228D02*
X-99002Y-564261D01*
X-105306Y-550884D02*
X-111995Y-550884D01*
X-107536Y-544195D02*
X-107536Y-560917D01*
X-107538Y-561031D01*
X-107544Y-561145D01*
X-107554Y-561259D01*
X-107567Y-561372D01*
X-107585Y-561485D01*
X-107606Y-561597D01*
X-107631Y-561709D01*
X-107660Y-561819D01*
X-107693Y-561929D01*
X-107729Y-562037D01*
X-107769Y-562144D01*
X-107813Y-562249D01*
X-107860Y-562353D01*
X-107911Y-562455D01*
X-107965Y-562556D01*
X-108023Y-562654D01*
X-108084Y-562751D01*
X-108148Y-562845D01*
X-108215Y-562938D01*
X-108286Y-563027D01*
X-108360Y-563115D01*
X-108436Y-563199D01*
X-108515Y-563282D01*
X-108598Y-563361D01*
X-108682Y-563437D01*
X-108770Y-563511D01*
X-108859Y-563582D01*
X-108952Y-563649D01*
X-109046Y-563713D01*
X-109143Y-563774D01*
X-109241Y-563832D01*
X-109342Y-563886D01*
X-109444Y-563937D01*
X-109548Y-563984D01*
X-109653Y-564028D01*
X-109760Y-564068D01*
X-109868Y-564104D01*
X-109978Y-564137D01*
X-110088Y-564166D01*
X-110200Y-564191D01*
X-110312Y-564212D01*
X-110425Y-564230D01*
X-110538Y-564243D01*
X-110652Y-564253D01*
X-110766Y-564259D01*
X-110880Y-564261D01*
X-111995Y-564261D01*
X-119205Y-564261D02*
X-119205Y-550884D01*
X-125894Y-550884D01*
X-125894Y-553113D01*
X-131486Y-555343D02*
X-131486Y-559802D01*
X-131486Y-555343D02*
X-131488Y-555211D01*
X-131494Y-555079D01*
X-131504Y-554947D01*
X-131517Y-554816D01*
X-131535Y-554685D01*
X-131556Y-554554D01*
X-131582Y-554425D01*
X-131611Y-554296D01*
X-131644Y-554168D01*
X-131680Y-554041D01*
X-131721Y-553915D01*
X-131765Y-553790D01*
X-131813Y-553667D01*
X-131864Y-553545D01*
X-131919Y-553425D01*
X-131978Y-553307D01*
X-132040Y-553190D01*
X-132106Y-553075D01*
X-132174Y-552963D01*
X-132247Y-552852D01*
X-132322Y-552743D01*
X-132401Y-552637D01*
X-132482Y-552533D01*
X-132567Y-552432D01*
X-132655Y-552333D01*
X-132746Y-552237D01*
X-132839Y-552144D01*
X-132935Y-552053D01*
X-133034Y-551965D01*
X-133135Y-551880D01*
X-133239Y-551799D01*
X-133345Y-551720D01*
X-133454Y-551645D01*
X-133565Y-551572D01*
X-133677Y-551504D01*
X-133792Y-551438D01*
X-133909Y-551376D01*
X-134027Y-551317D01*
X-134147Y-551262D01*
X-134269Y-551211D01*
X-134392Y-551163D01*
X-134517Y-551119D01*
X-134643Y-551078D01*
X-134770Y-551042D01*
X-134898Y-551009D01*
X-135027Y-550980D01*
X-135156Y-550954D01*
X-135287Y-550933D01*
X-135418Y-550915D01*
X-135549Y-550902D01*
X-135681Y-550892D01*
X-135813Y-550886D01*
X-135945Y-550884D01*
X-136077Y-550886D01*
X-136209Y-550892D01*
X-136341Y-550902D01*
X-136472Y-550915D01*
X-136603Y-550933D01*
X-136734Y-550954D01*
X-136863Y-550980D01*
X-136992Y-551009D01*
X-137120Y-551042D01*
X-137247Y-551078D01*
X-137373Y-551119D01*
X-137498Y-551163D01*
X-137621Y-551211D01*
X-137743Y-551262D01*
X-137863Y-551317D01*
X-137981Y-551376D01*
X-138098Y-551438D01*
X-138213Y-551504D01*
X-138325Y-551572D01*
X-138436Y-551645D01*
X-138545Y-551720D01*
X-138651Y-551799D01*
X-138755Y-551880D01*
X-138856Y-551965D01*
X-138955Y-552053D01*
X-139051Y-552144D01*
X-139144Y-552237D01*
X-139235Y-552333D01*
X-139323Y-552432D01*
X-139408Y-552533D01*
X-139489Y-552637D01*
X-139568Y-552743D01*
X-139643Y-552852D01*
X-139716Y-552963D01*
X-139784Y-553075D01*
X-139850Y-553190D01*
X-139912Y-553307D01*
X-139971Y-553425D01*
X-140026Y-553545D01*
X-140077Y-553667D01*
X-140125Y-553790D01*
X-140169Y-553915D01*
X-140210Y-554041D01*
X-140246Y-554168D01*
X-140279Y-554296D01*
X-140308Y-554425D01*
X-140334Y-554554D01*
X-140355Y-554685D01*
X-140373Y-554816D01*
X-140386Y-554947D01*
X-140396Y-555079D01*
X-140402Y-555211D01*
X-140404Y-555343D01*
X-140404Y-559802D01*
X-140402Y-559934D01*
X-140396Y-560066D01*
X-140386Y-560198D01*
X-140373Y-560329D01*
X-140355Y-560460D01*
X-140334Y-560591D01*
X-140308Y-560720D01*
X-140279Y-560849D01*
X-140246Y-560977D01*
X-140210Y-561104D01*
X-140169Y-561230D01*
X-140125Y-561355D01*
X-140077Y-561478D01*
X-140026Y-561600D01*
X-139971Y-561720D01*
X-139912Y-561838D01*
X-139850Y-561955D01*
X-139784Y-562070D01*
X-139716Y-562182D01*
X-139643Y-562293D01*
X-139568Y-562402D01*
X-139489Y-562508D01*
X-139408Y-562612D01*
X-139323Y-562713D01*
X-139235Y-562812D01*
X-139144Y-562908D01*
X-139051Y-563001D01*
X-138955Y-563092D01*
X-138856Y-563180D01*
X-138755Y-563265D01*
X-138651Y-563346D01*
X-138545Y-563425D01*
X-138436Y-563500D01*
X-138325Y-563573D01*
X-138213Y-563641D01*
X-138098Y-563707D01*
X-137981Y-563769D01*
X-137863Y-563828D01*
X-137743Y-563883D01*
X-137621Y-563934D01*
X-137498Y-563982D01*
X-137373Y-564026D01*
X-137247Y-564067D01*
X-137120Y-564103D01*
X-136992Y-564136D01*
X-136863Y-564165D01*
X-136734Y-564191D01*
X-136603Y-564212D01*
X-136472Y-564230D01*
X-136341Y-564243D01*
X-136209Y-564253D01*
X-136077Y-564259D01*
X-135945Y-564261D01*
X-135813Y-564259D01*
X-135681Y-564253D01*
X-135549Y-564243D01*
X-135418Y-564230D01*
X-135287Y-564212D01*
X-135156Y-564191D01*
X-135027Y-564165D01*
X-134898Y-564136D01*
X-134770Y-564103D01*
X-134643Y-564067D01*
X-134517Y-564026D01*
X-134392Y-563982D01*
X-134269Y-563934D01*
X-134147Y-563883D01*
X-134027Y-563828D01*
X-133909Y-563769D01*
X-133792Y-563707D01*
X-133677Y-563641D01*
X-133565Y-563573D01*
X-133454Y-563500D01*
X-133345Y-563425D01*
X-133239Y-563346D01*
X-133135Y-563265D01*
X-133034Y-563180D01*
X-132935Y-563092D01*
X-132839Y-563001D01*
X-132746Y-562908D01*
X-132655Y-562812D01*
X-132567Y-562713D01*
X-132482Y-562612D01*
X-132401Y-562508D01*
X-132322Y-562402D01*
X-132247Y-562293D01*
X-132174Y-562182D01*
X-132106Y-562070D01*
X-132040Y-561955D01*
X-131978Y-561838D01*
X-131919Y-561720D01*
X-131864Y-561600D01*
X-131813Y-561478D01*
X-131765Y-561355D01*
X-131721Y-561230D01*
X-131680Y-561104D01*
X-131644Y-560977D01*
X-131611Y-560849D01*
X-131582Y-560720D01*
X-131556Y-560591D01*
X-131535Y-560460D01*
X-131517Y-560329D01*
X-131504Y-560198D01*
X-131494Y-560066D01*
X-131488Y-559934D01*
X-131486Y-559802D01*
X-147924Y-560917D02*
X-147924Y-544195D01*
X-147924Y-560917D02*
X-147926Y-561031D01*
X-147932Y-561145D01*
X-147942Y-561259D01*
X-147955Y-561372D01*
X-147973Y-561485D01*
X-147994Y-561597D01*
X-148019Y-561709D01*
X-148048Y-561819D01*
X-148081Y-561929D01*
X-148117Y-562037D01*
X-148157Y-562144D01*
X-148201Y-562249D01*
X-148248Y-562353D01*
X-148299Y-562455D01*
X-148353Y-562556D01*
X-148411Y-562654D01*
X-148472Y-562751D01*
X-148536Y-562845D01*
X-148603Y-562938D01*
X-148674Y-563027D01*
X-148748Y-563115D01*
X-148824Y-563199D01*
X-148903Y-563282D01*
X-148986Y-563361D01*
X-149070Y-563437D01*
X-149158Y-563511D01*
X-149247Y-563582D01*
X-149340Y-563649D01*
X-149434Y-563713D01*
X-149531Y-563774D01*
X-149629Y-563832D01*
X-149730Y-563886D01*
X-149832Y-563937D01*
X-149936Y-563984D01*
X-150041Y-564028D01*
X-150148Y-564068D01*
X-150256Y-564104D01*
X-150366Y-564137D01*
X-150476Y-564166D01*
X-150588Y-564191D01*
X-150700Y-564212D01*
X-150813Y-564230D01*
X-150926Y-564243D01*
X-151040Y-564253D01*
X-151154Y-564259D01*
X-151268Y-564261D01*
X-168009Y-564261D02*
X-168009Y-544195D01*
X-168009Y-564261D02*
X-173583Y-564261D01*
X-173697Y-564259D01*
X-173811Y-564253D01*
X-173925Y-564243D01*
X-174038Y-564230D01*
X-174151Y-564212D01*
X-174263Y-564191D01*
X-174375Y-564166D01*
X-174485Y-564137D01*
X-174595Y-564104D01*
X-174703Y-564068D01*
X-174810Y-564028D01*
X-174915Y-563984D01*
X-175019Y-563937D01*
X-175121Y-563886D01*
X-175222Y-563832D01*
X-175320Y-563774D01*
X-175417Y-563713D01*
X-175511Y-563649D01*
X-175604Y-563582D01*
X-175693Y-563511D01*
X-175781Y-563437D01*
X-175865Y-563361D01*
X-175948Y-563282D01*
X-176027Y-563199D01*
X-176103Y-563115D01*
X-176177Y-563027D01*
X-176248Y-562938D01*
X-176315Y-562845D01*
X-176379Y-562751D01*
X-176440Y-562655D01*
X-176498Y-562556D01*
X-176552Y-562455D01*
X-176603Y-562353D01*
X-176650Y-562249D01*
X-176694Y-562144D01*
X-176734Y-562037D01*
X-176770Y-561929D01*
X-176803Y-561819D01*
X-176832Y-561709D01*
X-176857Y-561597D01*
X-176878Y-561485D01*
X-176896Y-561372D01*
X-176909Y-561259D01*
X-176919Y-561145D01*
X-176925Y-561031D01*
X-176927Y-560917D01*
X-176928Y-560917D02*
X-176928Y-554228D01*
X-176927Y-554228D02*
X-176925Y-554114D01*
X-176919Y-554000D01*
X-176909Y-553886D01*
X-176896Y-553773D01*
X-176878Y-553660D01*
X-176857Y-553548D01*
X-176832Y-553436D01*
X-176803Y-553326D01*
X-176770Y-553216D01*
X-176734Y-553108D01*
X-176694Y-553001D01*
X-176650Y-552896D01*
X-176603Y-552792D01*
X-176552Y-552690D01*
X-176498Y-552589D01*
X-176440Y-552491D01*
X-176379Y-552394D01*
X-176315Y-552300D01*
X-176248Y-552207D01*
X-176177Y-552118D01*
X-176103Y-552030D01*
X-176027Y-551946D01*
X-175948Y-551863D01*
X-175865Y-551784D01*
X-175781Y-551708D01*
X-175693Y-551634D01*
X-175604Y-551563D01*
X-175511Y-551496D01*
X-175417Y-551432D01*
X-175320Y-551371D01*
X-175222Y-551313D01*
X-175121Y-551259D01*
X-175019Y-551208D01*
X-174915Y-551161D01*
X-174810Y-551117D01*
X-174703Y-551077D01*
X-174595Y-551041D01*
X-174485Y-551008D01*
X-174375Y-550979D01*
X-174263Y-550954D01*
X-174151Y-550933D01*
X-174038Y-550915D01*
X-173925Y-550902D01*
X-173811Y-550892D01*
X-173697Y-550886D01*
X-173583Y-550884D01*
X-168009Y-550884D01*
X-184011Y-555343D02*
X-184011Y-559802D01*
X-184011Y-555343D02*
X-184013Y-555211D01*
X-184019Y-555079D01*
X-184029Y-554947D01*
X-184042Y-554816D01*
X-184060Y-554685D01*
X-184081Y-554554D01*
X-184107Y-554425D01*
X-184136Y-554296D01*
X-184169Y-554168D01*
X-184205Y-554041D01*
X-184246Y-553915D01*
X-184290Y-553790D01*
X-184338Y-553667D01*
X-184389Y-553545D01*
X-184444Y-553425D01*
X-184503Y-553307D01*
X-184565Y-553190D01*
X-184631Y-553075D01*
X-184699Y-552963D01*
X-184772Y-552852D01*
X-184847Y-552743D01*
X-184926Y-552637D01*
X-185007Y-552533D01*
X-185092Y-552432D01*
X-185180Y-552333D01*
X-185271Y-552237D01*
X-185364Y-552144D01*
X-185460Y-552053D01*
X-185559Y-551965D01*
X-185660Y-551880D01*
X-185764Y-551799D01*
X-185870Y-551720D01*
X-185979Y-551645D01*
X-186090Y-551572D01*
X-186202Y-551504D01*
X-186317Y-551438D01*
X-186434Y-551376D01*
X-186552Y-551317D01*
X-186672Y-551262D01*
X-186794Y-551211D01*
X-186917Y-551163D01*
X-187042Y-551119D01*
X-187168Y-551078D01*
X-187295Y-551042D01*
X-187423Y-551009D01*
X-187552Y-550980D01*
X-187681Y-550954D01*
X-187812Y-550933D01*
X-187943Y-550915D01*
X-188074Y-550902D01*
X-188206Y-550892D01*
X-188338Y-550886D01*
X-188470Y-550884D01*
X-188602Y-550886D01*
X-188734Y-550892D01*
X-188866Y-550902D01*
X-188997Y-550915D01*
X-189128Y-550933D01*
X-189259Y-550954D01*
X-189388Y-550980D01*
X-189517Y-551009D01*
X-189645Y-551042D01*
X-189772Y-551078D01*
X-189898Y-551119D01*
X-190023Y-551163D01*
X-190146Y-551211D01*
X-190268Y-551262D01*
X-190388Y-551317D01*
X-190506Y-551376D01*
X-190623Y-551438D01*
X-190738Y-551504D01*
X-190850Y-551572D01*
X-190961Y-551645D01*
X-191070Y-551720D01*
X-191176Y-551799D01*
X-191280Y-551880D01*
X-191381Y-551965D01*
X-191480Y-552053D01*
X-191576Y-552144D01*
X-191669Y-552237D01*
X-191760Y-552333D01*
X-191848Y-552432D01*
X-191933Y-552533D01*
X-192014Y-552637D01*
X-192093Y-552743D01*
X-192168Y-552852D01*
X-192241Y-552963D01*
X-192309Y-553075D01*
X-192375Y-553190D01*
X-192437Y-553307D01*
X-192496Y-553425D01*
X-192551Y-553545D01*
X-192602Y-553667D01*
X-192650Y-553790D01*
X-192694Y-553915D01*
X-192735Y-554041D01*
X-192771Y-554168D01*
X-192804Y-554296D01*
X-192833Y-554425D01*
X-192859Y-554554D01*
X-192880Y-554685D01*
X-192898Y-554816D01*
X-192911Y-554947D01*
X-192921Y-555079D01*
X-192927Y-555211D01*
X-192929Y-555343D01*
X-192929Y-559802D01*
X-192927Y-559934D01*
X-192921Y-560066D01*
X-192911Y-560198D01*
X-192898Y-560329D01*
X-192880Y-560460D01*
X-192859Y-560591D01*
X-192833Y-560720D01*
X-192804Y-560849D01*
X-192771Y-560977D01*
X-192735Y-561104D01*
X-192694Y-561230D01*
X-192650Y-561355D01*
X-192602Y-561478D01*
X-192551Y-561600D01*
X-192496Y-561720D01*
X-192437Y-561838D01*
X-192375Y-561955D01*
X-192309Y-562070D01*
X-192241Y-562182D01*
X-192168Y-562293D01*
X-192093Y-562402D01*
X-192014Y-562508D01*
X-191933Y-562612D01*
X-191848Y-562713D01*
X-191760Y-562812D01*
X-191669Y-562908D01*
X-191576Y-563001D01*
X-191480Y-563092D01*
X-191381Y-563180D01*
X-191280Y-563265D01*
X-191176Y-563346D01*
X-191070Y-563425D01*
X-190961Y-563500D01*
X-190850Y-563573D01*
X-190738Y-563641D01*
X-190623Y-563707D01*
X-190506Y-563769D01*
X-190388Y-563828D01*
X-190268Y-563883D01*
X-190146Y-563934D01*
X-190023Y-563982D01*
X-189898Y-564026D01*
X-189772Y-564067D01*
X-189645Y-564103D01*
X-189517Y-564136D01*
X-189388Y-564165D01*
X-189259Y-564191D01*
X-189128Y-564212D01*
X-188997Y-564230D01*
X-188866Y-564243D01*
X-188734Y-564253D01*
X-188602Y-564259D01*
X-188470Y-564261D01*
X-188338Y-564259D01*
X-188206Y-564253D01*
X-188074Y-564243D01*
X-187943Y-564230D01*
X-187812Y-564212D01*
X-187681Y-564191D01*
X-187552Y-564165D01*
X-187423Y-564136D01*
X-187295Y-564103D01*
X-187168Y-564067D01*
X-187042Y-564026D01*
X-186917Y-563982D01*
X-186794Y-563934D01*
X-186672Y-563883D01*
X-186552Y-563828D01*
X-186434Y-563769D01*
X-186317Y-563707D01*
X-186202Y-563641D01*
X-186090Y-563573D01*
X-185979Y-563500D01*
X-185870Y-563425D01*
X-185764Y-563346D01*
X-185660Y-563265D01*
X-185559Y-563180D01*
X-185460Y-563092D01*
X-185364Y-563001D01*
X-185271Y-562908D01*
X-185180Y-562812D01*
X-185092Y-562713D01*
X-185007Y-562612D01*
X-184926Y-562508D01*
X-184847Y-562402D01*
X-184772Y-562293D01*
X-184699Y-562182D01*
X-184631Y-562070D01*
X-184565Y-561955D01*
X-184503Y-561838D01*
X-184444Y-561720D01*
X-184389Y-561600D01*
X-184338Y-561478D01*
X-184290Y-561355D01*
X-184246Y-561230D01*
X-184205Y-561104D01*
X-184169Y-560977D01*
X-184136Y-560849D01*
X-184107Y-560720D01*
X-184081Y-560591D01*
X-184060Y-560460D01*
X-184042Y-560329D01*
X-184029Y-560198D01*
X-184019Y-560066D01*
X-184013Y-559934D01*
X-184011Y-559802D01*
X-203914Y-556458D02*
X-208931Y-556458D01*
X-203914Y-556457D02*
X-203790Y-556459D01*
X-203667Y-556465D01*
X-203543Y-556475D01*
X-203420Y-556488D01*
X-203297Y-556506D01*
X-203176Y-556528D01*
X-203054Y-556553D01*
X-202934Y-556582D01*
X-202815Y-556615D01*
X-202696Y-556652D01*
X-202579Y-556692D01*
X-202464Y-556737D01*
X-202350Y-556784D01*
X-202237Y-556836D01*
X-202126Y-556891D01*
X-202017Y-556949D01*
X-201910Y-557011D01*
X-201804Y-557076D01*
X-201701Y-557145D01*
X-201600Y-557217D01*
X-201502Y-557292D01*
X-201406Y-557370D01*
X-201312Y-557451D01*
X-201221Y-557535D01*
X-201133Y-557622D01*
X-201048Y-557711D01*
X-200965Y-557804D01*
X-200885Y-557899D01*
X-200809Y-557996D01*
X-200736Y-558096D01*
X-200665Y-558198D01*
X-200598Y-558302D01*
X-200535Y-558408D01*
X-200475Y-558516D01*
X-200418Y-558626D01*
X-200365Y-558738D01*
X-200315Y-558851D01*
X-200269Y-558966D01*
X-200227Y-559083D01*
X-200188Y-559200D01*
X-200153Y-559319D01*
X-200122Y-559439D01*
X-200095Y-559560D01*
X-200071Y-559681D01*
X-200052Y-559804D01*
X-200036Y-559927D01*
X-200024Y-560050D01*
X-200016Y-560173D01*
X-200012Y-560297D01*
X-200012Y-560421D01*
X-200016Y-560545D01*
X-200024Y-560668D01*
X-200036Y-560791D01*
X-200052Y-560914D01*
X-200071Y-561037D01*
X-200095Y-561158D01*
X-200122Y-561279D01*
X-200153Y-561399D01*
X-200188Y-561518D01*
X-200227Y-561635D01*
X-200269Y-561752D01*
X-200315Y-561867D01*
X-200365Y-561980D01*
X-200418Y-562092D01*
X-200475Y-562202D01*
X-200535Y-562310D01*
X-200598Y-562416D01*
X-200665Y-562520D01*
X-200736Y-562622D01*
X-200809Y-562722D01*
X-200885Y-562819D01*
X-200965Y-562914D01*
X-201048Y-563007D01*
X-201133Y-563096D01*
X-201221Y-563183D01*
X-201312Y-563267D01*
X-201406Y-563348D01*
X-201502Y-563426D01*
X-201600Y-563501D01*
X-201701Y-563573D01*
X-201804Y-563642D01*
X-201910Y-563707D01*
X-202017Y-563769D01*
X-202126Y-563827D01*
X-202237Y-563882D01*
X-202350Y-563934D01*
X-202464Y-563981D01*
X-202579Y-564026D01*
X-202696Y-564066D01*
X-202815Y-564103D01*
X-202934Y-564136D01*
X-203054Y-564165D01*
X-203176Y-564190D01*
X-203297Y-564212D01*
X-203420Y-564230D01*
X-203543Y-564243D01*
X-203667Y-564253D01*
X-203790Y-564259D01*
X-203914Y-564261D01*
X-208931Y-564261D01*
X-208931Y-554228D01*
X-208930Y-554228D02*
X-208928Y-554114D01*
X-208922Y-554000D01*
X-208912Y-553886D01*
X-208899Y-553773D01*
X-208881Y-553660D01*
X-208860Y-553548D01*
X-208835Y-553436D01*
X-208806Y-553326D01*
X-208773Y-553216D01*
X-208737Y-553108D01*
X-208697Y-553001D01*
X-208653Y-552896D01*
X-208606Y-552792D01*
X-208555Y-552690D01*
X-208501Y-552589D01*
X-208443Y-552491D01*
X-208382Y-552394D01*
X-208318Y-552300D01*
X-208251Y-552207D01*
X-208180Y-552118D01*
X-208106Y-552030D01*
X-208030Y-551946D01*
X-207951Y-551863D01*
X-207868Y-551784D01*
X-207784Y-551708D01*
X-207696Y-551634D01*
X-207607Y-551563D01*
X-207514Y-551496D01*
X-207420Y-551432D01*
X-207323Y-551371D01*
X-207225Y-551313D01*
X-207124Y-551259D01*
X-207022Y-551208D01*
X-206918Y-551161D01*
X-206813Y-551117D01*
X-206706Y-551077D01*
X-206598Y-551041D01*
X-206488Y-551008D01*
X-206378Y-550979D01*
X-206266Y-550954D01*
X-206154Y-550933D01*
X-206041Y-550915D01*
X-205928Y-550902D01*
X-205814Y-550892D01*
X-205700Y-550886D01*
X-205586Y-550884D01*
X-201127Y-550884D01*
X-217458Y-550884D02*
X-217458Y-564261D01*
X-217458Y-550884D02*
X-224147Y-550884D01*
X-224147Y-553113D01*
X-238592Y-544195D02*
X-238592Y-564261D01*
X-233018Y-564261D01*
X-232904Y-564259D01*
X-232790Y-564253D01*
X-232676Y-564243D01*
X-232563Y-564230D01*
X-232450Y-564212D01*
X-232338Y-564191D01*
X-232226Y-564166D01*
X-232116Y-564137D01*
X-232006Y-564104D01*
X-231898Y-564068D01*
X-231791Y-564028D01*
X-231686Y-563984D01*
X-231582Y-563937D01*
X-231480Y-563886D01*
X-231379Y-563832D01*
X-231281Y-563774D01*
X-231184Y-563713D01*
X-231090Y-563649D01*
X-230997Y-563582D01*
X-230908Y-563511D01*
X-230820Y-563437D01*
X-230736Y-563361D01*
X-230653Y-563282D01*
X-230574Y-563199D01*
X-230498Y-563115D01*
X-230424Y-563027D01*
X-230353Y-562938D01*
X-230286Y-562845D01*
X-230222Y-562751D01*
X-230161Y-562654D01*
X-230103Y-562556D01*
X-230049Y-562455D01*
X-229998Y-562353D01*
X-229951Y-562249D01*
X-229907Y-562144D01*
X-229867Y-562037D01*
X-229831Y-561929D01*
X-229798Y-561819D01*
X-229769Y-561709D01*
X-229744Y-561597D01*
X-229723Y-561485D01*
X-229705Y-561372D01*
X-229692Y-561259D01*
X-229682Y-561145D01*
X-229676Y-561031D01*
X-229674Y-560917D01*
X-229674Y-554228D01*
X-229676Y-554114D01*
X-229682Y-554000D01*
X-229692Y-553886D01*
X-229705Y-553773D01*
X-229723Y-553660D01*
X-229744Y-553548D01*
X-229769Y-553436D01*
X-229798Y-553326D01*
X-229831Y-553216D01*
X-229867Y-553108D01*
X-229907Y-553001D01*
X-229951Y-552896D01*
X-229998Y-552792D01*
X-230049Y-552690D01*
X-230103Y-552589D01*
X-230161Y-552491D01*
X-230222Y-552394D01*
X-230286Y-552300D01*
X-230353Y-552207D01*
X-230424Y-552118D01*
X-230498Y-552030D01*
X-230574Y-551946D01*
X-230653Y-551863D01*
X-230736Y-551784D01*
X-230820Y-551708D01*
X-230908Y-551634D01*
X-230997Y-551563D01*
X-231090Y-551496D01*
X-231184Y-551432D01*
X-231281Y-551371D01*
X-231379Y-551313D01*
X-231480Y-551259D01*
X-231582Y-551208D01*
X-231686Y-551161D01*
X-231791Y-551117D01*
X-231898Y-551077D01*
X-232006Y-551041D01*
X-232116Y-551008D01*
X-232226Y-550979D01*
X-232338Y-550954D01*
X-232450Y-550933D01*
X-232563Y-550915D01*
X-232676Y-550902D01*
X-232790Y-550892D01*
X-232904Y-550886D01*
X-233018Y-550884D01*
X-238592Y-550884D01*
D11*
X38100Y-679450D03*
D12*
X38100Y-704850D03*
X38100Y-730250D03*
X38100Y-755650D03*
X38100Y-781050D03*
X38100Y-806450D03*
X38100Y-831850D03*
X38100Y-857250D03*
X38100Y-882650D03*
X38100Y-908050D03*
X38100Y-933450D03*
X38100Y-958850D03*
X190500Y-679450D03*
X190500Y-704850D03*
X190500Y-730250D03*
X190500Y-755650D03*
X190500Y-781050D03*
X190500Y-806450D03*
X190500Y-857250D03*
X190500Y-882650D03*
X190500Y-933450D03*
X190500Y-958850D03*
X190500Y-908050D03*
X190500Y-831850D03*
X38100Y-984250D03*
X38100Y-1009650D03*
X38100Y-1035050D03*
X190500Y-984250D03*
X190500Y-1009650D03*
X190500Y-1035050D03*
D13*
X468630Y-758190D03*
X468630Y-867410D03*
D14*
X299720Y-812800D03*
X601980Y-812800D03*
D15*
X298450Y-943610D03*
D16*
X298450Y-923290D03*
D17*
X603250Y-694690D03*
D16*
X603250Y-715010D03*
D18*
X558800Y-628650D03*
X457200Y-628650D03*
D19*
X381000Y-628650D03*
X381000Y-654050D03*
D20*
X450850Y-994300D03*
D21*
X450850Y-1056800D03*
X498850Y-1022800D03*
D22*
X-203200Y-1035050D03*
X-203200Y-1009650D03*
X-203200Y-984250D03*
X-203200Y-958850D03*
X-203200Y-933450D03*
X-203200Y-908050D03*
X-228600Y-1035050D03*
X-228600Y-1009650D03*
X-228600Y-984250D03*
X-228600Y-958850D03*
X-228600Y-933450D03*
X-228600Y-908050D03*
X-203200Y-882650D03*
X-228600Y-882650D03*
D23*
X-70104Y-1022350D02*
X-56896Y-1022350D01*
X-56896Y-996950D02*
X-70104Y-996950D01*
X-70104Y-869950D02*
X-56896Y-869950D01*
X-56896Y-844550D02*
X-70104Y-844550D01*
X-70104Y-971550D02*
X-56896Y-971550D01*
X-56896Y-946150D02*
X-70104Y-946150D01*
X-70104Y-895350D02*
X-56896Y-895350D01*
X-56896Y-920750D02*
X-70104Y-920750D01*
X-133096Y-844550D02*
X-146304Y-844550D01*
X-146304Y-869950D02*
X-133096Y-869950D01*
X-133096Y-895350D02*
X-146304Y-895350D01*
X-146304Y-920750D02*
X-133096Y-920750D01*
X-133096Y-946150D02*
X-146304Y-946150D01*
X-146304Y-971550D02*
X-133096Y-971550D01*
X-133096Y-996950D02*
X-146304Y-996950D01*
X-146304Y-1022350D02*
X-133096Y-1022350D01*
D24*
X177800Y-579120D02*
X177800Y-563880D01*
X152400Y-563880D02*
X152400Y-579120D01*
X127000Y-579120D02*
X127000Y-563880D01*
X101600Y-563880D02*
X101600Y-579120D01*
X76200Y-579120D02*
X76200Y-563880D01*
X50800Y-563880D02*
X50800Y-579120D01*
X-49530Y-635000D02*
X-64770Y-635000D01*
X-64770Y-660400D02*
X-49530Y-660400D01*
X-49530Y-685800D02*
X-64770Y-685800D01*
X-64770Y-711200D02*
X-49530Y-711200D01*
X-49530Y-736600D02*
X-64770Y-736600D01*
X-64770Y-762000D02*
X-49530Y-762000D01*
D25*
X383794Y-572262D03*
X383794Y-507238D03*
X429006Y-572262D03*
X429006Y-507238D03*
D26*
X457200Y-628650D02*
X381000Y-628650D01*
X468630Y-758190D02*
X588010Y-758190D01*
X603250Y-742950D01*
X603250Y-715010D01*
X618490Y-715010D01*
X628650Y-704850D01*
X628650Y-641350D01*
X615950Y-628650D01*
X558800Y-628650D01*
D27*
X-139700Y-1022350D02*
X-215900Y-1022350D01*
X-228600Y-1009650D01*
X-215900Y-996950D01*
X-215900Y-876300D01*
X-209550Y-869950D01*
X-139700Y-869950D01*
X-57150Y-660400D02*
X-6350Y-660400D01*
X0Y-654050D01*
X0Y-622300D01*
X6350Y-615950D01*
X44450Y-615950D01*
X50800Y-609600D01*
X50800Y-571500D01*
X-285750Y-1003300D02*
X-279400Y-1009650D01*
X-285750Y-1003300D02*
X-285750Y-812800D01*
X-279400Y-806450D01*
X-196850Y-806450D01*
X-184150Y-793750D01*
X-88900Y-793750D02*
X-82550Y-787400D01*
X-82550Y-666750D01*
X-76200Y-660400D01*
X-57150Y-660400D01*
X-228600Y-1009650D02*
X-279400Y-1009650D01*
X-184150Y-793750D02*
X-88900Y-793750D01*
X50800Y-571500D02*
X50800Y-558800D01*
X88900Y-520700D01*
D26*
X222250Y-742950D02*
X209550Y-755650D01*
X222250Y-742950D02*
X222250Y-546100D01*
X234950Y-533400D01*
X546100Y-533400D02*
X558800Y-546100D01*
X558800Y-628650D01*
X209550Y-755650D02*
X190500Y-755650D01*
X234950Y-533400D02*
X546100Y-533400D01*
D27*
X222250Y-546100D02*
X196850Y-520700D01*
X88900Y-520700D01*
D26*
X421800Y-1056800D02*
X450850Y-1056800D01*
X421800Y-1056800D02*
X412750Y-1047750D01*
X397510Y-943610D02*
X298450Y-943610D01*
X412750Y-958850D02*
X412750Y-1047750D01*
X412750Y-958850D02*
X397510Y-943610D01*
X298450Y-814070D02*
X299720Y-812800D01*
X298450Y-814070D02*
X298450Y-895350D01*
X279400Y-914400D01*
X279400Y-927100D01*
X295910Y-943610D01*
X298450Y-943610D01*
X368300Y-812800D02*
X381000Y-800100D01*
X381000Y-654050D01*
X368300Y-812800D02*
X299720Y-812800D01*
X381000Y-654050D02*
X590550Y-654050D01*
X603250Y-666750D01*
X603250Y-694690D01*
X190500Y-704850D02*
X165100Y-704850D01*
X158750Y-711200D01*
X158750Y-895350D01*
X158750Y-1070073D01*
X173892Y-1085215D02*
X210185Y-1085215D01*
X222250Y-1073150D01*
X173892Y-1085215D02*
X158750Y-1070073D01*
X222250Y-946150D02*
X260350Y-946150D01*
X279400Y-927100D01*
X222250Y-946150D02*
X222250Y-1073150D01*
D28*
X-63500Y-850900D02*
X-63500Y-844550D01*
X-63500Y-850900D02*
X-57150Y-857250D01*
X-44450Y-857250D01*
X-38100Y-863600D01*
X-38100Y-889000D01*
X-31750Y-895350D01*
X50800Y-895350D01*
X57150Y-901700D01*
X57150Y-939800D02*
X50800Y-946150D01*
X-38100Y-946150D01*
X-50800Y-958850D01*
X-93326Y-946150D02*
X-139700Y-946150D01*
X-80626Y-958850D02*
X-50800Y-958850D01*
X-80626Y-958850D02*
X-93326Y-946150D01*
X57150Y-939800D02*
X57150Y-901700D01*
X63500Y-895350D01*
X158750Y-895350D01*
X-228600Y-1035050D02*
X-228600Y-1047750D01*
X-222250Y-1054100D01*
X-44450Y-1054100D01*
X-12700Y-1022350D01*
X57150Y-1022350D01*
X63500Y-1016000D01*
X63500Y-952500D01*
X57150Y-946150D01*
X50800Y-946150D01*
X152400Y-692150D02*
X152400Y-571500D01*
X152400Y-692150D02*
X165100Y-704850D01*
X6350Y-685800D02*
X-57150Y-685800D01*
X6350Y-685800D02*
X12700Y-679450D01*
X12700Y-635000D01*
X19050Y-628650D01*
X82550Y-628650D01*
X88900Y-622300D01*
X88900Y-539750D01*
X95250Y-533400D01*
X146050Y-533400D01*
X152400Y-539750D01*
X152400Y-571500D01*
X429006Y-572262D02*
X429006Y-586994D01*
X425450Y-590550D01*
X355600Y-590550D01*
X342900Y-603250D01*
X342900Y-641350D01*
X355600Y-654050D01*
X381000Y-654050D01*
D26*
X450850Y-885190D02*
X450850Y-994300D01*
X450850Y-885190D02*
X468630Y-867410D01*
X397510Y-923290D02*
X298450Y-923290D01*
X435610Y-885190D02*
X450850Y-885190D01*
X435610Y-885190D02*
X397510Y-923290D01*
D27*
X-107950Y-996950D02*
X-139700Y-996950D01*
X-107950Y-996950D02*
X-95250Y-1009650D01*
X-44450Y-1009650D01*
X-38100Y-1016000D01*
X-38100Y-1028700D01*
X-44450Y-1035050D01*
X-203200Y-1035050D01*
X-120650Y-1009650D02*
X-107950Y-1022350D01*
X-120650Y-1009650D02*
X-203200Y-1009650D01*
X-107950Y-1022350D02*
X-63500Y-1022350D01*
X-63500Y-996950D02*
X-82550Y-996950D01*
X-95250Y-984250D01*
X-203200Y-984250D01*
X-82550Y-971550D02*
X-63500Y-971550D01*
X-82550Y-971550D02*
X-95250Y-958850D01*
X-203200Y-958850D01*
X-82550Y-946150D02*
X-63500Y-946150D01*
X-82550Y-946150D02*
X-95250Y-933450D01*
X-203200Y-933450D01*
X-82550Y-920750D02*
X-63500Y-920750D01*
X-82550Y-920750D02*
X-95250Y-908050D01*
X-203200Y-908050D01*
X-82550Y-895350D02*
X-63500Y-895350D01*
X-82550Y-895350D02*
X-95250Y-882650D01*
X-203200Y-882650D01*
X-82550Y-869950D02*
X-63500Y-869950D01*
X-82550Y-869950D02*
X-95250Y-857250D01*
X-222250Y-857250D01*
X-228600Y-863600D01*
X-228600Y-882650D01*
D28*
X-139700Y-971550D02*
X-95250Y-971550D01*
X-82550Y-984250D01*
X-50800Y-984250D01*
X-44450Y-977900D01*
X-44450Y-965200D01*
X-38100Y-958850D01*
X38100Y-958850D01*
X-82550Y-933450D02*
X-95250Y-920750D01*
X-139700Y-920750D01*
X-82550Y-933450D02*
X38100Y-933450D01*
X-95250Y-895350D02*
X-139700Y-895350D01*
X-95250Y-895350D02*
X-82550Y-908050D01*
X38100Y-908050D01*
X-228600Y-958850D02*
X-266700Y-958850D01*
X-273050Y-952500D01*
X-273050Y-825500D01*
X-266700Y-819150D01*
X-184150Y-819150D01*
X-171450Y-806450D01*
X-19050Y-806450D02*
X-12700Y-812800D01*
X-12700Y-825500D01*
X-6350Y-831850D01*
X38100Y-831850D01*
X-19050Y-806450D02*
X-171450Y-806450D01*
X-228600Y-933450D02*
X-254000Y-933450D01*
X-260350Y-927100D01*
X-260350Y-838200D01*
X-254000Y-831850D01*
X-177800Y-831850D01*
X-165100Y-819150D01*
X-25400Y-850900D02*
X-19050Y-857250D01*
X38100Y-857250D01*
X-25400Y-825500D02*
X-31750Y-819150D01*
X-165100Y-819150D01*
X-25400Y-825500D02*
X-25400Y-850900D01*
X-228600Y-908050D02*
X-241300Y-908050D01*
X-247650Y-901700D01*
X-247650Y-850900D01*
X-241300Y-844550D01*
X-171450Y-844550D01*
X-158750Y-831850D01*
X-44450Y-831850D01*
X-38100Y-838200D01*
X-38100Y-850900D01*
X-25400Y-863600D01*
X-25400Y-876300D01*
X-19050Y-882650D01*
X38100Y-882650D01*
X-38100Y-736600D02*
X-57150Y-736600D01*
X0Y-736600D01*
X6350Y-742950D01*
X6350Y-800100D01*
X12700Y-806450D01*
X38100Y-806450D01*
X63500Y-806450D01*
X69850Y-800100D01*
X69850Y-679450D01*
X76200Y-673100D01*
X133350Y-673100D02*
X139700Y-666750D01*
X139700Y-552450D01*
X133350Y-546100D01*
X107950Y-546100D01*
X101600Y-552450D01*
X101600Y-571500D01*
X76200Y-673100D02*
X133350Y-673100D01*
X19050Y-717550D02*
X12700Y-711200D01*
X19050Y-717550D02*
X19050Y-774700D01*
X25400Y-781050D01*
X38100Y-781050D01*
X12700Y-711200D02*
X-57150Y-711200D01*
X38100Y-781050D02*
X50800Y-781050D01*
X57150Y-774700D01*
X57150Y-666750D01*
X63500Y-660400D01*
X120650Y-660400D01*
X127000Y-654050D01*
X127000Y-571500D01*
X184150Y-730250D02*
X190500Y-730250D01*
X184150Y-730250D02*
X177800Y-736600D01*
X177800Y-762000D01*
X184150Y-768350D01*
X222250Y-768350D01*
X247650Y-742950D02*
X247650Y-577850D01*
X254000Y-571500D01*
X383032Y-571500D01*
X383794Y-572262D01*
X247650Y-742950D02*
X222250Y-768350D01*
M02*
