M48
;GenerationSoftware,Autodesk,EAGLE,8.7.0*%
;CreationDate,2018-03-20T17:45:30Z*%
FMAT,2
ICI,OFF
METRIC,TZ,000.000
T9C0.813
T8C1.000
T7C1.016
T6C1.194
T5C1.651
T4C2.800
T3C3.000
T2C3.200
T1C4.115
%
G90
M71
T1
X29972Y-81280
X60198Y-81280
T2
X45085Y-99430
T3
X63500Y-111760
X-27940Y-111760
X63500Y-50165
X-27940Y-50165
T4
X45085Y-105680
X49885Y-102280
T5
X19050Y-106045
X19050Y-65405
X3810Y-65405
X3810Y-106045
T6
X46863Y-86741
X46863Y-75819
T7
X-20320Y-103505
X42901Y-50724
X-22860Y-98425
X-20320Y-95885
X-20320Y-98425
X-20320Y-100965
X-20320Y-93345
X-20320Y-90805
X-22860Y-103505
X-22860Y-100965
X-22860Y-95885
X-22860Y-93345
X-22860Y-90805
X-20320Y-88265
X-22860Y-88265
X10160Y-57150
X17780Y-57150
X15240Y-57150
X12700Y-57150
X7620Y-57150
X5080Y-57150
X-5715Y-63500
X-5715Y-66040
X-5715Y-68580
X-5715Y-71120
X-5715Y-73660
X-5715Y-76200
X38379Y-57226
X38379Y-50724
X42901Y-57226
T8
X3810Y-100965
X3810Y-103505
X19050Y-98425
X19050Y-100965
X3810Y-78105
X3810Y-67945
X3810Y-70485
X3810Y-73025
X3810Y-75565
X3810Y-80645
X3810Y-83185
X3810Y-85725
X3810Y-88265
X3810Y-90805
X3810Y-93345
X3810Y-95885
X19050Y-67945
X19050Y-70485
X19050Y-103505
X19050Y-73025
X19050Y-75565
X19050Y-78105
X19050Y-80645
X19050Y-85725
X19050Y-88265
X19050Y-93345
X19050Y-95885
X19050Y-90805
X19050Y-83185
X3810Y-98425
T9
X-13970Y-84455
X-13970Y-86995
X-13970Y-89535
X-13970Y-92075
X-13970Y-94615
X-13970Y-97155
X-13970Y-99695
X-13970Y-102235
X60325Y-71501
X38100Y-65405
X60325Y-69469
X29845Y-92329
X29845Y-94361
X38100Y-62865
X45720Y-62865
X-6350Y-102235
X-6350Y-99695
X-6350Y-86995
X-6350Y-84455
X-6350Y-97155
X-6350Y-94615
X-6350Y-89535
X55880Y-62865
X-6350Y-92075
M30