G04 EAGLE Gerber X2 export*
%TF.Part,Single*%
%TF.FileFunction,Legend,Top,1*%
%TF.FilePolarity,Positive*%
%TF.GenerationSoftware,Autodesk,EAGLE,8.7.0*%
%TF.CreationDate,2018-03-20T17:42:57Z*%
G75*
%MOMM*%
%FSLAX34Y34*%
%LPD*%
%AMOC8*
5,1,8,0,0,1.08239X$1,22.5*%
G01*
%ADD10C,0.127000*%
%ADD11C,0.101600*%
%ADD12C,0.152400*%
%ADD13C,0.076200*%
%ADD14C,0.050800*%
%ADD15C,0.177800*%
%ADD16R,0.863600X0.609600*%
%ADD17C,0.203200*%
%ADD18C,0.025400*%


D10*
X31750Y-666750D02*
X25400Y-673100D01*
X25400Y-685800D02*
X31750Y-692150D01*
X25400Y-711200D02*
X31750Y-717550D01*
X25400Y-723900D01*
X31750Y-742950D02*
X25400Y-749300D01*
X25400Y-762000D02*
X31750Y-768350D01*
X25400Y-774700D01*
X25400Y-787400D02*
X31750Y-793750D01*
X25400Y-800100D01*
X25400Y-812800D02*
X31750Y-819150D01*
X25400Y-825500D01*
X25400Y-838200D02*
X31750Y-844550D01*
X25400Y-850900D01*
X25400Y-863600D02*
X31750Y-869950D01*
X25400Y-876300D01*
X25400Y-889000D02*
X31750Y-895350D01*
X25400Y-914400D02*
X31750Y-920750D01*
X25400Y-927100D01*
X25400Y-939800D02*
X31750Y-946150D01*
X25400Y-952500D01*
X25400Y-965200D02*
X31750Y-971550D01*
X44450Y-971550D02*
X50800Y-965200D01*
X50800Y-952500D01*
X44450Y-946150D01*
X50800Y-939800D01*
X50800Y-927100D01*
X44450Y-920750D01*
X50800Y-914400D01*
X50800Y-901700D01*
X44450Y-895350D01*
X50800Y-889000D01*
X50800Y-876300D01*
X44450Y-869950D01*
X50800Y-863600D01*
X50800Y-850900D01*
X44450Y-844550D01*
X50800Y-838200D01*
X50800Y-825500D01*
X44450Y-819150D01*
X50800Y-812800D01*
X50800Y-800100D01*
X44450Y-793750D01*
X50800Y-787400D01*
X50800Y-774700D01*
X44450Y-768350D01*
X50800Y-762000D01*
X50800Y-749300D01*
X44450Y-742950D01*
X50800Y-736600D01*
X50800Y-723900D01*
X44450Y-717550D01*
X50800Y-711200D01*
X50800Y-698500D01*
X44450Y-692150D01*
X50800Y-685800D01*
X50800Y-673100D01*
X44450Y-666750D01*
X177800Y-673100D02*
X184150Y-666750D01*
X177800Y-965200D02*
X184150Y-971550D01*
X203200Y-673100D02*
X196850Y-666750D01*
X203200Y-965200D02*
X196850Y-971550D01*
X25400Y-698500D02*
X25400Y-641350D01*
X25400Y-698500D02*
X25400Y-736600D01*
X25400Y-901700D01*
X203200Y-939800D02*
X203200Y-952500D01*
X203200Y-939800D02*
X203200Y-927100D01*
X203200Y-914400D01*
X203200Y-901700D01*
X203200Y-889000D01*
X203200Y-876300D01*
X203200Y-863600D01*
X203200Y-850900D01*
X203200Y-838200D01*
X203200Y-825500D01*
X203200Y-812800D01*
X203200Y-800100D01*
X203200Y-787400D01*
X203200Y-774700D01*
X203200Y-762000D01*
X203200Y-749300D01*
X203200Y-736600D01*
X203200Y-723900D01*
X203200Y-711200D01*
X203200Y-698500D01*
X203200Y-685800D01*
X31750Y-895350D02*
X25400Y-901700D01*
X25400Y-698500D02*
X31750Y-692150D01*
X25400Y-736600D02*
X31750Y-742950D01*
X196850Y-946150D02*
X203200Y-952500D01*
X196850Y-946150D02*
X203200Y-939800D01*
X203200Y-927100D02*
X196850Y-920750D01*
X203200Y-914400D01*
X203200Y-901700D02*
X196850Y-895350D01*
X203200Y-889000D01*
X203200Y-876300D02*
X196850Y-869950D01*
X203200Y-863600D01*
X203200Y-850900D02*
X196850Y-844550D01*
X203200Y-838200D01*
X203200Y-825500D02*
X196850Y-819150D01*
X203200Y-812800D01*
X203200Y-800100D02*
X196850Y-793750D01*
X203200Y-787400D01*
X203200Y-774700D02*
X196850Y-768350D01*
X203200Y-762000D01*
X203200Y-749300D02*
X196850Y-742950D01*
X203200Y-736600D01*
X203200Y-723900D02*
X196850Y-717550D01*
X203200Y-711200D01*
X177800Y-952500D02*
X177800Y-965200D01*
X177800Y-952500D02*
X184150Y-946150D01*
X177800Y-939800D01*
X177800Y-927100D01*
X184150Y-920750D01*
X177800Y-914400D01*
X177800Y-901700D01*
X184150Y-895350D01*
X177800Y-889000D01*
X177800Y-876300D01*
X184150Y-869950D01*
X177800Y-863600D01*
X177800Y-850900D01*
X184150Y-844550D01*
X177800Y-838200D01*
X177800Y-825500D01*
X184150Y-819150D01*
X177800Y-812800D01*
X177800Y-800100D01*
X184150Y-793750D01*
X177800Y-787400D01*
X177800Y-774700D01*
X184150Y-768350D01*
X177800Y-762000D01*
X177800Y-749300D01*
X184150Y-742950D01*
X177800Y-736600D01*
X177800Y-723900D01*
X184150Y-717550D01*
X177800Y-711200D01*
X177800Y-698500D01*
X184150Y-692150D01*
X177800Y-685800D01*
X177800Y-673100D01*
X196850Y-692150D02*
X203200Y-685800D01*
X196850Y-692150D02*
X203200Y-698500D01*
D11*
X12192Y-867107D02*
X508Y-867107D01*
X6999Y-863212D01*
X508Y-859317D01*
X12192Y-859317D01*
X508Y-850314D02*
X510Y-850207D01*
X516Y-850101D01*
X526Y-849995D01*
X539Y-849889D01*
X557Y-849783D01*
X578Y-849679D01*
X603Y-849575D01*
X632Y-849472D01*
X664Y-849371D01*
X701Y-849271D01*
X741Y-849172D01*
X784Y-849074D01*
X831Y-848978D01*
X882Y-848884D01*
X936Y-848792D01*
X993Y-848702D01*
X1053Y-848614D01*
X1117Y-848529D01*
X1184Y-848446D01*
X1254Y-848365D01*
X1326Y-848287D01*
X1402Y-848211D01*
X1480Y-848139D01*
X1561Y-848069D01*
X1644Y-848002D01*
X1729Y-847938D01*
X1817Y-847878D01*
X1907Y-847821D01*
X1999Y-847767D01*
X2093Y-847716D01*
X2189Y-847669D01*
X2287Y-847626D01*
X2386Y-847586D01*
X2486Y-847549D01*
X2587Y-847517D01*
X2690Y-847488D01*
X2794Y-847463D01*
X2898Y-847442D01*
X3004Y-847424D01*
X3110Y-847411D01*
X3216Y-847401D01*
X3322Y-847395D01*
X3429Y-847393D01*
X508Y-850314D02*
X510Y-850435D01*
X516Y-850556D01*
X526Y-850676D01*
X539Y-850797D01*
X557Y-850916D01*
X578Y-851036D01*
X603Y-851154D01*
X632Y-851271D01*
X665Y-851388D01*
X701Y-851503D01*
X742Y-851617D01*
X785Y-851730D01*
X833Y-851842D01*
X884Y-851951D01*
X939Y-852059D01*
X997Y-852166D01*
X1058Y-852270D01*
X1123Y-852372D01*
X1191Y-852472D01*
X1262Y-852570D01*
X1336Y-852666D01*
X1413Y-852759D01*
X1494Y-852849D01*
X1577Y-852937D01*
X1663Y-853022D01*
X1752Y-853105D01*
X1843Y-853184D01*
X1937Y-853261D01*
X2033Y-853334D01*
X2131Y-853404D01*
X2232Y-853471D01*
X2335Y-853535D01*
X2440Y-853596D01*
X2547Y-853653D01*
X2655Y-853706D01*
X2765Y-853756D01*
X2877Y-853803D01*
X2990Y-853845D01*
X3105Y-853884D01*
X5701Y-848368D02*
X5623Y-848289D01*
X5543Y-848213D01*
X5460Y-848140D01*
X5374Y-848070D01*
X5287Y-848003D01*
X5196Y-847939D01*
X5104Y-847879D01*
X5010Y-847821D01*
X4913Y-847767D01*
X4815Y-847717D01*
X4715Y-847670D01*
X4614Y-847626D01*
X4511Y-847586D01*
X4406Y-847550D01*
X4301Y-847518D01*
X4194Y-847489D01*
X4087Y-847464D01*
X3978Y-847442D01*
X3869Y-847425D01*
X3760Y-847411D01*
X3650Y-847402D01*
X3539Y-847396D01*
X3429Y-847394D01*
X5701Y-848367D02*
X12192Y-853885D01*
X12192Y-847393D01*
D10*
X25400Y-901700D02*
X25400Y-977900D01*
X25400Y-990600D01*
X25400Y-1003300D01*
X25400Y-1016000D01*
X25400Y-1028700D01*
X25400Y-1041400D01*
X25400Y-1073150D01*
X82550Y-1073150D01*
X146050Y-1073150D02*
X203200Y-1073150D01*
X203200Y-1041400D01*
X203200Y-1028700D01*
X203200Y-1016000D01*
X203200Y-1003300D01*
X203200Y-990600D01*
X203200Y-977900D01*
X203200Y-952500D01*
X82550Y-641350D02*
X25400Y-641350D01*
X82550Y-641350D02*
X146050Y-641350D01*
X203200Y-641350D01*
X203200Y-685800D01*
X31750Y-971550D02*
X25400Y-977900D01*
X25400Y-990600D02*
X31750Y-996950D01*
X25400Y-1003300D01*
X25400Y-1016000D02*
X31750Y-1022350D01*
X25400Y-1028700D01*
X25400Y-1041400D02*
X31750Y-1047750D01*
X44450Y-1047750D01*
X50800Y-1041400D01*
X50800Y-1028700D01*
X44450Y-1022350D01*
X50800Y-1016000D01*
X50800Y-1003300D01*
X44450Y-996950D01*
X50800Y-990600D01*
X50800Y-977900D01*
X44450Y-971550D01*
X44450Y-666750D02*
X31750Y-666750D01*
X184150Y-666750D02*
X196850Y-666750D01*
X184150Y-971550D02*
X177800Y-977900D01*
X177800Y-990600D01*
X184150Y-996950D01*
X177800Y-1003300D01*
X177800Y-1016000D01*
X184150Y-1022350D01*
X177800Y-1028700D01*
X177800Y-1041400D01*
X184150Y-1047750D01*
X196850Y-1047750D01*
X203200Y-1041400D01*
X203200Y-1028700D02*
X196850Y-1022350D01*
X203200Y-1016000D01*
X203200Y-1003300D02*
X196850Y-996950D01*
X203200Y-990600D01*
X203200Y-977900D02*
X196850Y-971550D01*
X82550Y-996950D02*
X82550Y-1073150D01*
X82550Y-996950D02*
X146050Y-996950D01*
X146050Y-1073150D01*
D12*
X117912Y-1055302D02*
X106172Y-1055302D01*
X117912Y-1055303D02*
X118045Y-1055301D01*
X118177Y-1055295D01*
X118309Y-1055285D01*
X118441Y-1055272D01*
X118573Y-1055254D01*
X118703Y-1055233D01*
X118834Y-1055208D01*
X118963Y-1055179D01*
X119091Y-1055146D01*
X119219Y-1055110D01*
X119345Y-1055070D01*
X119470Y-1055026D01*
X119594Y-1054978D01*
X119716Y-1054927D01*
X119837Y-1054872D01*
X119956Y-1054814D01*
X120074Y-1054752D01*
X120189Y-1054687D01*
X120303Y-1054618D01*
X120414Y-1054547D01*
X120523Y-1054471D01*
X120630Y-1054393D01*
X120735Y-1054312D01*
X120837Y-1054227D01*
X120937Y-1054140D01*
X121034Y-1054050D01*
X121129Y-1053957D01*
X121220Y-1053861D01*
X121309Y-1053763D01*
X121395Y-1053662D01*
X121478Y-1053558D01*
X121558Y-1053452D01*
X121634Y-1053344D01*
X121708Y-1053234D01*
X121778Y-1053121D01*
X121845Y-1053007D01*
X121908Y-1052890D01*
X121968Y-1052772D01*
X122025Y-1052652D01*
X122078Y-1052530D01*
X122127Y-1052407D01*
X122173Y-1052283D01*
X122215Y-1052157D01*
X122253Y-1052030D01*
X122288Y-1051902D01*
X122319Y-1051773D01*
X122346Y-1051644D01*
X122369Y-1051513D01*
X122389Y-1051382D01*
X122404Y-1051250D01*
X122416Y-1051118D01*
X122424Y-1050986D01*
X122428Y-1050853D01*
X122428Y-1050721D01*
X122424Y-1050588D01*
X122416Y-1050456D01*
X122404Y-1050324D01*
X122389Y-1050192D01*
X122369Y-1050061D01*
X122346Y-1049930D01*
X122319Y-1049801D01*
X122288Y-1049672D01*
X122253Y-1049544D01*
X122215Y-1049417D01*
X122173Y-1049291D01*
X122127Y-1049167D01*
X122078Y-1049044D01*
X122025Y-1048922D01*
X121968Y-1048802D01*
X121908Y-1048684D01*
X121845Y-1048567D01*
X121778Y-1048453D01*
X121708Y-1048340D01*
X121634Y-1048230D01*
X121558Y-1048122D01*
X121478Y-1048016D01*
X121395Y-1047912D01*
X121309Y-1047811D01*
X121220Y-1047713D01*
X121129Y-1047617D01*
X121034Y-1047524D01*
X120937Y-1047434D01*
X120837Y-1047347D01*
X120735Y-1047262D01*
X120630Y-1047181D01*
X120523Y-1047103D01*
X120414Y-1047027D01*
X120303Y-1046956D01*
X120189Y-1046887D01*
X120074Y-1046822D01*
X119956Y-1046760D01*
X119837Y-1046702D01*
X119716Y-1046647D01*
X119594Y-1046596D01*
X119470Y-1046548D01*
X119345Y-1046504D01*
X119219Y-1046464D01*
X119091Y-1046428D01*
X118963Y-1046395D01*
X118834Y-1046366D01*
X118703Y-1046341D01*
X118573Y-1046320D01*
X118441Y-1046302D01*
X118309Y-1046289D01*
X118177Y-1046279D01*
X118045Y-1046273D01*
X117912Y-1046271D01*
X106172Y-1046271D01*
X118816Y-1030640D02*
X118934Y-1030642D01*
X119052Y-1030648D01*
X119170Y-1030657D01*
X119287Y-1030671D01*
X119404Y-1030688D01*
X119521Y-1030709D01*
X119636Y-1030734D01*
X119751Y-1030763D01*
X119865Y-1030796D01*
X119977Y-1030832D01*
X120088Y-1030872D01*
X120198Y-1030915D01*
X120307Y-1030962D01*
X120414Y-1031012D01*
X120519Y-1031067D01*
X120622Y-1031124D01*
X120723Y-1031185D01*
X120823Y-1031249D01*
X120920Y-1031316D01*
X121015Y-1031386D01*
X121107Y-1031460D01*
X121198Y-1031536D01*
X121285Y-1031616D01*
X121370Y-1031698D01*
X121452Y-1031783D01*
X121532Y-1031870D01*
X121608Y-1031961D01*
X121682Y-1032053D01*
X121752Y-1032148D01*
X121819Y-1032245D01*
X121883Y-1032345D01*
X121944Y-1032446D01*
X122001Y-1032549D01*
X122056Y-1032654D01*
X122106Y-1032761D01*
X122153Y-1032870D01*
X122196Y-1032980D01*
X122236Y-1033091D01*
X122272Y-1033203D01*
X122305Y-1033317D01*
X122334Y-1033432D01*
X122359Y-1033547D01*
X122380Y-1033664D01*
X122397Y-1033781D01*
X122411Y-1033898D01*
X122420Y-1034016D01*
X122426Y-1034134D01*
X122428Y-1034252D01*
X122426Y-1034435D01*
X122419Y-1034617D01*
X122408Y-1034799D01*
X122393Y-1034981D01*
X122373Y-1035163D01*
X122349Y-1035344D01*
X122321Y-1035524D01*
X122289Y-1035704D01*
X122252Y-1035883D01*
X122211Y-1036060D01*
X122165Y-1036237D01*
X122116Y-1036413D01*
X122062Y-1036588D01*
X122004Y-1036761D01*
X121942Y-1036932D01*
X121876Y-1037103D01*
X121805Y-1037271D01*
X121731Y-1037438D01*
X121653Y-1037603D01*
X121571Y-1037766D01*
X121485Y-1037927D01*
X121395Y-1038086D01*
X121301Y-1038243D01*
X121204Y-1038397D01*
X121103Y-1038549D01*
X120998Y-1038699D01*
X120890Y-1038846D01*
X120779Y-1038990D01*
X120664Y-1039132D01*
X120545Y-1039271D01*
X120423Y-1039407D01*
X120298Y-1039540D01*
X120170Y-1039670D01*
X109784Y-1039220D02*
X109666Y-1039218D01*
X109548Y-1039212D01*
X109430Y-1039203D01*
X109312Y-1039189D01*
X109195Y-1039172D01*
X109079Y-1039151D01*
X108964Y-1039126D01*
X108849Y-1039097D01*
X108735Y-1039064D01*
X108623Y-1039028D01*
X108511Y-1038988D01*
X108401Y-1038945D01*
X108293Y-1038898D01*
X108186Y-1038847D01*
X108081Y-1038793D01*
X107978Y-1038736D01*
X107876Y-1038675D01*
X107777Y-1038611D01*
X107680Y-1038544D01*
X107585Y-1038473D01*
X107492Y-1038400D01*
X107402Y-1038323D01*
X107314Y-1038244D01*
X107229Y-1038162D01*
X107147Y-1038077D01*
X107068Y-1037989D01*
X106991Y-1037899D01*
X106918Y-1037806D01*
X106847Y-1037712D01*
X106780Y-1037614D01*
X106716Y-1037515D01*
X106655Y-1037414D01*
X106598Y-1037310D01*
X106544Y-1037205D01*
X106493Y-1037098D01*
X106446Y-1036990D01*
X106403Y-1036880D01*
X106363Y-1036768D01*
X106327Y-1036656D01*
X106294Y-1036542D01*
X106265Y-1036427D01*
X106240Y-1036312D01*
X106219Y-1036196D01*
X106202Y-1036079D01*
X106188Y-1035961D01*
X106179Y-1035843D01*
X106173Y-1035725D01*
X106171Y-1035607D01*
X106172Y-1035607D02*
X106174Y-1035446D01*
X106180Y-1035284D01*
X106189Y-1035123D01*
X106203Y-1034962D01*
X106220Y-1034802D01*
X106241Y-1034642D01*
X106266Y-1034482D01*
X106295Y-1034323D01*
X106327Y-1034165D01*
X106363Y-1034008D01*
X106403Y-1033852D01*
X106447Y-1033696D01*
X106495Y-1033542D01*
X106546Y-1033389D01*
X106600Y-1033237D01*
X106659Y-1033086D01*
X106720Y-1032937D01*
X106786Y-1032790D01*
X106855Y-1032644D01*
X106927Y-1032499D01*
X107003Y-1032357D01*
X107082Y-1032216D01*
X107164Y-1032077D01*
X107250Y-1031941D01*
X107339Y-1031806D01*
X107431Y-1031673D01*
X107527Y-1031543D01*
X112945Y-1037414D02*
X112883Y-1037515D01*
X112818Y-1037615D01*
X112749Y-1037712D01*
X112677Y-1037807D01*
X112603Y-1037900D01*
X112525Y-1037990D01*
X112444Y-1038078D01*
X112361Y-1038163D01*
X112275Y-1038245D01*
X112186Y-1038324D01*
X112095Y-1038401D01*
X112001Y-1038474D01*
X111905Y-1038545D01*
X111807Y-1038612D01*
X111707Y-1038676D01*
X111604Y-1038737D01*
X111500Y-1038794D01*
X111394Y-1038848D01*
X111286Y-1038898D01*
X111177Y-1038945D01*
X111066Y-1038989D01*
X110954Y-1039029D01*
X110840Y-1039065D01*
X110726Y-1039097D01*
X110610Y-1039126D01*
X110494Y-1039151D01*
X110377Y-1039172D01*
X110259Y-1039189D01*
X110141Y-1039203D01*
X110022Y-1039212D01*
X109903Y-1039218D01*
X109784Y-1039220D01*
X115655Y-1032446D02*
X115717Y-1032345D01*
X115782Y-1032245D01*
X115851Y-1032148D01*
X115923Y-1032053D01*
X115997Y-1031960D01*
X116075Y-1031870D01*
X116156Y-1031782D01*
X116239Y-1031697D01*
X116325Y-1031615D01*
X116414Y-1031536D01*
X116505Y-1031459D01*
X116599Y-1031386D01*
X116695Y-1031315D01*
X116793Y-1031248D01*
X116893Y-1031184D01*
X116996Y-1031123D01*
X117100Y-1031066D01*
X117206Y-1031012D01*
X117314Y-1030962D01*
X117423Y-1030915D01*
X117534Y-1030871D01*
X117646Y-1030831D01*
X117760Y-1030795D01*
X117874Y-1030763D01*
X117990Y-1030734D01*
X118106Y-1030709D01*
X118223Y-1030688D01*
X118341Y-1030671D01*
X118459Y-1030657D01*
X118578Y-1030648D01*
X118697Y-1030642D01*
X118816Y-1030640D01*
X115655Y-1032446D02*
X112945Y-1037413D01*
X113397Y-1023829D02*
X113397Y-1019313D01*
X113396Y-1019313D02*
X113398Y-1019180D01*
X113404Y-1019048D01*
X113414Y-1018916D01*
X113427Y-1018784D01*
X113445Y-1018652D01*
X113466Y-1018522D01*
X113491Y-1018391D01*
X113520Y-1018262D01*
X113553Y-1018134D01*
X113589Y-1018006D01*
X113629Y-1017880D01*
X113673Y-1017755D01*
X113721Y-1017631D01*
X113772Y-1017509D01*
X113827Y-1017388D01*
X113885Y-1017269D01*
X113947Y-1017151D01*
X114012Y-1017036D01*
X114081Y-1016922D01*
X114152Y-1016811D01*
X114228Y-1016702D01*
X114306Y-1016595D01*
X114387Y-1016490D01*
X114472Y-1016388D01*
X114559Y-1016288D01*
X114649Y-1016191D01*
X114742Y-1016096D01*
X114838Y-1016005D01*
X114936Y-1015916D01*
X115037Y-1015830D01*
X115141Y-1015747D01*
X115247Y-1015667D01*
X115355Y-1015591D01*
X115465Y-1015517D01*
X115578Y-1015447D01*
X115692Y-1015380D01*
X115809Y-1015317D01*
X115927Y-1015257D01*
X116047Y-1015200D01*
X116169Y-1015147D01*
X116292Y-1015098D01*
X116416Y-1015052D01*
X116542Y-1015010D01*
X116669Y-1014972D01*
X116797Y-1014937D01*
X116926Y-1014906D01*
X117055Y-1014879D01*
X117186Y-1014856D01*
X117317Y-1014836D01*
X117449Y-1014821D01*
X117581Y-1014809D01*
X117713Y-1014801D01*
X117846Y-1014797D01*
X117978Y-1014797D01*
X118111Y-1014801D01*
X118243Y-1014809D01*
X118375Y-1014821D01*
X118507Y-1014836D01*
X118638Y-1014856D01*
X118769Y-1014879D01*
X118898Y-1014906D01*
X119027Y-1014937D01*
X119155Y-1014972D01*
X119282Y-1015010D01*
X119408Y-1015052D01*
X119532Y-1015098D01*
X119655Y-1015147D01*
X119777Y-1015200D01*
X119897Y-1015257D01*
X120015Y-1015317D01*
X120132Y-1015380D01*
X120246Y-1015447D01*
X120359Y-1015517D01*
X120469Y-1015591D01*
X120577Y-1015667D01*
X120683Y-1015747D01*
X120787Y-1015830D01*
X120888Y-1015916D01*
X120986Y-1016005D01*
X121082Y-1016096D01*
X121175Y-1016191D01*
X121265Y-1016288D01*
X121352Y-1016388D01*
X121437Y-1016490D01*
X121518Y-1016595D01*
X121596Y-1016702D01*
X121672Y-1016811D01*
X121743Y-1016922D01*
X121812Y-1017036D01*
X121877Y-1017151D01*
X121939Y-1017269D01*
X121997Y-1017388D01*
X122052Y-1017509D01*
X122103Y-1017631D01*
X122151Y-1017755D01*
X122195Y-1017880D01*
X122235Y-1018006D01*
X122271Y-1018134D01*
X122304Y-1018262D01*
X122333Y-1018391D01*
X122358Y-1018522D01*
X122379Y-1018652D01*
X122397Y-1018784D01*
X122410Y-1018916D01*
X122420Y-1019048D01*
X122426Y-1019180D01*
X122428Y-1019313D01*
X122428Y-1023829D01*
X106172Y-1023829D01*
X106172Y-1019313D01*
X106174Y-1019194D01*
X106180Y-1019074D01*
X106190Y-1018955D01*
X106204Y-1018837D01*
X106221Y-1018718D01*
X106243Y-1018601D01*
X106268Y-1018484D01*
X106298Y-1018369D01*
X106331Y-1018254D01*
X106368Y-1018140D01*
X106408Y-1018028D01*
X106453Y-1017917D01*
X106501Y-1017808D01*
X106552Y-1017700D01*
X106607Y-1017594D01*
X106666Y-1017490D01*
X106728Y-1017388D01*
X106793Y-1017288D01*
X106862Y-1017190D01*
X106934Y-1017094D01*
X107009Y-1017001D01*
X107086Y-1016911D01*
X107167Y-1016823D01*
X107251Y-1016738D01*
X107338Y-1016656D01*
X107427Y-1016576D01*
X107519Y-1016500D01*
X107613Y-1016426D01*
X107710Y-1016356D01*
X107808Y-1016289D01*
X107909Y-1016225D01*
X108013Y-1016165D01*
X108118Y-1016108D01*
X108225Y-1016055D01*
X108333Y-1016005D01*
X108443Y-1015959D01*
X108555Y-1015917D01*
X108668Y-1015878D01*
X108782Y-1015843D01*
X108897Y-1015812D01*
X109014Y-1015784D01*
X109131Y-1015761D01*
X109248Y-1015741D01*
X109367Y-1015725D01*
X109486Y-1015713D01*
X109605Y-1015705D01*
X109724Y-1015701D01*
X109844Y-1015701D01*
X109963Y-1015705D01*
X110082Y-1015713D01*
X110201Y-1015725D01*
X110320Y-1015741D01*
X110437Y-1015761D01*
X110554Y-1015784D01*
X110671Y-1015812D01*
X110786Y-1015843D01*
X110900Y-1015878D01*
X111013Y-1015917D01*
X111125Y-1015959D01*
X111235Y-1016005D01*
X111343Y-1016055D01*
X111450Y-1016108D01*
X111555Y-1016165D01*
X111659Y-1016225D01*
X111760Y-1016289D01*
X111858Y-1016356D01*
X111955Y-1016426D01*
X112049Y-1016500D01*
X112141Y-1016576D01*
X112230Y-1016656D01*
X112317Y-1016738D01*
X112401Y-1016823D01*
X112482Y-1016911D01*
X112559Y-1017001D01*
X112634Y-1017094D01*
X112706Y-1017190D01*
X112775Y-1017288D01*
X112840Y-1017388D01*
X112902Y-1017490D01*
X112961Y-1017594D01*
X113016Y-1017700D01*
X113067Y-1017808D01*
X113115Y-1017917D01*
X113160Y-1018028D01*
X113200Y-1018140D01*
X113237Y-1018254D01*
X113270Y-1018369D01*
X113300Y-1018484D01*
X113325Y-1018601D01*
X113347Y-1018718D01*
X113364Y-1018837D01*
X113378Y-1018955D01*
X113388Y-1019074D01*
X113394Y-1019194D01*
X113396Y-1019313D01*
D10*
X82550Y-1073150D02*
X82550Y-1085850D01*
X146050Y-1085850D01*
X146050Y-1073150D01*
X139700Y-844550D02*
X139700Y-819150D01*
X101600Y-819150D01*
X101600Y-844550D01*
X139700Y-844550D01*
X113030Y-831850D02*
X113032Y-831663D01*
X113039Y-831476D01*
X113051Y-831289D01*
X113067Y-831103D01*
X113087Y-830917D01*
X113112Y-830732D01*
X113142Y-830547D01*
X113176Y-830363D01*
X113215Y-830180D01*
X113258Y-829998D01*
X113306Y-829818D01*
X113358Y-829638D01*
X113415Y-829460D01*
X113475Y-829283D01*
X113541Y-829108D01*
X113610Y-828934D01*
X113684Y-828762D01*
X113762Y-828592D01*
X113844Y-828424D01*
X113930Y-828258D01*
X114020Y-828094D01*
X114114Y-827933D01*
X114212Y-827773D01*
X114314Y-827617D01*
X114420Y-827462D01*
X114530Y-827311D01*
X114643Y-827162D01*
X114760Y-827016D01*
X114880Y-826873D01*
X115004Y-826733D01*
X115131Y-826596D01*
X115262Y-826462D01*
X115396Y-826331D01*
X115533Y-826204D01*
X115673Y-826080D01*
X115816Y-825960D01*
X115962Y-825843D01*
X116111Y-825730D01*
X116262Y-825620D01*
X116417Y-825514D01*
X116573Y-825412D01*
X116733Y-825314D01*
X116894Y-825220D01*
X117058Y-825130D01*
X117224Y-825044D01*
X117392Y-824962D01*
X117562Y-824884D01*
X117734Y-824810D01*
X117908Y-824741D01*
X118083Y-824675D01*
X118260Y-824615D01*
X118438Y-824558D01*
X118618Y-824506D01*
X118798Y-824458D01*
X118980Y-824415D01*
X119163Y-824376D01*
X119347Y-824342D01*
X119532Y-824312D01*
X119717Y-824287D01*
X119903Y-824267D01*
X120089Y-824251D01*
X120276Y-824239D01*
X120463Y-824232D01*
X120650Y-824230D01*
X120837Y-824232D01*
X121024Y-824239D01*
X121211Y-824251D01*
X121397Y-824267D01*
X121583Y-824287D01*
X121768Y-824312D01*
X121953Y-824342D01*
X122137Y-824376D01*
X122320Y-824415D01*
X122502Y-824458D01*
X122682Y-824506D01*
X122862Y-824558D01*
X123040Y-824615D01*
X123217Y-824675D01*
X123392Y-824741D01*
X123566Y-824810D01*
X123738Y-824884D01*
X123908Y-824962D01*
X124076Y-825044D01*
X124242Y-825130D01*
X124406Y-825220D01*
X124567Y-825314D01*
X124727Y-825412D01*
X124883Y-825514D01*
X125038Y-825620D01*
X125189Y-825730D01*
X125338Y-825843D01*
X125484Y-825960D01*
X125627Y-826080D01*
X125767Y-826204D01*
X125904Y-826331D01*
X126038Y-826462D01*
X126169Y-826596D01*
X126296Y-826733D01*
X126420Y-826873D01*
X126540Y-827016D01*
X126657Y-827162D01*
X126770Y-827311D01*
X126880Y-827462D01*
X126986Y-827617D01*
X127088Y-827773D01*
X127186Y-827933D01*
X127280Y-828094D01*
X127370Y-828258D01*
X127456Y-828424D01*
X127538Y-828592D01*
X127616Y-828762D01*
X127690Y-828934D01*
X127759Y-829108D01*
X127825Y-829283D01*
X127885Y-829460D01*
X127942Y-829638D01*
X127994Y-829818D01*
X128042Y-829998D01*
X128085Y-830180D01*
X128124Y-830363D01*
X128158Y-830547D01*
X128188Y-830732D01*
X128213Y-830917D01*
X128233Y-831103D01*
X128249Y-831289D01*
X128261Y-831476D01*
X128268Y-831663D01*
X128270Y-831850D01*
X128268Y-832037D01*
X128261Y-832224D01*
X128249Y-832411D01*
X128233Y-832597D01*
X128213Y-832783D01*
X128188Y-832968D01*
X128158Y-833153D01*
X128124Y-833337D01*
X128085Y-833520D01*
X128042Y-833702D01*
X127994Y-833882D01*
X127942Y-834062D01*
X127885Y-834240D01*
X127825Y-834417D01*
X127759Y-834592D01*
X127690Y-834766D01*
X127616Y-834938D01*
X127538Y-835108D01*
X127456Y-835276D01*
X127370Y-835442D01*
X127280Y-835606D01*
X127186Y-835767D01*
X127088Y-835927D01*
X126986Y-836083D01*
X126880Y-836238D01*
X126770Y-836389D01*
X126657Y-836538D01*
X126540Y-836684D01*
X126420Y-836827D01*
X126296Y-836967D01*
X126169Y-837104D01*
X126038Y-837238D01*
X125904Y-837369D01*
X125767Y-837496D01*
X125627Y-837620D01*
X125484Y-837740D01*
X125338Y-837857D01*
X125189Y-837970D01*
X125038Y-838080D01*
X124883Y-838186D01*
X124727Y-838288D01*
X124567Y-838386D01*
X124406Y-838480D01*
X124242Y-838570D01*
X124076Y-838656D01*
X123908Y-838738D01*
X123738Y-838816D01*
X123566Y-838890D01*
X123392Y-838959D01*
X123217Y-839025D01*
X123040Y-839085D01*
X122862Y-839142D01*
X122682Y-839194D01*
X122502Y-839242D01*
X122320Y-839285D01*
X122137Y-839324D01*
X121953Y-839358D01*
X121768Y-839388D01*
X121583Y-839413D01*
X121397Y-839433D01*
X121211Y-839449D01*
X121024Y-839461D01*
X120837Y-839468D01*
X120650Y-839470D01*
X120463Y-839468D01*
X120276Y-839461D01*
X120089Y-839449D01*
X119903Y-839433D01*
X119717Y-839413D01*
X119532Y-839388D01*
X119347Y-839358D01*
X119163Y-839324D01*
X118980Y-839285D01*
X118798Y-839242D01*
X118618Y-839194D01*
X118438Y-839142D01*
X118260Y-839085D01*
X118083Y-839025D01*
X117908Y-838959D01*
X117734Y-838890D01*
X117562Y-838816D01*
X117392Y-838738D01*
X117224Y-838656D01*
X117058Y-838570D01*
X116894Y-838480D01*
X116733Y-838386D01*
X116573Y-838288D01*
X116417Y-838186D01*
X116262Y-838080D01*
X116111Y-837970D01*
X115962Y-837857D01*
X115816Y-837740D01*
X115673Y-837620D01*
X115533Y-837496D01*
X115396Y-837369D01*
X115262Y-837238D01*
X115131Y-837104D01*
X115004Y-836967D01*
X114880Y-836827D01*
X114760Y-836684D01*
X114643Y-836538D01*
X114530Y-836389D01*
X114420Y-836238D01*
X114314Y-836083D01*
X114212Y-835927D01*
X114114Y-835767D01*
X114020Y-835606D01*
X113930Y-835442D01*
X113844Y-835276D01*
X113762Y-835108D01*
X113684Y-834938D01*
X113610Y-834766D01*
X113541Y-834592D01*
X113475Y-834417D01*
X113415Y-834240D01*
X113358Y-834062D01*
X113306Y-833882D01*
X113258Y-833702D01*
X113215Y-833520D01*
X113176Y-833337D01*
X113142Y-833153D01*
X113112Y-832968D01*
X113087Y-832783D01*
X113067Y-832597D01*
X113051Y-832411D01*
X113039Y-832224D01*
X113032Y-832037D01*
X113030Y-831850D01*
D13*
X101609Y-811149D02*
X101609Y-801751D01*
X104219Y-801751D01*
X104320Y-801753D01*
X104421Y-801759D01*
X104522Y-801769D01*
X104622Y-801782D01*
X104722Y-801800D01*
X104821Y-801821D01*
X104919Y-801847D01*
X105016Y-801876D01*
X105112Y-801908D01*
X105206Y-801945D01*
X105299Y-801985D01*
X105391Y-802029D01*
X105480Y-802076D01*
X105568Y-802127D01*
X105654Y-802181D01*
X105737Y-802238D01*
X105819Y-802298D01*
X105897Y-802362D01*
X105974Y-802428D01*
X106047Y-802498D01*
X106118Y-802570D01*
X106186Y-802645D01*
X106251Y-802723D01*
X106313Y-802803D01*
X106372Y-802885D01*
X106428Y-802970D01*
X106480Y-803057D01*
X106529Y-803145D01*
X106575Y-803236D01*
X106616Y-803328D01*
X106655Y-803422D01*
X106689Y-803517D01*
X106720Y-803613D01*
X106747Y-803711D01*
X106771Y-803809D01*
X106790Y-803909D01*
X106806Y-804009D01*
X106818Y-804109D01*
X106826Y-804210D01*
X106830Y-804311D01*
X106830Y-804413D01*
X106826Y-804514D01*
X106818Y-804615D01*
X106806Y-804715D01*
X106790Y-804815D01*
X106771Y-804915D01*
X106747Y-805013D01*
X106720Y-805111D01*
X106689Y-805207D01*
X106655Y-805302D01*
X106616Y-805396D01*
X106575Y-805488D01*
X106529Y-805579D01*
X106480Y-805668D01*
X106428Y-805754D01*
X106372Y-805839D01*
X106313Y-805921D01*
X106251Y-806001D01*
X106186Y-806079D01*
X106118Y-806154D01*
X106047Y-806226D01*
X105974Y-806296D01*
X105897Y-806362D01*
X105819Y-806426D01*
X105737Y-806486D01*
X105654Y-806543D01*
X105568Y-806597D01*
X105480Y-806648D01*
X105391Y-806695D01*
X105299Y-806739D01*
X105206Y-806779D01*
X105112Y-806816D01*
X105016Y-806848D01*
X104919Y-806877D01*
X104821Y-806903D01*
X104722Y-806924D01*
X104622Y-806942D01*
X104522Y-806955D01*
X104421Y-806965D01*
X104320Y-806971D01*
X104219Y-806973D01*
X104219Y-806972D02*
X101609Y-806972D01*
X104742Y-806972D02*
X106830Y-811149D01*
X111018Y-811149D02*
X115195Y-811149D01*
X111018Y-811149D02*
X111018Y-801751D01*
X115195Y-801751D01*
X114151Y-805928D02*
X111018Y-805928D01*
X121448Y-811149D02*
X121537Y-811147D01*
X121625Y-811141D01*
X121713Y-811132D01*
X121801Y-811119D01*
X121888Y-811102D01*
X121974Y-811082D01*
X122059Y-811057D01*
X122144Y-811030D01*
X122227Y-810998D01*
X122308Y-810964D01*
X122388Y-810925D01*
X122466Y-810884D01*
X122543Y-810839D01*
X122617Y-810791D01*
X122690Y-810740D01*
X122760Y-810686D01*
X122827Y-810628D01*
X122893Y-810568D01*
X122955Y-810506D01*
X123015Y-810440D01*
X123073Y-810373D01*
X123127Y-810303D01*
X123178Y-810230D01*
X123226Y-810156D01*
X123271Y-810079D01*
X123312Y-810001D01*
X123351Y-809921D01*
X123385Y-809840D01*
X123417Y-809757D01*
X123444Y-809672D01*
X123469Y-809587D01*
X123489Y-809501D01*
X123506Y-809414D01*
X123519Y-809326D01*
X123528Y-809238D01*
X123534Y-809150D01*
X123536Y-809061D01*
X121448Y-811149D02*
X121319Y-811147D01*
X121190Y-811141D01*
X121061Y-811132D01*
X120933Y-811119D01*
X120805Y-811102D01*
X120678Y-811081D01*
X120551Y-811057D01*
X120425Y-811029D01*
X120300Y-810997D01*
X120176Y-810962D01*
X120053Y-810923D01*
X119931Y-810880D01*
X119811Y-810834D01*
X119692Y-810784D01*
X119574Y-810731D01*
X119458Y-810675D01*
X119344Y-810615D01*
X119231Y-810552D01*
X119121Y-810485D01*
X119012Y-810416D01*
X118906Y-810343D01*
X118801Y-810267D01*
X118699Y-810188D01*
X118600Y-810106D01*
X118502Y-810022D01*
X118407Y-809934D01*
X118315Y-809844D01*
X118577Y-803839D02*
X118579Y-803750D01*
X118585Y-803662D01*
X118594Y-803574D01*
X118607Y-803486D01*
X118624Y-803399D01*
X118644Y-803313D01*
X118669Y-803228D01*
X118696Y-803143D01*
X118728Y-803060D01*
X118762Y-802979D01*
X118801Y-802899D01*
X118842Y-802821D01*
X118887Y-802744D01*
X118935Y-802670D01*
X118986Y-802597D01*
X119040Y-802527D01*
X119098Y-802460D01*
X119158Y-802394D01*
X119220Y-802332D01*
X119286Y-802272D01*
X119353Y-802214D01*
X119423Y-802160D01*
X119496Y-802109D01*
X119570Y-802061D01*
X119647Y-802016D01*
X119725Y-801975D01*
X119805Y-801936D01*
X119886Y-801902D01*
X119969Y-801870D01*
X120054Y-801843D01*
X120139Y-801818D01*
X120225Y-801798D01*
X120312Y-801781D01*
X120400Y-801768D01*
X120488Y-801759D01*
X120576Y-801753D01*
X120665Y-801751D01*
X120785Y-801753D01*
X120905Y-801758D01*
X121024Y-801768D01*
X121144Y-801780D01*
X121263Y-801797D01*
X121381Y-801817D01*
X121499Y-801841D01*
X121615Y-801868D01*
X121731Y-801899D01*
X121846Y-801933D01*
X121960Y-801971D01*
X122073Y-802013D01*
X122184Y-802058D01*
X122294Y-802106D01*
X122402Y-802157D01*
X122509Y-802212D01*
X122614Y-802270D01*
X122717Y-802332D01*
X122818Y-802396D01*
X122918Y-802464D01*
X123015Y-802534D01*
X119621Y-805666D02*
X119543Y-805618D01*
X119467Y-805566D01*
X119394Y-805512D01*
X119323Y-805454D01*
X119254Y-805393D01*
X119188Y-805329D01*
X119125Y-805262D01*
X119065Y-805193D01*
X119008Y-805121D01*
X118954Y-805047D01*
X118904Y-804970D01*
X118856Y-804891D01*
X118813Y-804811D01*
X118772Y-804728D01*
X118736Y-804644D01*
X118703Y-804559D01*
X118674Y-804472D01*
X118648Y-804383D01*
X118626Y-804294D01*
X118609Y-804204D01*
X118595Y-804114D01*
X118585Y-804022D01*
X118579Y-803931D01*
X118577Y-803839D01*
X122493Y-807234D02*
X122571Y-807282D01*
X122647Y-807334D01*
X122720Y-807388D01*
X122791Y-807446D01*
X122860Y-807507D01*
X122926Y-807571D01*
X122989Y-807638D01*
X123049Y-807707D01*
X123106Y-807779D01*
X123160Y-807853D01*
X123210Y-807930D01*
X123258Y-808009D01*
X123301Y-808089D01*
X123342Y-808172D01*
X123378Y-808256D01*
X123411Y-808341D01*
X123440Y-808428D01*
X123466Y-808517D01*
X123488Y-808606D01*
X123505Y-808696D01*
X123519Y-808786D01*
X123529Y-808878D01*
X123535Y-808969D01*
X123537Y-809061D01*
X122493Y-807233D02*
X119621Y-805667D01*
X127477Y-811149D02*
X131654Y-811149D01*
X127477Y-811149D02*
X127477Y-801751D01*
X131654Y-801751D01*
X130610Y-805928D02*
X127477Y-805928D01*
X137081Y-801751D02*
X137081Y-811149D01*
X134470Y-801751D02*
X139691Y-801751D01*
D12*
X277114Y-767588D02*
X387096Y-702818D01*
X277114Y-858012D02*
X391160Y-924814D01*
X514350Y-922782D02*
X623570Y-858520D01*
X623316Y-766826D02*
X510286Y-700532D01*
X252730Y-812800D02*
X252746Y-814116D01*
X252794Y-815432D01*
X252874Y-816745D01*
X252986Y-818057D01*
X253130Y-819365D01*
X253305Y-820669D01*
X253513Y-821969D01*
X253751Y-823263D01*
X254022Y-824551D01*
X254323Y-825833D01*
X254656Y-827106D01*
X255019Y-828371D01*
X255413Y-829627D01*
X255838Y-830872D01*
X256292Y-832108D01*
X256777Y-833331D01*
X257291Y-834543D01*
X257835Y-835741D01*
X258407Y-836926D01*
X259009Y-838097D01*
X259638Y-839253D01*
X260296Y-840393D01*
X260981Y-841517D01*
X261693Y-842624D01*
X262432Y-843713D01*
X263197Y-844784D01*
X263988Y-845836D01*
X264804Y-846868D01*
X265645Y-847881D01*
X266511Y-848872D01*
X267400Y-849842D01*
X268313Y-850791D01*
X269248Y-851716D01*
X270206Y-852619D01*
X271185Y-853498D01*
X272186Y-854353D01*
X273207Y-855184D01*
X274248Y-855989D01*
X275308Y-856769D01*
X276387Y-857523D01*
X277484Y-858250D01*
X252730Y-812800D02*
X252746Y-811484D01*
X252794Y-810168D01*
X252874Y-808855D01*
X252986Y-807543D01*
X253130Y-806235D01*
X253305Y-804931D01*
X253513Y-803631D01*
X253751Y-802337D01*
X254022Y-801049D01*
X254323Y-799767D01*
X254656Y-798494D01*
X255019Y-797229D01*
X255413Y-795973D01*
X255838Y-794728D01*
X256292Y-793492D01*
X256777Y-792269D01*
X257291Y-791057D01*
X257835Y-789859D01*
X258407Y-788674D01*
X259009Y-787503D01*
X259638Y-786347D01*
X260296Y-785207D01*
X260981Y-784083D01*
X261693Y-782976D01*
X262432Y-781887D01*
X263197Y-780816D01*
X263988Y-779764D01*
X264804Y-778732D01*
X265645Y-777719D01*
X266511Y-776728D01*
X267400Y-775758D01*
X268313Y-774809D01*
X269248Y-773884D01*
X270206Y-772981D01*
X271185Y-772102D01*
X272186Y-771247D01*
X273207Y-770416D01*
X274248Y-769611D01*
X275308Y-768831D01*
X276387Y-768077D01*
X277484Y-767350D01*
X621777Y-859735D02*
X622915Y-859064D01*
X624037Y-858366D01*
X625141Y-857640D01*
X626227Y-856887D01*
X627294Y-856108D01*
X628342Y-855303D01*
X629370Y-854473D01*
X630377Y-853618D01*
X631364Y-852739D01*
X632328Y-851835D01*
X633270Y-850909D01*
X634189Y-849960D01*
X635085Y-848988D01*
X635957Y-847995D01*
X636804Y-846982D01*
X637627Y-845947D01*
X638423Y-844893D01*
X639194Y-843820D01*
X639938Y-842728D01*
X640656Y-841619D01*
X641346Y-840492D01*
X642008Y-839348D01*
X642643Y-838189D01*
X643248Y-837015D01*
X643825Y-835826D01*
X644373Y-834624D01*
X644891Y-833408D01*
X645380Y-832181D01*
X645838Y-830941D01*
X646266Y-829691D01*
X646663Y-828431D01*
X647029Y-827161D01*
X647364Y-825883D01*
X647668Y-824597D01*
X647940Y-823304D01*
X648181Y-822005D01*
X648390Y-820700D01*
X648567Y-819391D01*
X648712Y-818077D01*
X648825Y-816761D01*
X648905Y-815442D01*
X648954Y-814122D01*
X648970Y-812800D01*
X648954Y-811496D01*
X648907Y-810192D01*
X648829Y-808890D01*
X648719Y-807590D01*
X648577Y-806294D01*
X648405Y-805001D01*
X648201Y-803712D01*
X647967Y-802429D01*
X647701Y-801152D01*
X647405Y-799881D01*
X647078Y-798619D01*
X646721Y-797364D01*
X646334Y-796118D01*
X645917Y-794882D01*
X645470Y-793657D01*
X644994Y-792442D01*
X644488Y-791240D01*
X643954Y-790050D01*
X643391Y-788873D01*
X642800Y-787710D01*
X642182Y-786562D01*
X641535Y-785429D01*
X640862Y-784311D01*
X640162Y-783211D01*
X639435Y-782127D01*
X638683Y-781062D01*
X637905Y-780015D01*
X637102Y-778987D01*
X636274Y-777978D01*
X635423Y-776990D01*
X634548Y-776023D01*
X633649Y-775077D01*
X632729Y-774153D01*
X631786Y-773251D01*
X630822Y-772373D01*
X629837Y-771518D01*
X628831Y-770687D01*
X627806Y-769880D01*
X626762Y-769098D01*
X625699Y-768342D01*
X624618Y-767612D01*
X623520Y-766908D01*
X622405Y-766230D01*
X450850Y-685800D02*
X447816Y-685836D01*
X444784Y-685945D01*
X441756Y-686126D01*
X438732Y-686379D01*
X435716Y-686705D01*
X432708Y-687102D01*
X429710Y-687572D01*
X426725Y-688112D01*
X423753Y-688724D01*
X420797Y-689407D01*
X417858Y-690160D01*
X414938Y-690983D01*
X412038Y-691876D01*
X409161Y-692837D01*
X406307Y-693868D01*
X403479Y-694966D01*
X400677Y-696131D01*
X397905Y-697363D01*
X395162Y-698660D01*
X392452Y-700023D01*
X389774Y-701450D01*
X387132Y-702941D01*
X450850Y-685800D02*
X453961Y-685838D01*
X457070Y-685952D01*
X460176Y-686143D01*
X463275Y-686409D01*
X466368Y-686751D01*
X469451Y-687169D01*
X472522Y-687663D01*
X475581Y-688231D01*
X478625Y-688874D01*
X481653Y-689592D01*
X484661Y-690383D01*
X487650Y-691248D01*
X490616Y-692186D01*
X493559Y-693196D01*
X496476Y-694278D01*
X499365Y-695432D01*
X502226Y-696655D01*
X505055Y-697948D01*
X507852Y-699311D01*
X510615Y-700741D01*
X514568Y-922659D02*
X511926Y-924150D01*
X509248Y-925577D01*
X506538Y-926940D01*
X503795Y-928237D01*
X501023Y-929469D01*
X498221Y-930634D01*
X495393Y-931732D01*
X492539Y-932763D01*
X489662Y-933724D01*
X486762Y-934617D01*
X483842Y-935440D01*
X480903Y-936193D01*
X477947Y-936876D01*
X474975Y-937488D01*
X471990Y-938028D01*
X468992Y-938498D01*
X465984Y-938895D01*
X462968Y-939221D01*
X459944Y-939474D01*
X456916Y-939655D01*
X453884Y-939764D01*
X450850Y-939800D01*
X447739Y-939762D01*
X444630Y-939648D01*
X441524Y-939457D01*
X438425Y-939191D01*
X435332Y-938849D01*
X432249Y-938431D01*
X429178Y-937937D01*
X426119Y-937369D01*
X423075Y-936726D01*
X420047Y-936008D01*
X417039Y-935217D01*
X414050Y-934352D01*
X411084Y-933414D01*
X408141Y-932404D01*
X405224Y-931322D01*
X402335Y-930168D01*
X399474Y-928945D01*
X396645Y-927652D01*
X393848Y-926289D01*
X391085Y-924859D01*
X357124Y-812800D02*
X357152Y-810500D01*
X357237Y-808201D01*
X357378Y-805905D01*
X357575Y-803613D01*
X357829Y-801327D01*
X358138Y-799048D01*
X358504Y-796776D01*
X358925Y-794515D01*
X359401Y-792265D01*
X359933Y-790026D01*
X360519Y-787802D01*
X361160Y-785593D01*
X361855Y-783400D01*
X362603Y-781225D01*
X363404Y-779068D01*
X364258Y-776933D01*
X365165Y-774818D01*
X366123Y-772727D01*
X367132Y-770660D01*
X368191Y-768618D01*
X369300Y-766603D01*
X370459Y-764615D01*
X371665Y-762657D01*
X372920Y-760729D01*
X374221Y-758832D01*
X375569Y-756967D01*
X376961Y-755137D01*
X378399Y-753341D01*
X379880Y-751581D01*
X381404Y-749857D01*
X382969Y-748172D01*
X384576Y-746526D01*
X386222Y-744919D01*
X387907Y-743354D01*
X389631Y-741830D01*
X391391Y-740349D01*
X393187Y-738911D01*
X395017Y-737519D01*
X396882Y-736171D01*
X398779Y-734870D01*
X400707Y-733615D01*
X402665Y-732409D01*
X404653Y-731250D01*
X406668Y-730141D01*
X408710Y-729082D01*
X410777Y-728073D01*
X412868Y-727115D01*
X414983Y-726208D01*
X417118Y-725354D01*
X419275Y-724553D01*
X421450Y-723805D01*
X423643Y-723110D01*
X425852Y-722469D01*
X428076Y-721883D01*
X430315Y-721351D01*
X432565Y-720875D01*
X434826Y-720454D01*
X437098Y-720088D01*
X439377Y-719779D01*
X441663Y-719525D01*
X443955Y-719328D01*
X446251Y-719187D01*
X448550Y-719102D01*
X450850Y-719074D01*
X453150Y-719102D01*
X455449Y-719187D01*
X457745Y-719328D01*
X460037Y-719525D01*
X462323Y-719779D01*
X464602Y-720088D01*
X466874Y-720454D01*
X469135Y-720875D01*
X471385Y-721351D01*
X473624Y-721883D01*
X475848Y-722469D01*
X478057Y-723110D01*
X480250Y-723805D01*
X482425Y-724553D01*
X484582Y-725354D01*
X486717Y-726208D01*
X488832Y-727115D01*
X490923Y-728073D01*
X492990Y-729082D01*
X495032Y-730141D01*
X497047Y-731250D01*
X499035Y-732409D01*
X500993Y-733615D01*
X502921Y-734870D01*
X504818Y-736171D01*
X506683Y-737519D01*
X508513Y-738911D01*
X510309Y-740349D01*
X512069Y-741830D01*
X513793Y-743354D01*
X515478Y-744919D01*
X517124Y-746526D01*
X518731Y-748172D01*
X520296Y-749857D01*
X521820Y-751581D01*
X523301Y-753341D01*
X524739Y-755137D01*
X526131Y-756967D01*
X527479Y-758832D01*
X528780Y-760729D01*
X530035Y-762657D01*
X531241Y-764615D01*
X532400Y-766603D01*
X533509Y-768618D01*
X534568Y-770660D01*
X535577Y-772727D01*
X536535Y-774818D01*
X537442Y-776933D01*
X538296Y-779068D01*
X539097Y-781225D01*
X539845Y-783400D01*
X540540Y-785593D01*
X541181Y-787802D01*
X541767Y-790026D01*
X542299Y-792265D01*
X542775Y-794515D01*
X543196Y-796776D01*
X543562Y-799048D01*
X543871Y-801327D01*
X544125Y-803613D01*
X544322Y-805905D01*
X544463Y-808201D01*
X544548Y-810500D01*
X544576Y-812800D01*
X544548Y-815100D01*
X544463Y-817399D01*
X544322Y-819695D01*
X544125Y-821987D01*
X543871Y-824273D01*
X543562Y-826552D01*
X543196Y-828824D01*
X542775Y-831085D01*
X542299Y-833335D01*
X541767Y-835574D01*
X541181Y-837798D01*
X540540Y-840007D01*
X539845Y-842200D01*
X539097Y-844375D01*
X538296Y-846532D01*
X537442Y-848667D01*
X536535Y-850782D01*
X535577Y-852873D01*
X534568Y-854940D01*
X533509Y-856982D01*
X532400Y-858997D01*
X531241Y-860985D01*
X530035Y-862943D01*
X528780Y-864871D01*
X527479Y-866768D01*
X526131Y-868633D01*
X524739Y-870463D01*
X523301Y-872259D01*
X521820Y-874019D01*
X520296Y-875743D01*
X518731Y-877428D01*
X517124Y-879074D01*
X515478Y-880681D01*
X513793Y-882246D01*
X512069Y-883770D01*
X510309Y-885251D01*
X508513Y-886689D01*
X506683Y-888081D01*
X504818Y-889429D01*
X502921Y-890730D01*
X500993Y-891985D01*
X499035Y-893191D01*
X497047Y-894350D01*
X495032Y-895459D01*
X492990Y-896518D01*
X490923Y-897527D01*
X488832Y-898485D01*
X486717Y-899392D01*
X484582Y-900246D01*
X482425Y-901047D01*
X480250Y-901795D01*
X478057Y-902490D01*
X475848Y-903131D01*
X473624Y-903717D01*
X471385Y-904249D01*
X469135Y-904725D01*
X466874Y-905146D01*
X464602Y-905512D01*
X462323Y-905821D01*
X460037Y-906075D01*
X457745Y-906272D01*
X455449Y-906413D01*
X453150Y-906498D01*
X450850Y-906526D01*
X448550Y-906498D01*
X446251Y-906413D01*
X443955Y-906272D01*
X441663Y-906075D01*
X439377Y-905821D01*
X437098Y-905512D01*
X434826Y-905146D01*
X432565Y-904725D01*
X430315Y-904249D01*
X428076Y-903717D01*
X425852Y-903131D01*
X423643Y-902490D01*
X421450Y-901795D01*
X419275Y-901047D01*
X417118Y-900246D01*
X414983Y-899392D01*
X412868Y-898485D01*
X410777Y-897527D01*
X408710Y-896518D01*
X406668Y-895459D01*
X404653Y-894350D01*
X402665Y-893191D01*
X400707Y-891985D01*
X398779Y-890730D01*
X396882Y-889429D01*
X395017Y-888081D01*
X393187Y-886689D01*
X391391Y-885251D01*
X389631Y-883770D01*
X387907Y-882246D01*
X386222Y-880681D01*
X384576Y-879074D01*
X382969Y-877428D01*
X381404Y-875743D01*
X379880Y-874019D01*
X378399Y-872259D01*
X376961Y-870463D01*
X375569Y-868633D01*
X374221Y-866768D01*
X372920Y-864871D01*
X371665Y-862943D01*
X370459Y-860985D01*
X369300Y-858997D01*
X368191Y-856982D01*
X367132Y-854940D01*
X366123Y-852873D01*
X365165Y-850782D01*
X364258Y-848667D01*
X363404Y-846532D01*
X362603Y-844375D01*
X361855Y-842200D01*
X361160Y-840007D01*
X360519Y-837798D01*
X359933Y-835574D01*
X359401Y-833335D01*
X358925Y-831085D01*
X358504Y-828824D01*
X358138Y-826552D01*
X357829Y-824273D01*
X357575Y-821987D01*
X357378Y-819695D01*
X357237Y-817399D01*
X357152Y-815100D01*
X357124Y-812800D01*
D14*
X334010Y-812800D02*
X334045Y-809933D01*
X334151Y-807067D01*
X334327Y-804205D01*
X334573Y-801348D01*
X334889Y-798498D01*
X335275Y-795656D01*
X335730Y-792825D01*
X336255Y-790006D01*
X336849Y-787200D01*
X337512Y-784410D01*
X338242Y-781637D01*
X339041Y-778883D01*
X339907Y-776149D01*
X340840Y-773438D01*
X341839Y-770750D01*
X342904Y-768087D01*
X344034Y-765452D01*
X345228Y-762844D01*
X346486Y-760267D01*
X347806Y-757722D01*
X349189Y-755210D01*
X350633Y-752732D01*
X352137Y-750291D01*
X353701Y-747887D01*
X355323Y-745523D01*
X357003Y-743198D01*
X358740Y-740916D01*
X360531Y-738677D01*
X362378Y-736483D01*
X364277Y-734335D01*
X366229Y-732234D01*
X368232Y-730182D01*
X370284Y-728179D01*
X372385Y-726227D01*
X374533Y-724328D01*
X376727Y-722481D01*
X378966Y-720690D01*
X381248Y-718953D01*
X383573Y-717273D01*
X385937Y-715651D01*
X388341Y-714087D01*
X390782Y-712583D01*
X393260Y-711139D01*
X395772Y-709756D01*
X398317Y-708436D01*
X400894Y-707178D01*
X403502Y-705984D01*
X406137Y-704854D01*
X408800Y-703789D01*
X411488Y-702790D01*
X414199Y-701857D01*
X416933Y-700991D01*
X419687Y-700192D01*
X422460Y-699462D01*
X425250Y-698799D01*
X428056Y-698205D01*
X430875Y-697680D01*
X433706Y-697225D01*
X436548Y-696839D01*
X439398Y-696523D01*
X442255Y-696277D01*
X445117Y-696101D01*
X447983Y-695995D01*
X450850Y-695960D01*
X453717Y-695995D01*
X456583Y-696101D01*
X459445Y-696277D01*
X462302Y-696523D01*
X465152Y-696839D01*
X467994Y-697225D01*
X470825Y-697680D01*
X473644Y-698205D01*
X476450Y-698799D01*
X479240Y-699462D01*
X482013Y-700192D01*
X484767Y-700991D01*
X487501Y-701857D01*
X490212Y-702790D01*
X492900Y-703789D01*
X495563Y-704854D01*
X498198Y-705984D01*
X500806Y-707178D01*
X503383Y-708436D01*
X505928Y-709756D01*
X508440Y-711139D01*
X510918Y-712583D01*
X513359Y-714087D01*
X515763Y-715651D01*
X518127Y-717273D01*
X520452Y-718953D01*
X522734Y-720690D01*
X524973Y-722481D01*
X527167Y-724328D01*
X529315Y-726227D01*
X531416Y-728179D01*
X533468Y-730182D01*
X535471Y-732234D01*
X537423Y-734335D01*
X539322Y-736483D01*
X541169Y-738677D01*
X542960Y-740916D01*
X544697Y-743198D01*
X546377Y-745523D01*
X547999Y-747887D01*
X549563Y-750291D01*
X551067Y-752732D01*
X552511Y-755210D01*
X553894Y-757722D01*
X555214Y-760267D01*
X556472Y-762844D01*
X557666Y-765452D01*
X558796Y-768087D01*
X559861Y-770750D01*
X560860Y-773438D01*
X561793Y-776149D01*
X562659Y-778883D01*
X563458Y-781637D01*
X564188Y-784410D01*
X564851Y-787200D01*
X565445Y-790006D01*
X565970Y-792825D01*
X566425Y-795656D01*
X566811Y-798498D01*
X567127Y-801348D01*
X567373Y-804205D01*
X567549Y-807067D01*
X567655Y-809933D01*
X567690Y-812800D01*
X567655Y-815667D01*
X567549Y-818533D01*
X567373Y-821395D01*
X567127Y-824252D01*
X566811Y-827102D01*
X566425Y-829944D01*
X565970Y-832775D01*
X565445Y-835594D01*
X564851Y-838400D01*
X564188Y-841190D01*
X563458Y-843963D01*
X562659Y-846717D01*
X561793Y-849451D01*
X560860Y-852162D01*
X559861Y-854850D01*
X558796Y-857513D01*
X557666Y-860148D01*
X556472Y-862756D01*
X555214Y-865333D01*
X553894Y-867878D01*
X552511Y-870390D01*
X551067Y-872868D01*
X549563Y-875309D01*
X547999Y-877713D01*
X546377Y-880077D01*
X544697Y-882402D01*
X542960Y-884684D01*
X541169Y-886923D01*
X539322Y-889117D01*
X537423Y-891265D01*
X535471Y-893366D01*
X533468Y-895418D01*
X531416Y-897421D01*
X529315Y-899373D01*
X527167Y-901272D01*
X524973Y-903119D01*
X522734Y-904910D01*
X520452Y-906647D01*
X518127Y-908327D01*
X515763Y-909949D01*
X513359Y-911513D01*
X510918Y-913017D01*
X508440Y-914461D01*
X505928Y-915844D01*
X503383Y-917164D01*
X500806Y-918422D01*
X498198Y-919616D01*
X495563Y-920746D01*
X492900Y-921811D01*
X490212Y-922810D01*
X487501Y-923743D01*
X484767Y-924609D01*
X482013Y-925408D01*
X479240Y-926138D01*
X476450Y-926801D01*
X473644Y-927395D01*
X470825Y-927920D01*
X467994Y-928375D01*
X465152Y-928761D01*
X462302Y-929077D01*
X459445Y-929323D01*
X456583Y-929499D01*
X453717Y-929605D01*
X450850Y-929640D01*
X447983Y-929605D01*
X445117Y-929499D01*
X442255Y-929323D01*
X439398Y-929077D01*
X436548Y-928761D01*
X433706Y-928375D01*
X430875Y-927920D01*
X428056Y-927395D01*
X425250Y-926801D01*
X422460Y-926138D01*
X419687Y-925408D01*
X416933Y-924609D01*
X414199Y-923743D01*
X411488Y-922810D01*
X408800Y-921811D01*
X406137Y-920746D01*
X403502Y-919616D01*
X400894Y-918422D01*
X398317Y-917164D01*
X395772Y-915844D01*
X393260Y-914461D01*
X390782Y-913017D01*
X388341Y-911513D01*
X385937Y-909949D01*
X383573Y-908327D01*
X381248Y-906647D01*
X378966Y-904910D01*
X376727Y-903119D01*
X374533Y-901272D01*
X372385Y-899373D01*
X370284Y-897421D01*
X368232Y-895418D01*
X366229Y-893366D01*
X364277Y-891265D01*
X362378Y-889117D01*
X360531Y-886923D01*
X358740Y-884684D01*
X357003Y-882402D01*
X355323Y-880077D01*
X353701Y-877713D01*
X352137Y-875309D01*
X350633Y-872868D01*
X349189Y-870390D01*
X347806Y-867878D01*
X346486Y-865333D01*
X345228Y-862756D01*
X344034Y-860148D01*
X342904Y-857513D01*
X341839Y-854850D01*
X340840Y-852162D01*
X339907Y-849451D01*
X339041Y-846717D01*
X338242Y-843963D01*
X337512Y-841190D01*
X336849Y-838400D01*
X336255Y-835594D01*
X335730Y-832775D01*
X335275Y-829944D01*
X334889Y-827102D01*
X334573Y-824252D01*
X334327Y-821395D01*
X334151Y-818533D01*
X334045Y-815667D01*
X334010Y-812800D01*
D15*
X426339Y-844073D02*
X428117Y-844073D01*
X426339Y-844073D02*
X426339Y-835183D01*
X442341Y-839628D01*
X437896Y-828442D02*
X437764Y-828440D01*
X437633Y-828434D01*
X437501Y-828424D01*
X437370Y-828411D01*
X437240Y-828393D01*
X437110Y-828372D01*
X436980Y-828347D01*
X436852Y-828318D01*
X436724Y-828285D01*
X436598Y-828248D01*
X436472Y-828208D01*
X436348Y-828164D01*
X436225Y-828116D01*
X436104Y-828065D01*
X435984Y-828010D01*
X435866Y-827952D01*
X435750Y-827890D01*
X435636Y-827824D01*
X435523Y-827756D01*
X435413Y-827684D01*
X435305Y-827609D01*
X435199Y-827530D01*
X435095Y-827449D01*
X434994Y-827364D01*
X434896Y-827277D01*
X434800Y-827186D01*
X434707Y-827093D01*
X434616Y-826997D01*
X434529Y-826899D01*
X434444Y-826798D01*
X434363Y-826694D01*
X434284Y-826588D01*
X434209Y-826480D01*
X434137Y-826370D01*
X434069Y-826257D01*
X434003Y-826143D01*
X433941Y-826027D01*
X433883Y-825909D01*
X433828Y-825789D01*
X433777Y-825668D01*
X433729Y-825545D01*
X433685Y-825421D01*
X433645Y-825295D01*
X433608Y-825169D01*
X433575Y-825041D01*
X433546Y-824913D01*
X433521Y-824783D01*
X433500Y-824653D01*
X433482Y-824523D01*
X433469Y-824392D01*
X433459Y-824260D01*
X433453Y-824129D01*
X433451Y-823997D01*
X433453Y-823865D01*
X433459Y-823734D01*
X433469Y-823602D01*
X433482Y-823471D01*
X433500Y-823341D01*
X433521Y-823211D01*
X433546Y-823081D01*
X433575Y-822953D01*
X433608Y-822825D01*
X433645Y-822699D01*
X433685Y-822573D01*
X433729Y-822449D01*
X433777Y-822326D01*
X433828Y-822205D01*
X433883Y-822085D01*
X433941Y-821967D01*
X434003Y-821851D01*
X434069Y-821737D01*
X434137Y-821624D01*
X434209Y-821514D01*
X434284Y-821406D01*
X434363Y-821300D01*
X434444Y-821196D01*
X434529Y-821095D01*
X434616Y-820997D01*
X434707Y-820901D01*
X434800Y-820808D01*
X434896Y-820717D01*
X434994Y-820630D01*
X435095Y-820545D01*
X435199Y-820464D01*
X435305Y-820385D01*
X435413Y-820310D01*
X435523Y-820238D01*
X435636Y-820170D01*
X435750Y-820104D01*
X435866Y-820042D01*
X435984Y-819984D01*
X436104Y-819929D01*
X436225Y-819878D01*
X436348Y-819830D01*
X436472Y-819786D01*
X436598Y-819746D01*
X436724Y-819709D01*
X436852Y-819676D01*
X436980Y-819647D01*
X437110Y-819622D01*
X437240Y-819601D01*
X437370Y-819583D01*
X437501Y-819570D01*
X437633Y-819560D01*
X437764Y-819554D01*
X437896Y-819552D01*
X438028Y-819554D01*
X438159Y-819560D01*
X438291Y-819570D01*
X438422Y-819583D01*
X438552Y-819601D01*
X438682Y-819622D01*
X438812Y-819647D01*
X438940Y-819676D01*
X439068Y-819709D01*
X439194Y-819746D01*
X439320Y-819786D01*
X439444Y-819830D01*
X439567Y-819878D01*
X439688Y-819929D01*
X439808Y-819984D01*
X439926Y-820042D01*
X440042Y-820104D01*
X440156Y-820170D01*
X440269Y-820238D01*
X440379Y-820310D01*
X440487Y-820385D01*
X440593Y-820464D01*
X440697Y-820545D01*
X440798Y-820630D01*
X440896Y-820717D01*
X440992Y-820808D01*
X441085Y-820901D01*
X441176Y-820997D01*
X441263Y-821095D01*
X441348Y-821196D01*
X441429Y-821300D01*
X441508Y-821406D01*
X441583Y-821514D01*
X441655Y-821624D01*
X441723Y-821737D01*
X441789Y-821851D01*
X441851Y-821967D01*
X441909Y-822085D01*
X441964Y-822205D01*
X442015Y-822326D01*
X442063Y-822449D01*
X442107Y-822573D01*
X442147Y-822699D01*
X442184Y-822825D01*
X442217Y-822953D01*
X442246Y-823081D01*
X442271Y-823211D01*
X442292Y-823341D01*
X442310Y-823471D01*
X442323Y-823602D01*
X442333Y-823734D01*
X442339Y-823865D01*
X442341Y-823997D01*
X442339Y-824129D01*
X442333Y-824260D01*
X442323Y-824392D01*
X442310Y-824523D01*
X442292Y-824653D01*
X442271Y-824783D01*
X442246Y-824913D01*
X442217Y-825041D01*
X442184Y-825169D01*
X442147Y-825295D01*
X442107Y-825421D01*
X442063Y-825545D01*
X442015Y-825668D01*
X441964Y-825789D01*
X441909Y-825909D01*
X441851Y-826027D01*
X441789Y-826143D01*
X441723Y-826257D01*
X441655Y-826370D01*
X441583Y-826480D01*
X441508Y-826588D01*
X441429Y-826694D01*
X441348Y-826798D01*
X441263Y-826899D01*
X441176Y-826997D01*
X441085Y-827093D01*
X440992Y-827186D01*
X440896Y-827277D01*
X440798Y-827364D01*
X440697Y-827449D01*
X440593Y-827530D01*
X440487Y-827609D01*
X440379Y-827684D01*
X440269Y-827756D01*
X440156Y-827824D01*
X440042Y-827890D01*
X439926Y-827952D01*
X439808Y-828010D01*
X439688Y-828065D01*
X439567Y-828116D01*
X439444Y-828164D01*
X439320Y-828208D01*
X439194Y-828248D01*
X439068Y-828285D01*
X438940Y-828318D01*
X438812Y-828347D01*
X438682Y-828372D01*
X438552Y-828393D01*
X438422Y-828411D01*
X438291Y-828424D01*
X438159Y-828434D01*
X438028Y-828440D01*
X437896Y-828442D01*
X429895Y-827553D02*
X429777Y-827551D01*
X429660Y-827545D01*
X429543Y-827536D01*
X429426Y-827522D01*
X429310Y-827505D01*
X429194Y-827483D01*
X429079Y-827458D01*
X428965Y-827429D01*
X428852Y-827397D01*
X428740Y-827360D01*
X428630Y-827320D01*
X428521Y-827277D01*
X428413Y-827229D01*
X428307Y-827179D01*
X428203Y-827124D01*
X428100Y-827067D01*
X428000Y-827006D01*
X427901Y-826941D01*
X427805Y-826874D01*
X427711Y-826803D01*
X427619Y-826729D01*
X427530Y-826653D01*
X427444Y-826573D01*
X427360Y-826491D01*
X427279Y-826405D01*
X427201Y-826318D01*
X427125Y-826227D01*
X427053Y-826134D01*
X426984Y-826039D01*
X426918Y-825942D01*
X426855Y-825842D01*
X426796Y-825741D01*
X426740Y-825638D01*
X426688Y-825532D01*
X426639Y-825425D01*
X426593Y-825317D01*
X426551Y-825207D01*
X426513Y-825096D01*
X426479Y-824983D01*
X426448Y-824870D01*
X426421Y-824755D01*
X426398Y-824640D01*
X426378Y-824524D01*
X426363Y-824408D01*
X426351Y-824291D01*
X426343Y-824173D01*
X426339Y-824056D01*
X426339Y-823938D01*
X426343Y-823821D01*
X426351Y-823703D01*
X426363Y-823586D01*
X426378Y-823470D01*
X426398Y-823354D01*
X426421Y-823239D01*
X426448Y-823124D01*
X426479Y-823011D01*
X426513Y-822898D01*
X426551Y-822787D01*
X426593Y-822677D01*
X426639Y-822569D01*
X426688Y-822462D01*
X426740Y-822356D01*
X426796Y-822253D01*
X426855Y-822152D01*
X426918Y-822052D01*
X426984Y-821955D01*
X427053Y-821860D01*
X427125Y-821767D01*
X427201Y-821676D01*
X427279Y-821589D01*
X427360Y-821503D01*
X427444Y-821421D01*
X427530Y-821341D01*
X427619Y-821265D01*
X427711Y-821191D01*
X427805Y-821120D01*
X427901Y-821053D01*
X428000Y-820988D01*
X428100Y-820927D01*
X428203Y-820870D01*
X428307Y-820815D01*
X428413Y-820765D01*
X428521Y-820717D01*
X428630Y-820674D01*
X428740Y-820634D01*
X428852Y-820597D01*
X428965Y-820565D01*
X429079Y-820536D01*
X429194Y-820511D01*
X429310Y-820489D01*
X429426Y-820472D01*
X429543Y-820458D01*
X429660Y-820449D01*
X429777Y-820443D01*
X429895Y-820441D01*
X430013Y-820443D01*
X430130Y-820449D01*
X430247Y-820458D01*
X430364Y-820472D01*
X430480Y-820489D01*
X430596Y-820511D01*
X430711Y-820536D01*
X430825Y-820565D01*
X430938Y-820597D01*
X431050Y-820634D01*
X431160Y-820674D01*
X431269Y-820717D01*
X431377Y-820765D01*
X431483Y-820815D01*
X431587Y-820870D01*
X431690Y-820927D01*
X431790Y-820988D01*
X431889Y-821053D01*
X431985Y-821120D01*
X432079Y-821191D01*
X432171Y-821265D01*
X432260Y-821341D01*
X432346Y-821421D01*
X432430Y-821503D01*
X432511Y-821589D01*
X432589Y-821676D01*
X432665Y-821767D01*
X432737Y-821860D01*
X432806Y-821955D01*
X432872Y-822052D01*
X432935Y-822152D01*
X432994Y-822253D01*
X433050Y-822356D01*
X433102Y-822462D01*
X433151Y-822569D01*
X433197Y-822677D01*
X433239Y-822787D01*
X433277Y-822898D01*
X433311Y-823011D01*
X433342Y-823124D01*
X433369Y-823239D01*
X433392Y-823354D01*
X433412Y-823470D01*
X433427Y-823586D01*
X433439Y-823703D01*
X433447Y-823821D01*
X433451Y-823938D01*
X433451Y-824056D01*
X433447Y-824173D01*
X433439Y-824291D01*
X433427Y-824408D01*
X433412Y-824524D01*
X433392Y-824640D01*
X433369Y-824755D01*
X433342Y-824870D01*
X433311Y-824983D01*
X433277Y-825096D01*
X433239Y-825207D01*
X433197Y-825317D01*
X433151Y-825425D01*
X433102Y-825532D01*
X433050Y-825638D01*
X432994Y-825741D01*
X432935Y-825842D01*
X432872Y-825942D01*
X432806Y-826039D01*
X432737Y-826134D01*
X432665Y-826227D01*
X432589Y-826318D01*
X432511Y-826405D01*
X432430Y-826491D01*
X432346Y-826573D01*
X432260Y-826653D01*
X432171Y-826729D01*
X432079Y-826803D01*
X431985Y-826874D01*
X431889Y-826941D01*
X431790Y-827006D01*
X431690Y-827067D01*
X431587Y-827124D01*
X431483Y-827179D01*
X431377Y-827229D01*
X431269Y-827277D01*
X431160Y-827320D01*
X431050Y-827360D01*
X430938Y-827397D01*
X430825Y-827429D01*
X430711Y-827458D01*
X430596Y-827483D01*
X430480Y-827505D01*
X430364Y-827522D01*
X430247Y-827536D01*
X430130Y-827545D01*
X430013Y-827551D01*
X429895Y-827553D01*
X434340Y-812810D02*
X434025Y-812806D01*
X433711Y-812795D01*
X433396Y-812776D01*
X433083Y-812750D01*
X432770Y-812716D01*
X432458Y-812675D01*
X432147Y-812626D01*
X431837Y-812570D01*
X431528Y-812507D01*
X431222Y-812436D01*
X430917Y-812358D01*
X430614Y-812273D01*
X430313Y-812180D01*
X430014Y-812080D01*
X429718Y-811973D01*
X429424Y-811860D01*
X429134Y-811739D01*
X428846Y-811611D01*
X428561Y-811476D01*
X428455Y-811438D01*
X428350Y-811395D01*
X428246Y-811350D01*
X428144Y-811300D01*
X428044Y-811247D01*
X427945Y-811191D01*
X427849Y-811131D01*
X427755Y-811068D01*
X427663Y-811002D01*
X427573Y-810933D01*
X427486Y-810861D01*
X427401Y-810785D01*
X427319Y-810707D01*
X427240Y-810626D01*
X427163Y-810543D01*
X427090Y-810456D01*
X427019Y-810368D01*
X426952Y-810277D01*
X426887Y-810183D01*
X426826Y-810088D01*
X426769Y-809990D01*
X426714Y-809891D01*
X426664Y-809790D01*
X426616Y-809687D01*
X426572Y-809582D01*
X426532Y-809476D01*
X426496Y-809369D01*
X426463Y-809260D01*
X426434Y-809151D01*
X426409Y-809040D01*
X426388Y-808929D01*
X426370Y-808817D01*
X426357Y-808704D01*
X426347Y-808591D01*
X426341Y-808478D01*
X426339Y-808365D01*
X426341Y-808252D01*
X426347Y-808139D01*
X426357Y-808026D01*
X426370Y-807913D01*
X426388Y-807801D01*
X426409Y-807690D01*
X426434Y-807579D01*
X426463Y-807470D01*
X426496Y-807361D01*
X426532Y-807254D01*
X426572Y-807148D01*
X426616Y-807043D01*
X426664Y-806940D01*
X426714Y-806839D01*
X426769Y-806740D01*
X426826Y-806642D01*
X426887Y-806547D01*
X426952Y-806453D01*
X427019Y-806362D01*
X427090Y-806274D01*
X427163Y-806187D01*
X427240Y-806104D01*
X427319Y-806023D01*
X427401Y-805945D01*
X427486Y-805869D01*
X427573Y-805797D01*
X427663Y-805728D01*
X427755Y-805662D01*
X427849Y-805599D01*
X427945Y-805539D01*
X428044Y-805483D01*
X428144Y-805430D01*
X428246Y-805380D01*
X428350Y-805335D01*
X428455Y-805292D01*
X428561Y-805254D01*
X428846Y-805119D01*
X429134Y-804991D01*
X429424Y-804870D01*
X429718Y-804757D01*
X430014Y-804650D01*
X430313Y-804550D01*
X430614Y-804457D01*
X430917Y-804372D01*
X431222Y-804294D01*
X431528Y-804223D01*
X431837Y-804160D01*
X432147Y-804104D01*
X432458Y-804055D01*
X432770Y-804014D01*
X433083Y-803980D01*
X433396Y-803954D01*
X433711Y-803935D01*
X434025Y-803924D01*
X434340Y-803920D01*
X434340Y-812810D02*
X434655Y-812806D01*
X434969Y-812795D01*
X435284Y-812776D01*
X435597Y-812750D01*
X435910Y-812716D01*
X436222Y-812675D01*
X436533Y-812626D01*
X436843Y-812570D01*
X437152Y-812507D01*
X437458Y-812436D01*
X437763Y-812358D01*
X438066Y-812273D01*
X438367Y-812180D01*
X438666Y-812080D01*
X438962Y-811973D01*
X439256Y-811860D01*
X439546Y-811739D01*
X439834Y-811611D01*
X440119Y-811476D01*
X440225Y-811438D01*
X440330Y-811395D01*
X440434Y-811350D01*
X440536Y-811300D01*
X440636Y-811247D01*
X440735Y-811191D01*
X440831Y-811131D01*
X440925Y-811068D01*
X441017Y-811002D01*
X441107Y-810933D01*
X441194Y-810861D01*
X441279Y-810785D01*
X441361Y-810707D01*
X441440Y-810626D01*
X441517Y-810543D01*
X441590Y-810456D01*
X441661Y-810368D01*
X441728Y-810277D01*
X441793Y-810183D01*
X441854Y-810088D01*
X441911Y-809990D01*
X441966Y-809891D01*
X442016Y-809790D01*
X442064Y-809687D01*
X442108Y-809582D01*
X442148Y-809476D01*
X442184Y-809369D01*
X442217Y-809260D01*
X442246Y-809151D01*
X442271Y-809040D01*
X442292Y-808929D01*
X442310Y-808817D01*
X442323Y-808704D01*
X442333Y-808591D01*
X442339Y-808478D01*
X442341Y-808365D01*
X440119Y-805254D02*
X439834Y-805119D01*
X439546Y-804991D01*
X439256Y-804870D01*
X438962Y-804757D01*
X438666Y-804650D01*
X438367Y-804550D01*
X438066Y-804457D01*
X437763Y-804372D01*
X437458Y-804294D01*
X437152Y-804223D01*
X436843Y-804160D01*
X436533Y-804104D01*
X436222Y-804055D01*
X435910Y-804014D01*
X435597Y-803980D01*
X435284Y-803954D01*
X434969Y-803935D01*
X434655Y-803924D01*
X434340Y-803920D01*
X440119Y-805254D02*
X440225Y-805292D01*
X440330Y-805335D01*
X440434Y-805380D01*
X440536Y-805430D01*
X440636Y-805483D01*
X440735Y-805539D01*
X440831Y-805599D01*
X440925Y-805662D01*
X441017Y-805728D01*
X441107Y-805797D01*
X441194Y-805869D01*
X441279Y-805945D01*
X441361Y-806023D01*
X441440Y-806104D01*
X441517Y-806187D01*
X441590Y-806274D01*
X441661Y-806362D01*
X441728Y-806453D01*
X441793Y-806547D01*
X441854Y-806642D01*
X441911Y-806740D01*
X441966Y-806839D01*
X442016Y-806940D01*
X442064Y-807043D01*
X442108Y-807148D01*
X442148Y-807254D01*
X442184Y-807361D01*
X442217Y-807470D01*
X442246Y-807579D01*
X442271Y-807690D01*
X442292Y-807801D01*
X442310Y-807913D01*
X442323Y-808026D01*
X442333Y-808139D01*
X442339Y-808252D01*
X442341Y-808365D01*
X438785Y-811921D02*
X429895Y-804809D01*
X442341Y-797179D02*
X442341Y-791845D01*
X442339Y-791729D01*
X442333Y-791612D01*
X442324Y-791496D01*
X442311Y-791381D01*
X442294Y-791266D01*
X442273Y-791151D01*
X442248Y-791038D01*
X442220Y-790925D01*
X442188Y-790813D01*
X442152Y-790702D01*
X442113Y-790592D01*
X442070Y-790484D01*
X442024Y-790377D01*
X441974Y-790272D01*
X441921Y-790169D01*
X441865Y-790067D01*
X441805Y-789967D01*
X441742Y-789869D01*
X441675Y-789774D01*
X441606Y-789680D01*
X441534Y-789589D01*
X441459Y-789500D01*
X441380Y-789414D01*
X441299Y-789331D01*
X441216Y-789250D01*
X441130Y-789171D01*
X441041Y-789096D01*
X440950Y-789024D01*
X440856Y-788955D01*
X440761Y-788888D01*
X440663Y-788825D01*
X440563Y-788765D01*
X440461Y-788709D01*
X440358Y-788656D01*
X440253Y-788606D01*
X440146Y-788560D01*
X440038Y-788517D01*
X439928Y-788478D01*
X439817Y-788442D01*
X439705Y-788410D01*
X439592Y-788382D01*
X439479Y-788357D01*
X439364Y-788336D01*
X439249Y-788319D01*
X439134Y-788306D01*
X439018Y-788297D01*
X438901Y-788291D01*
X438785Y-788289D01*
X437007Y-788289D01*
X436891Y-788291D01*
X436774Y-788297D01*
X436658Y-788306D01*
X436543Y-788319D01*
X436428Y-788336D01*
X436313Y-788357D01*
X436200Y-788382D01*
X436087Y-788410D01*
X435975Y-788442D01*
X435864Y-788478D01*
X435754Y-788517D01*
X435646Y-788560D01*
X435539Y-788606D01*
X435434Y-788656D01*
X435331Y-788709D01*
X435229Y-788765D01*
X435129Y-788825D01*
X435031Y-788888D01*
X434936Y-788955D01*
X434842Y-789024D01*
X434751Y-789096D01*
X434662Y-789171D01*
X434576Y-789250D01*
X434493Y-789331D01*
X434412Y-789414D01*
X434333Y-789500D01*
X434258Y-789589D01*
X434186Y-789680D01*
X434117Y-789774D01*
X434050Y-789869D01*
X433987Y-789967D01*
X433927Y-790067D01*
X433871Y-790169D01*
X433818Y-790272D01*
X433768Y-790377D01*
X433722Y-790484D01*
X433679Y-790592D01*
X433640Y-790702D01*
X433604Y-790813D01*
X433572Y-790925D01*
X433544Y-791038D01*
X433519Y-791151D01*
X433498Y-791266D01*
X433481Y-791381D01*
X433468Y-791496D01*
X433459Y-791612D01*
X433453Y-791729D01*
X433451Y-791845D01*
X433451Y-797179D01*
X426339Y-797179D01*
X426339Y-788289D01*
D12*
X316230Y-920750D02*
X316230Y-925830D01*
X313690Y-923290D02*
X318770Y-923290D01*
X273050Y-933450D02*
X273058Y-932827D01*
X273081Y-932204D01*
X273119Y-931581D01*
X273172Y-930960D01*
X273241Y-930341D01*
X273325Y-929723D01*
X273424Y-929108D01*
X273538Y-928495D01*
X273667Y-927885D01*
X273811Y-927278D01*
X273970Y-926675D01*
X274144Y-926077D01*
X274332Y-925482D01*
X274535Y-924893D01*
X274752Y-924309D01*
X274983Y-923730D01*
X275229Y-923157D01*
X275489Y-922590D01*
X275762Y-922030D01*
X276049Y-921477D01*
X276350Y-920930D01*
X276664Y-920392D01*
X276991Y-919861D01*
X277331Y-919339D01*
X277683Y-918824D01*
X278049Y-918319D01*
X278426Y-917823D01*
X278816Y-917336D01*
X279217Y-916859D01*
X279630Y-916392D01*
X280054Y-915936D01*
X280489Y-915489D01*
X280936Y-915054D01*
X281392Y-914630D01*
X281859Y-914217D01*
X282336Y-913816D01*
X282823Y-913426D01*
X283319Y-913049D01*
X283824Y-912683D01*
X284339Y-912331D01*
X284861Y-911991D01*
X285392Y-911664D01*
X285930Y-911350D01*
X286477Y-911049D01*
X287030Y-910762D01*
X287590Y-910489D01*
X288157Y-910229D01*
X288730Y-909983D01*
X289309Y-909752D01*
X289893Y-909535D01*
X290482Y-909332D01*
X291077Y-909144D01*
X291675Y-908970D01*
X292278Y-908811D01*
X292885Y-908667D01*
X293495Y-908538D01*
X294108Y-908424D01*
X294723Y-908325D01*
X295341Y-908241D01*
X295960Y-908172D01*
X296581Y-908119D01*
X297204Y-908081D01*
X297827Y-908058D01*
X298450Y-908050D01*
X299073Y-908058D01*
X299696Y-908081D01*
X300319Y-908119D01*
X300940Y-908172D01*
X301559Y-908241D01*
X302177Y-908325D01*
X302792Y-908424D01*
X303405Y-908538D01*
X304015Y-908667D01*
X304622Y-908811D01*
X305225Y-908970D01*
X305823Y-909144D01*
X306418Y-909332D01*
X307007Y-909535D01*
X307591Y-909752D01*
X308170Y-909983D01*
X308743Y-910229D01*
X309310Y-910489D01*
X309870Y-910762D01*
X310423Y-911049D01*
X310970Y-911350D01*
X311508Y-911664D01*
X312039Y-911991D01*
X312561Y-912331D01*
X313076Y-912683D01*
X313581Y-913049D01*
X314077Y-913426D01*
X314564Y-913816D01*
X315041Y-914217D01*
X315508Y-914630D01*
X315964Y-915054D01*
X316411Y-915489D01*
X316846Y-915936D01*
X317270Y-916392D01*
X317683Y-916859D01*
X318084Y-917336D01*
X318474Y-917823D01*
X318851Y-918319D01*
X319217Y-918824D01*
X319569Y-919339D01*
X319909Y-919861D01*
X320236Y-920392D01*
X320550Y-920930D01*
X320851Y-921477D01*
X321138Y-922030D01*
X321411Y-922590D01*
X321671Y-923157D01*
X321917Y-923730D01*
X322148Y-924309D01*
X322365Y-924893D01*
X322568Y-925482D01*
X322756Y-926077D01*
X322930Y-926675D01*
X323089Y-927278D01*
X323233Y-927885D01*
X323362Y-928495D01*
X323476Y-929108D01*
X323575Y-929723D01*
X323659Y-930341D01*
X323728Y-930960D01*
X323781Y-931581D01*
X323819Y-932204D01*
X323842Y-932827D01*
X323850Y-933450D01*
X323842Y-934073D01*
X323819Y-934696D01*
X323781Y-935319D01*
X323728Y-935940D01*
X323659Y-936559D01*
X323575Y-937177D01*
X323476Y-937792D01*
X323362Y-938405D01*
X323233Y-939015D01*
X323089Y-939622D01*
X322930Y-940225D01*
X322756Y-940823D01*
X322568Y-941418D01*
X322365Y-942007D01*
X322148Y-942591D01*
X321917Y-943170D01*
X321671Y-943743D01*
X321411Y-944310D01*
X321138Y-944870D01*
X320851Y-945423D01*
X320550Y-945970D01*
X320236Y-946508D01*
X319909Y-947039D01*
X319569Y-947561D01*
X319217Y-948076D01*
X318851Y-948581D01*
X318474Y-949077D01*
X318084Y-949564D01*
X317683Y-950041D01*
X317270Y-950508D01*
X316846Y-950964D01*
X316411Y-951411D01*
X315964Y-951846D01*
X315508Y-952270D01*
X315041Y-952683D01*
X314564Y-953084D01*
X314077Y-953474D01*
X313581Y-953851D01*
X313076Y-954217D01*
X312561Y-954569D01*
X312039Y-954909D01*
X311508Y-955236D01*
X310970Y-955550D01*
X310423Y-955851D01*
X309870Y-956138D01*
X309310Y-956411D01*
X308743Y-956671D01*
X308170Y-956917D01*
X307591Y-957148D01*
X307007Y-957365D01*
X306418Y-957568D01*
X305823Y-957756D01*
X305225Y-957930D01*
X304622Y-958089D01*
X304015Y-958233D01*
X303405Y-958362D01*
X302792Y-958476D01*
X302177Y-958575D01*
X301559Y-958659D01*
X300940Y-958728D01*
X300319Y-958781D01*
X299696Y-958819D01*
X299073Y-958842D01*
X298450Y-958850D01*
X297827Y-958842D01*
X297204Y-958819D01*
X296581Y-958781D01*
X295960Y-958728D01*
X295341Y-958659D01*
X294723Y-958575D01*
X294108Y-958476D01*
X293495Y-958362D01*
X292885Y-958233D01*
X292278Y-958089D01*
X291675Y-957930D01*
X291077Y-957756D01*
X290482Y-957568D01*
X289893Y-957365D01*
X289309Y-957148D01*
X288730Y-956917D01*
X288157Y-956671D01*
X287590Y-956411D01*
X287030Y-956138D01*
X286477Y-955851D01*
X285930Y-955550D01*
X285392Y-955236D01*
X284861Y-954909D01*
X284339Y-954569D01*
X283824Y-954217D01*
X283319Y-953851D01*
X282823Y-953474D01*
X282336Y-953084D01*
X281859Y-952683D01*
X281392Y-952270D01*
X280936Y-951846D01*
X280489Y-951411D01*
X280054Y-950964D01*
X279630Y-950508D01*
X279217Y-950041D01*
X278816Y-949564D01*
X278426Y-949077D01*
X278049Y-948581D01*
X277683Y-948076D01*
X277331Y-947561D01*
X276991Y-947039D01*
X276664Y-946508D01*
X276350Y-945970D01*
X276049Y-945423D01*
X275762Y-944870D01*
X275489Y-944310D01*
X275229Y-943743D01*
X274983Y-943170D01*
X274752Y-942591D01*
X274535Y-942007D01*
X274332Y-941418D01*
X274144Y-940823D01*
X273970Y-940225D01*
X273811Y-939622D01*
X273667Y-939015D01*
X273538Y-938405D01*
X273424Y-937792D01*
X273325Y-937177D01*
X273241Y-936559D01*
X273172Y-935940D01*
X273119Y-935319D01*
X273081Y-934696D01*
X273058Y-934073D01*
X273050Y-933450D01*
D10*
X320675Y-970317D02*
X320675Y-972857D01*
X320673Y-972957D01*
X320667Y-973056D01*
X320657Y-973156D01*
X320644Y-973254D01*
X320626Y-973353D01*
X320605Y-973450D01*
X320580Y-973546D01*
X320551Y-973642D01*
X320518Y-973736D01*
X320482Y-973829D01*
X320442Y-973920D01*
X320398Y-974010D01*
X320351Y-974098D01*
X320301Y-974184D01*
X320247Y-974268D01*
X320190Y-974350D01*
X320130Y-974429D01*
X320066Y-974507D01*
X320000Y-974581D01*
X319931Y-974653D01*
X319859Y-974722D01*
X319785Y-974788D01*
X319707Y-974852D01*
X319628Y-974912D01*
X319546Y-974969D01*
X319462Y-975023D01*
X319376Y-975073D01*
X319288Y-975120D01*
X319198Y-975164D01*
X319107Y-975204D01*
X319014Y-975240D01*
X318920Y-975273D01*
X318824Y-975302D01*
X318728Y-975327D01*
X318631Y-975348D01*
X318532Y-975366D01*
X318434Y-975379D01*
X318334Y-975389D01*
X318235Y-975395D01*
X318135Y-975397D01*
X311785Y-975397D01*
X311685Y-975395D01*
X311586Y-975389D01*
X311486Y-975379D01*
X311388Y-975366D01*
X311289Y-975348D01*
X311192Y-975327D01*
X311096Y-975302D01*
X311000Y-975273D01*
X310906Y-975240D01*
X310813Y-975204D01*
X310722Y-975164D01*
X310632Y-975120D01*
X310544Y-975073D01*
X310458Y-975023D01*
X310374Y-974969D01*
X310292Y-974912D01*
X310213Y-974852D01*
X310135Y-974788D01*
X310061Y-974722D01*
X309989Y-974653D01*
X309920Y-974581D01*
X309854Y-974507D01*
X309790Y-974429D01*
X309730Y-974350D01*
X309673Y-974268D01*
X309619Y-974184D01*
X309569Y-974098D01*
X309522Y-974010D01*
X309478Y-973920D01*
X309438Y-973829D01*
X309402Y-973736D01*
X309369Y-973642D01*
X309340Y-973546D01*
X309315Y-973450D01*
X309294Y-973353D01*
X309276Y-973254D01*
X309263Y-973156D01*
X309253Y-973056D01*
X309247Y-972957D01*
X309245Y-972857D01*
X309245Y-970317D01*
X311785Y-965835D02*
X309245Y-962660D01*
X320675Y-962660D01*
X320675Y-965835D02*
X320675Y-959485D01*
D12*
X585470Y-717550D02*
X585470Y-712470D01*
X588010Y-715010D02*
X582930Y-715010D01*
X577850Y-704850D02*
X577858Y-704227D01*
X577881Y-703604D01*
X577919Y-702981D01*
X577972Y-702360D01*
X578041Y-701741D01*
X578125Y-701123D01*
X578224Y-700508D01*
X578338Y-699895D01*
X578467Y-699285D01*
X578611Y-698678D01*
X578770Y-698075D01*
X578944Y-697477D01*
X579132Y-696882D01*
X579335Y-696293D01*
X579552Y-695709D01*
X579783Y-695130D01*
X580029Y-694557D01*
X580289Y-693990D01*
X580562Y-693430D01*
X580849Y-692877D01*
X581150Y-692330D01*
X581464Y-691792D01*
X581791Y-691261D01*
X582131Y-690739D01*
X582483Y-690224D01*
X582849Y-689719D01*
X583226Y-689223D01*
X583616Y-688736D01*
X584017Y-688259D01*
X584430Y-687792D01*
X584854Y-687336D01*
X585289Y-686889D01*
X585736Y-686454D01*
X586192Y-686030D01*
X586659Y-685617D01*
X587136Y-685216D01*
X587623Y-684826D01*
X588119Y-684449D01*
X588624Y-684083D01*
X589139Y-683731D01*
X589661Y-683391D01*
X590192Y-683064D01*
X590730Y-682750D01*
X591277Y-682449D01*
X591830Y-682162D01*
X592390Y-681889D01*
X592957Y-681629D01*
X593530Y-681383D01*
X594109Y-681152D01*
X594693Y-680935D01*
X595282Y-680732D01*
X595877Y-680544D01*
X596475Y-680370D01*
X597078Y-680211D01*
X597685Y-680067D01*
X598295Y-679938D01*
X598908Y-679824D01*
X599523Y-679725D01*
X600141Y-679641D01*
X600760Y-679572D01*
X601381Y-679519D01*
X602004Y-679481D01*
X602627Y-679458D01*
X603250Y-679450D01*
X603873Y-679458D01*
X604496Y-679481D01*
X605119Y-679519D01*
X605740Y-679572D01*
X606359Y-679641D01*
X606977Y-679725D01*
X607592Y-679824D01*
X608205Y-679938D01*
X608815Y-680067D01*
X609422Y-680211D01*
X610025Y-680370D01*
X610623Y-680544D01*
X611218Y-680732D01*
X611807Y-680935D01*
X612391Y-681152D01*
X612970Y-681383D01*
X613543Y-681629D01*
X614110Y-681889D01*
X614670Y-682162D01*
X615223Y-682449D01*
X615770Y-682750D01*
X616308Y-683064D01*
X616839Y-683391D01*
X617361Y-683731D01*
X617876Y-684083D01*
X618381Y-684449D01*
X618877Y-684826D01*
X619364Y-685216D01*
X619841Y-685617D01*
X620308Y-686030D01*
X620764Y-686454D01*
X621211Y-686889D01*
X621646Y-687336D01*
X622070Y-687792D01*
X622483Y-688259D01*
X622884Y-688736D01*
X623274Y-689223D01*
X623651Y-689719D01*
X624017Y-690224D01*
X624369Y-690739D01*
X624709Y-691261D01*
X625036Y-691792D01*
X625350Y-692330D01*
X625651Y-692877D01*
X625938Y-693430D01*
X626211Y-693990D01*
X626471Y-694557D01*
X626717Y-695130D01*
X626948Y-695709D01*
X627165Y-696293D01*
X627368Y-696882D01*
X627556Y-697477D01*
X627730Y-698075D01*
X627889Y-698678D01*
X628033Y-699285D01*
X628162Y-699895D01*
X628276Y-700508D01*
X628375Y-701123D01*
X628459Y-701741D01*
X628528Y-702360D01*
X628581Y-702981D01*
X628619Y-703604D01*
X628642Y-704227D01*
X628650Y-704850D01*
X628642Y-705473D01*
X628619Y-706096D01*
X628581Y-706719D01*
X628528Y-707340D01*
X628459Y-707959D01*
X628375Y-708577D01*
X628276Y-709192D01*
X628162Y-709805D01*
X628033Y-710415D01*
X627889Y-711022D01*
X627730Y-711625D01*
X627556Y-712223D01*
X627368Y-712818D01*
X627165Y-713407D01*
X626948Y-713991D01*
X626717Y-714570D01*
X626471Y-715143D01*
X626211Y-715710D01*
X625938Y-716270D01*
X625651Y-716823D01*
X625350Y-717370D01*
X625036Y-717908D01*
X624709Y-718439D01*
X624369Y-718961D01*
X624017Y-719476D01*
X623651Y-719981D01*
X623274Y-720477D01*
X622884Y-720964D01*
X622483Y-721441D01*
X622070Y-721908D01*
X621646Y-722364D01*
X621211Y-722811D01*
X620764Y-723246D01*
X620308Y-723670D01*
X619841Y-724083D01*
X619364Y-724484D01*
X618877Y-724874D01*
X618381Y-725251D01*
X617876Y-725617D01*
X617361Y-725969D01*
X616839Y-726309D01*
X616308Y-726636D01*
X615770Y-726950D01*
X615223Y-727251D01*
X614670Y-727538D01*
X614110Y-727811D01*
X613543Y-728071D01*
X612970Y-728317D01*
X612391Y-728548D01*
X611807Y-728765D01*
X611218Y-728968D01*
X610623Y-729156D01*
X610025Y-729330D01*
X609422Y-729489D01*
X608815Y-729633D01*
X608205Y-729762D01*
X607592Y-729876D01*
X606977Y-729975D01*
X606359Y-730059D01*
X605740Y-730128D01*
X605119Y-730181D01*
X604496Y-730219D01*
X603873Y-730242D01*
X603250Y-730250D01*
X602627Y-730242D01*
X602004Y-730219D01*
X601381Y-730181D01*
X600760Y-730128D01*
X600141Y-730059D01*
X599523Y-729975D01*
X598908Y-729876D01*
X598295Y-729762D01*
X597685Y-729633D01*
X597078Y-729489D01*
X596475Y-729330D01*
X595877Y-729156D01*
X595282Y-728968D01*
X594693Y-728765D01*
X594109Y-728548D01*
X593530Y-728317D01*
X592957Y-728071D01*
X592390Y-727811D01*
X591830Y-727538D01*
X591277Y-727251D01*
X590730Y-726950D01*
X590192Y-726636D01*
X589661Y-726309D01*
X589139Y-725969D01*
X588624Y-725617D01*
X588119Y-725251D01*
X587623Y-724874D01*
X587136Y-724484D01*
X586659Y-724083D01*
X586192Y-723670D01*
X585736Y-723246D01*
X585289Y-722811D01*
X584854Y-722364D01*
X584430Y-721908D01*
X584017Y-721441D01*
X583616Y-720964D01*
X583226Y-720477D01*
X582849Y-719981D01*
X582483Y-719476D01*
X582131Y-718961D01*
X581791Y-718439D01*
X581464Y-717908D01*
X581150Y-717370D01*
X580849Y-716823D01*
X580562Y-716270D01*
X580289Y-715710D01*
X580029Y-715143D01*
X579783Y-714570D01*
X579552Y-713991D01*
X579335Y-713407D01*
X579132Y-712818D01*
X578944Y-712223D01*
X578770Y-711625D01*
X578611Y-711022D01*
X578467Y-710415D01*
X578338Y-709805D01*
X578224Y-709192D01*
X578125Y-708577D01*
X578041Y-707959D01*
X577972Y-707340D01*
X577919Y-706719D01*
X577881Y-706096D01*
X577858Y-705473D01*
X577850Y-704850D01*
D10*
X592455Y-676275D02*
X592455Y-673735D01*
X592455Y-676275D02*
X592453Y-676375D01*
X592447Y-676474D01*
X592437Y-676574D01*
X592424Y-676672D01*
X592406Y-676771D01*
X592385Y-676868D01*
X592360Y-676964D01*
X592331Y-677060D01*
X592298Y-677154D01*
X592262Y-677247D01*
X592222Y-677338D01*
X592178Y-677428D01*
X592131Y-677516D01*
X592081Y-677602D01*
X592027Y-677686D01*
X591970Y-677768D01*
X591910Y-677847D01*
X591846Y-677925D01*
X591780Y-677999D01*
X591711Y-678071D01*
X591639Y-678140D01*
X591565Y-678206D01*
X591487Y-678270D01*
X591408Y-678330D01*
X591326Y-678387D01*
X591242Y-678441D01*
X591156Y-678491D01*
X591068Y-678538D01*
X590978Y-678582D01*
X590887Y-678622D01*
X590794Y-678658D01*
X590700Y-678691D01*
X590604Y-678720D01*
X590508Y-678745D01*
X590411Y-678766D01*
X590312Y-678784D01*
X590214Y-678797D01*
X590114Y-678807D01*
X590015Y-678813D01*
X589915Y-678815D01*
X583565Y-678815D01*
X583465Y-678813D01*
X583366Y-678807D01*
X583266Y-678797D01*
X583168Y-678784D01*
X583069Y-678766D01*
X582972Y-678745D01*
X582876Y-678720D01*
X582780Y-678691D01*
X582686Y-678658D01*
X582593Y-678622D01*
X582502Y-678582D01*
X582412Y-678538D01*
X582324Y-678491D01*
X582238Y-678441D01*
X582154Y-678387D01*
X582072Y-678330D01*
X581993Y-678270D01*
X581915Y-678206D01*
X581841Y-678140D01*
X581769Y-678071D01*
X581700Y-677999D01*
X581634Y-677925D01*
X581570Y-677847D01*
X581510Y-677768D01*
X581453Y-677686D01*
X581399Y-677602D01*
X581349Y-677516D01*
X581302Y-677428D01*
X581258Y-677338D01*
X581218Y-677247D01*
X581182Y-677154D01*
X581149Y-677060D01*
X581120Y-676964D01*
X581095Y-676868D01*
X581074Y-676771D01*
X581056Y-676672D01*
X581043Y-676574D01*
X581033Y-676474D01*
X581027Y-676375D01*
X581025Y-676275D01*
X581025Y-673735D01*
X581025Y-665760D02*
X581027Y-665656D01*
X581033Y-665551D01*
X581042Y-665447D01*
X581055Y-665344D01*
X581073Y-665241D01*
X581093Y-665139D01*
X581118Y-665037D01*
X581146Y-664937D01*
X581178Y-664837D01*
X581214Y-664739D01*
X581253Y-664642D01*
X581295Y-664547D01*
X581341Y-664453D01*
X581391Y-664361D01*
X581443Y-664271D01*
X581499Y-664183D01*
X581559Y-664097D01*
X581621Y-664013D01*
X581686Y-663932D01*
X581754Y-663853D01*
X581826Y-663776D01*
X581899Y-663703D01*
X581976Y-663631D01*
X582055Y-663563D01*
X582136Y-663498D01*
X582220Y-663436D01*
X582306Y-663376D01*
X582394Y-663320D01*
X582484Y-663268D01*
X582576Y-663218D01*
X582670Y-663172D01*
X582765Y-663130D01*
X582862Y-663091D01*
X582960Y-663055D01*
X583060Y-663023D01*
X583160Y-662995D01*
X583262Y-662970D01*
X583364Y-662950D01*
X583467Y-662932D01*
X583570Y-662919D01*
X583674Y-662910D01*
X583779Y-662904D01*
X583883Y-662902D01*
X581025Y-665760D02*
X581027Y-665878D01*
X581033Y-665997D01*
X581042Y-666115D01*
X581055Y-666232D01*
X581073Y-666349D01*
X581093Y-666466D01*
X581118Y-666582D01*
X581146Y-666697D01*
X581179Y-666810D01*
X581214Y-666923D01*
X581254Y-667035D01*
X581296Y-667145D01*
X581343Y-667254D01*
X581393Y-667362D01*
X581446Y-667467D01*
X581503Y-667571D01*
X581563Y-667673D01*
X581626Y-667773D01*
X581693Y-667871D01*
X581762Y-667967D01*
X581835Y-668060D01*
X581911Y-668151D01*
X581989Y-668240D01*
X582071Y-668326D01*
X582155Y-668409D01*
X582241Y-668490D01*
X582331Y-668567D01*
X582422Y-668642D01*
X582516Y-668714D01*
X582613Y-668783D01*
X582711Y-668848D01*
X582812Y-668911D01*
X582915Y-668970D01*
X583019Y-669026D01*
X583125Y-669078D01*
X583233Y-669127D01*
X583342Y-669172D01*
X583453Y-669214D01*
X583565Y-669252D01*
X586105Y-663855D02*
X586030Y-663779D01*
X585951Y-663704D01*
X585870Y-663633D01*
X585786Y-663564D01*
X585700Y-663499D01*
X585612Y-663437D01*
X585522Y-663377D01*
X585430Y-663321D01*
X585335Y-663268D01*
X585239Y-663219D01*
X585141Y-663173D01*
X585042Y-663130D01*
X584941Y-663091D01*
X584839Y-663056D01*
X584736Y-663024D01*
X584632Y-662996D01*
X584527Y-662971D01*
X584420Y-662950D01*
X584314Y-662933D01*
X584207Y-662920D01*
X584099Y-662911D01*
X583991Y-662905D01*
X583883Y-662903D01*
X586105Y-663855D02*
X592455Y-669253D01*
X592455Y-662903D01*
D12*
X539750Y-637540D02*
X539748Y-637640D01*
X539742Y-637739D01*
X539732Y-637839D01*
X539719Y-637937D01*
X539701Y-638036D01*
X539680Y-638133D01*
X539655Y-638229D01*
X539626Y-638325D01*
X539593Y-638419D01*
X539557Y-638512D01*
X539517Y-638603D01*
X539473Y-638693D01*
X539426Y-638781D01*
X539376Y-638867D01*
X539322Y-638951D01*
X539265Y-639033D01*
X539205Y-639112D01*
X539141Y-639190D01*
X539075Y-639264D01*
X539006Y-639336D01*
X538934Y-639405D01*
X538860Y-639471D01*
X538782Y-639535D01*
X538703Y-639595D01*
X538621Y-639652D01*
X538537Y-639706D01*
X538451Y-639756D01*
X538363Y-639803D01*
X538273Y-639847D01*
X538182Y-639887D01*
X538089Y-639923D01*
X537995Y-639956D01*
X537899Y-639985D01*
X537803Y-640010D01*
X537706Y-640031D01*
X537607Y-640049D01*
X537509Y-640062D01*
X537409Y-640072D01*
X537310Y-640078D01*
X537210Y-640080D01*
X539750Y-619760D02*
X539748Y-619660D01*
X539742Y-619561D01*
X539732Y-619461D01*
X539719Y-619363D01*
X539701Y-619264D01*
X539680Y-619167D01*
X539655Y-619071D01*
X539626Y-618975D01*
X539593Y-618881D01*
X539557Y-618788D01*
X539517Y-618697D01*
X539473Y-618607D01*
X539426Y-618519D01*
X539376Y-618433D01*
X539322Y-618349D01*
X539265Y-618267D01*
X539205Y-618188D01*
X539141Y-618110D01*
X539075Y-618036D01*
X539006Y-617964D01*
X538934Y-617895D01*
X538860Y-617829D01*
X538782Y-617765D01*
X538703Y-617705D01*
X538621Y-617648D01*
X538537Y-617594D01*
X538451Y-617544D01*
X538363Y-617497D01*
X538273Y-617453D01*
X538182Y-617413D01*
X538089Y-617377D01*
X537995Y-617344D01*
X537899Y-617315D01*
X537803Y-617290D01*
X537706Y-617269D01*
X537607Y-617251D01*
X537509Y-617238D01*
X537409Y-617228D01*
X537310Y-617222D01*
X537210Y-617220D01*
X478790Y-617220D02*
X478690Y-617222D01*
X478591Y-617228D01*
X478491Y-617238D01*
X478393Y-617251D01*
X478294Y-617269D01*
X478197Y-617290D01*
X478101Y-617315D01*
X478005Y-617344D01*
X477911Y-617377D01*
X477818Y-617413D01*
X477727Y-617453D01*
X477637Y-617497D01*
X477549Y-617544D01*
X477463Y-617594D01*
X477379Y-617648D01*
X477297Y-617705D01*
X477218Y-617765D01*
X477140Y-617829D01*
X477066Y-617895D01*
X476994Y-617964D01*
X476925Y-618036D01*
X476859Y-618110D01*
X476795Y-618188D01*
X476735Y-618267D01*
X476678Y-618349D01*
X476624Y-618433D01*
X476574Y-618519D01*
X476527Y-618607D01*
X476483Y-618697D01*
X476443Y-618788D01*
X476407Y-618881D01*
X476374Y-618975D01*
X476345Y-619071D01*
X476320Y-619167D01*
X476299Y-619264D01*
X476281Y-619363D01*
X476268Y-619461D01*
X476258Y-619561D01*
X476252Y-619660D01*
X476250Y-619760D01*
X476250Y-637540D02*
X476252Y-637640D01*
X476258Y-637739D01*
X476268Y-637839D01*
X476281Y-637937D01*
X476299Y-638036D01*
X476320Y-638133D01*
X476345Y-638229D01*
X476374Y-638325D01*
X476407Y-638419D01*
X476443Y-638512D01*
X476483Y-638603D01*
X476527Y-638693D01*
X476574Y-638781D01*
X476624Y-638867D01*
X476678Y-638951D01*
X476735Y-639033D01*
X476795Y-639112D01*
X476859Y-639190D01*
X476925Y-639264D01*
X476994Y-639336D01*
X477066Y-639405D01*
X477140Y-639471D01*
X477218Y-639535D01*
X477297Y-639595D01*
X477379Y-639652D01*
X477463Y-639706D01*
X477549Y-639756D01*
X477637Y-639803D01*
X477727Y-639847D01*
X477818Y-639887D01*
X477911Y-639923D01*
X478005Y-639956D01*
X478101Y-639985D01*
X478197Y-640010D01*
X478294Y-640031D01*
X478393Y-640049D01*
X478491Y-640062D01*
X478591Y-640072D01*
X478690Y-640078D01*
X478790Y-640080D01*
X539750Y-637540D02*
X539750Y-619760D01*
X537210Y-640080D02*
X533400Y-640080D01*
X532130Y-638810D01*
X533400Y-617220D02*
X537210Y-617220D01*
X533400Y-617220D02*
X532130Y-618490D01*
X483870Y-638810D02*
X482600Y-640080D01*
X483870Y-638810D02*
X532130Y-638810D01*
X483870Y-618490D02*
X482600Y-617220D01*
X483870Y-618490D02*
X532130Y-618490D01*
X482600Y-640080D02*
X478790Y-640080D01*
X478790Y-617220D02*
X482600Y-617220D01*
X476250Y-619760D02*
X476250Y-637540D01*
D10*
X520148Y-644525D02*
X520148Y-655955D01*
X520148Y-644525D02*
X523323Y-644525D01*
X523434Y-644527D01*
X523544Y-644533D01*
X523655Y-644542D01*
X523765Y-644556D01*
X523874Y-644573D01*
X523983Y-644594D01*
X524091Y-644619D01*
X524198Y-644648D01*
X524304Y-644680D01*
X524409Y-644716D01*
X524512Y-644756D01*
X524614Y-644799D01*
X524715Y-644846D01*
X524814Y-644897D01*
X524911Y-644950D01*
X525005Y-645007D01*
X525098Y-645068D01*
X525189Y-645131D01*
X525278Y-645198D01*
X525364Y-645268D01*
X525447Y-645341D01*
X525529Y-645416D01*
X525607Y-645494D01*
X525682Y-645576D01*
X525755Y-645659D01*
X525825Y-645745D01*
X525892Y-645834D01*
X525955Y-645925D01*
X526016Y-646018D01*
X526073Y-646113D01*
X526126Y-646209D01*
X526177Y-646308D01*
X526224Y-646409D01*
X526267Y-646511D01*
X526307Y-646614D01*
X526343Y-646719D01*
X526375Y-646825D01*
X526404Y-646932D01*
X526429Y-647040D01*
X526450Y-647149D01*
X526467Y-647258D01*
X526481Y-647368D01*
X526490Y-647479D01*
X526496Y-647589D01*
X526498Y-647700D01*
X526496Y-647811D01*
X526490Y-647921D01*
X526481Y-648032D01*
X526467Y-648142D01*
X526450Y-648251D01*
X526429Y-648360D01*
X526404Y-648468D01*
X526375Y-648575D01*
X526343Y-648681D01*
X526307Y-648786D01*
X526267Y-648889D01*
X526224Y-648991D01*
X526177Y-649092D01*
X526126Y-649191D01*
X526073Y-649288D01*
X526016Y-649382D01*
X525955Y-649475D01*
X525892Y-649566D01*
X525825Y-649655D01*
X525755Y-649741D01*
X525682Y-649824D01*
X525607Y-649906D01*
X525529Y-649984D01*
X525447Y-650059D01*
X525364Y-650132D01*
X525278Y-650202D01*
X525189Y-650269D01*
X525098Y-650332D01*
X525005Y-650393D01*
X524911Y-650450D01*
X524814Y-650503D01*
X524715Y-650554D01*
X524614Y-650601D01*
X524512Y-650644D01*
X524409Y-650684D01*
X524304Y-650720D01*
X524198Y-650752D01*
X524091Y-650781D01*
X523983Y-650806D01*
X523874Y-650827D01*
X523765Y-650844D01*
X523655Y-650858D01*
X523544Y-650867D01*
X523434Y-650873D01*
X523323Y-650875D01*
X520148Y-650875D01*
X523958Y-650875D02*
X526498Y-655955D01*
X531495Y-655955D02*
X535305Y-655955D01*
X535405Y-655953D01*
X535504Y-655947D01*
X535604Y-655937D01*
X535702Y-655924D01*
X535801Y-655906D01*
X535898Y-655885D01*
X535994Y-655860D01*
X536090Y-655831D01*
X536184Y-655798D01*
X536277Y-655762D01*
X536368Y-655722D01*
X536458Y-655678D01*
X536546Y-655631D01*
X536632Y-655581D01*
X536716Y-655527D01*
X536798Y-655470D01*
X536877Y-655410D01*
X536955Y-655346D01*
X537029Y-655280D01*
X537101Y-655211D01*
X537170Y-655139D01*
X537236Y-655065D01*
X537300Y-654987D01*
X537360Y-654908D01*
X537417Y-654826D01*
X537471Y-654742D01*
X537521Y-654656D01*
X537568Y-654568D01*
X537612Y-654478D01*
X537652Y-654387D01*
X537688Y-654294D01*
X537721Y-654200D01*
X537750Y-654104D01*
X537775Y-654008D01*
X537796Y-653911D01*
X537814Y-653812D01*
X537827Y-653714D01*
X537837Y-653614D01*
X537843Y-653515D01*
X537845Y-653415D01*
X537845Y-652145D01*
X537843Y-652045D01*
X537837Y-651946D01*
X537827Y-651846D01*
X537814Y-651748D01*
X537796Y-651649D01*
X537775Y-651552D01*
X537750Y-651456D01*
X537721Y-651360D01*
X537688Y-651266D01*
X537652Y-651173D01*
X537612Y-651082D01*
X537568Y-650992D01*
X537521Y-650904D01*
X537471Y-650818D01*
X537417Y-650734D01*
X537360Y-650652D01*
X537300Y-650573D01*
X537236Y-650495D01*
X537170Y-650421D01*
X537101Y-650349D01*
X537029Y-650280D01*
X536955Y-650214D01*
X536877Y-650150D01*
X536798Y-650090D01*
X536716Y-650033D01*
X536632Y-649979D01*
X536546Y-649929D01*
X536458Y-649882D01*
X536368Y-649838D01*
X536277Y-649798D01*
X536184Y-649762D01*
X536090Y-649729D01*
X535994Y-649700D01*
X535898Y-649675D01*
X535801Y-649654D01*
X535702Y-649636D01*
X535604Y-649623D01*
X535504Y-649613D01*
X535405Y-649607D01*
X535305Y-649605D01*
X531495Y-649605D01*
X531495Y-644525D01*
X537845Y-644525D01*
D16*
X471932Y-628650D03*
X544068Y-628650D03*
D17*
X400050Y-666750D02*
X361950Y-666750D01*
D18*
X400837Y-667588D02*
X399465Y-665759D01*
X399466Y-665759D02*
X400057Y-665300D01*
X400637Y-664827D01*
X401205Y-664340D01*
X401761Y-663839D01*
X402304Y-663325D01*
X402835Y-662798D01*
X403353Y-662258D01*
X403858Y-661705D01*
X404348Y-661140D01*
X404825Y-660563D01*
X405288Y-659975D01*
X405736Y-659376D01*
X406169Y-658765D01*
X406588Y-658145D01*
X406990Y-657514D01*
X407378Y-656874D01*
X407750Y-656225D01*
X408105Y-655566D01*
X408445Y-654899D01*
X408768Y-654224D01*
X409074Y-653541D01*
X409364Y-652851D01*
X409637Y-652155D01*
X409892Y-651451D01*
X410130Y-650742D01*
X410351Y-650027D01*
X410555Y-649307D01*
X410740Y-648582D01*
X410908Y-647853D01*
X411058Y-647119D01*
X411190Y-646383D01*
X411304Y-645643D01*
X411400Y-644901D01*
X411478Y-644157D01*
X411538Y-643411D01*
X411579Y-642664D01*
X411602Y-641916D01*
X411606Y-641167D01*
X411593Y-640419D01*
X411561Y-639671D01*
X411511Y-638925D01*
X411442Y-638180D01*
X411356Y-637436D01*
X411251Y-636695D01*
X411128Y-635957D01*
X410987Y-635222D01*
X410829Y-634491D01*
X410652Y-633764D01*
X410458Y-633041D01*
X410246Y-632323D01*
X410016Y-631611D01*
X409769Y-630905D01*
X409505Y-630204D01*
X409224Y-629511D01*
X408927Y-628824D01*
X408612Y-628145D01*
X408281Y-627474D01*
X407934Y-626811D01*
X407570Y-626157D01*
X407191Y-625512D01*
X406796Y-624877D01*
X406385Y-624251D01*
X405960Y-623635D01*
X405519Y-623030D01*
X405064Y-622436D01*
X404594Y-621854D01*
X404110Y-621283D01*
X403613Y-620724D01*
X403102Y-620177D01*
X402578Y-619643D01*
X402041Y-619122D01*
X401491Y-618614D01*
X400929Y-618120D01*
X400355Y-617640D01*
X399770Y-617174D01*
X399173Y-616722D01*
X398565Y-616285D01*
X397947Y-615863D01*
X397319Y-615456D01*
X396681Y-615065D01*
X396034Y-614690D01*
X395378Y-614330D01*
X394713Y-613987D01*
X394040Y-613660D01*
X393359Y-613349D01*
X392671Y-613055D01*
X391975Y-612779D01*
X391274Y-612519D01*
X390566Y-612276D01*
X389852Y-612051D01*
X389133Y-611843D01*
X388409Y-611653D01*
X387681Y-611481D01*
X386949Y-611327D01*
X386213Y-611190D01*
X385474Y-611072D01*
X384732Y-610971D01*
X383989Y-610889D01*
X383243Y-610825D01*
X382496Y-610780D01*
X381748Y-610752D01*
X381000Y-610743D01*
X380252Y-610752D01*
X379504Y-610780D01*
X378757Y-610825D01*
X378011Y-610889D01*
X377268Y-610971D01*
X376526Y-611072D01*
X375787Y-611190D01*
X375051Y-611327D01*
X374319Y-611481D01*
X373591Y-611653D01*
X372867Y-611843D01*
X372148Y-612051D01*
X371434Y-612276D01*
X370726Y-612519D01*
X370025Y-612779D01*
X369329Y-613055D01*
X368641Y-613349D01*
X367960Y-613660D01*
X367287Y-613987D01*
X366622Y-614330D01*
X365966Y-614690D01*
X365319Y-615065D01*
X364681Y-615456D01*
X364053Y-615863D01*
X363435Y-616285D01*
X362827Y-616722D01*
X362230Y-617174D01*
X361645Y-617640D01*
X361071Y-618120D01*
X360509Y-618614D01*
X359959Y-619122D01*
X359422Y-619643D01*
X358898Y-620177D01*
X358387Y-620724D01*
X357890Y-621283D01*
X357406Y-621854D01*
X356936Y-622436D01*
X356481Y-623030D01*
X356040Y-623635D01*
X355615Y-624251D01*
X355204Y-624877D01*
X354809Y-625512D01*
X354430Y-626157D01*
X354066Y-626811D01*
X353719Y-627474D01*
X353388Y-628145D01*
X353073Y-628824D01*
X352776Y-629511D01*
X352495Y-630204D01*
X352231Y-630905D01*
X351984Y-631611D01*
X351754Y-632323D01*
X351542Y-633041D01*
X351348Y-633764D01*
X351171Y-634491D01*
X351013Y-635222D01*
X350872Y-635957D01*
X350749Y-636695D01*
X350644Y-637436D01*
X350558Y-638180D01*
X350489Y-638925D01*
X350439Y-639671D01*
X350407Y-640419D01*
X350394Y-641167D01*
X350398Y-641916D01*
X350421Y-642664D01*
X350462Y-643411D01*
X350522Y-644157D01*
X350600Y-644901D01*
X350696Y-645643D01*
X350810Y-646383D01*
X350942Y-647119D01*
X351092Y-647853D01*
X351260Y-648582D01*
X351445Y-649307D01*
X351649Y-650027D01*
X351870Y-650742D01*
X352108Y-651451D01*
X352363Y-652155D01*
X352636Y-652851D01*
X352926Y-653541D01*
X353232Y-654224D01*
X353555Y-654899D01*
X353895Y-655566D01*
X354250Y-656225D01*
X354622Y-656874D01*
X355010Y-657514D01*
X355412Y-658145D01*
X355831Y-658765D01*
X356264Y-659376D01*
X356712Y-659975D01*
X357175Y-660563D01*
X357652Y-661140D01*
X358142Y-661705D01*
X358647Y-662258D01*
X359165Y-662798D01*
X359696Y-663325D01*
X360239Y-663839D01*
X360795Y-664340D01*
X361363Y-664827D01*
X361943Y-665300D01*
X362534Y-665759D01*
X361163Y-667588D01*
X360527Y-667095D01*
X359904Y-666587D01*
X359293Y-666063D01*
X358695Y-665525D01*
X358111Y-664973D01*
X357540Y-664406D01*
X356983Y-663826D01*
X356441Y-663232D01*
X355913Y-662625D01*
X355401Y-662005D01*
X354903Y-661373D01*
X354421Y-660729D01*
X353956Y-660073D01*
X353506Y-659406D01*
X353073Y-658728D01*
X352656Y-658040D01*
X352256Y-657342D01*
X351874Y-656635D01*
X351509Y-655918D01*
X351162Y-655193D01*
X350832Y-654459D01*
X350521Y-653717D01*
X350227Y-652968D01*
X349952Y-652213D01*
X349696Y-651450D01*
X349458Y-650682D01*
X349240Y-649908D01*
X349040Y-649129D01*
X348859Y-648345D01*
X348698Y-647557D01*
X348556Y-646765D01*
X348433Y-645970D01*
X348330Y-645173D01*
X348246Y-644373D01*
X348182Y-643571D01*
X348138Y-642768D01*
X348113Y-641964D01*
X348108Y-641160D01*
X348122Y-640355D01*
X348156Y-639552D01*
X348210Y-638749D01*
X348283Y-637948D01*
X348376Y-637149D01*
X348489Y-636353D01*
X348621Y-635560D01*
X348772Y-634770D01*
X348942Y-633984D01*
X349132Y-633202D01*
X349341Y-632425D01*
X349569Y-631654D01*
X349815Y-630888D01*
X350080Y-630129D01*
X350364Y-629376D01*
X350666Y-628631D01*
X350986Y-627893D01*
X351324Y-627163D01*
X351680Y-626441D01*
X352053Y-625729D01*
X352444Y-625026D01*
X352851Y-624333D01*
X353276Y-623649D01*
X353717Y-622977D01*
X354174Y-622315D01*
X354648Y-621665D01*
X355137Y-621027D01*
X355641Y-620400D01*
X356161Y-619786D01*
X356696Y-619186D01*
X357245Y-618598D01*
X357809Y-618024D01*
X358386Y-617464D01*
X358977Y-616918D01*
X359581Y-616387D01*
X360197Y-615871D01*
X360827Y-615370D01*
X361468Y-614884D01*
X362121Y-614414D01*
X362785Y-613961D01*
X363460Y-613524D01*
X364146Y-613103D01*
X364841Y-612699D01*
X365547Y-612313D01*
X366261Y-611944D01*
X366985Y-611592D01*
X367717Y-611258D01*
X368456Y-610943D01*
X369204Y-610645D01*
X369958Y-610366D01*
X370719Y-610105D01*
X371486Y-609863D01*
X372259Y-609640D01*
X373037Y-609436D01*
X373819Y-609250D01*
X374606Y-609084D01*
X375397Y-608938D01*
X376191Y-608810D01*
X376988Y-608703D01*
X377788Y-608614D01*
X378589Y-608545D01*
X379392Y-608496D01*
X380196Y-608467D01*
X381000Y-608457D01*
X381804Y-608467D01*
X382608Y-608496D01*
X383411Y-608545D01*
X384212Y-608614D01*
X385012Y-608703D01*
X385809Y-608810D01*
X386603Y-608938D01*
X387394Y-609084D01*
X388181Y-609250D01*
X388963Y-609436D01*
X389741Y-609640D01*
X390514Y-609863D01*
X391281Y-610105D01*
X392042Y-610366D01*
X392796Y-610645D01*
X393544Y-610943D01*
X394283Y-611258D01*
X395015Y-611592D01*
X395739Y-611944D01*
X396453Y-612313D01*
X397159Y-612699D01*
X397854Y-613103D01*
X398540Y-613524D01*
X399215Y-613961D01*
X399879Y-614414D01*
X400532Y-614884D01*
X401173Y-615370D01*
X401803Y-615871D01*
X402419Y-616387D01*
X403023Y-616918D01*
X403614Y-617464D01*
X404191Y-618024D01*
X404755Y-618598D01*
X405304Y-619186D01*
X405839Y-619786D01*
X406359Y-620400D01*
X406863Y-621027D01*
X407352Y-621665D01*
X407826Y-622315D01*
X408283Y-622977D01*
X408724Y-623649D01*
X409149Y-624333D01*
X409556Y-625026D01*
X409947Y-625729D01*
X410320Y-626441D01*
X410676Y-627163D01*
X411014Y-627893D01*
X411334Y-628631D01*
X411636Y-629376D01*
X411920Y-630129D01*
X412185Y-630888D01*
X412431Y-631654D01*
X412659Y-632425D01*
X412868Y-633202D01*
X413058Y-633984D01*
X413228Y-634770D01*
X413379Y-635560D01*
X413511Y-636353D01*
X413624Y-637149D01*
X413717Y-637948D01*
X413790Y-638749D01*
X413844Y-639552D01*
X413878Y-640355D01*
X413892Y-641160D01*
X413887Y-641964D01*
X413862Y-642768D01*
X413818Y-643571D01*
X413754Y-644373D01*
X413670Y-645173D01*
X413567Y-645970D01*
X413444Y-646765D01*
X413302Y-647557D01*
X413141Y-648345D01*
X412960Y-649129D01*
X412760Y-649908D01*
X412542Y-650682D01*
X412304Y-651450D01*
X412048Y-652213D01*
X411773Y-652968D01*
X411479Y-653717D01*
X411168Y-654459D01*
X410838Y-655193D01*
X410491Y-655918D01*
X410126Y-656635D01*
X409744Y-657342D01*
X409344Y-658040D01*
X408927Y-658728D01*
X408494Y-659406D01*
X408044Y-660073D01*
X407579Y-660729D01*
X407097Y-661373D01*
X406599Y-662005D01*
X406087Y-662625D01*
X405559Y-663232D01*
X405017Y-663826D01*
X404460Y-664406D01*
X403889Y-664973D01*
X403305Y-665525D01*
X402707Y-666063D01*
X402096Y-666587D01*
X401473Y-667095D01*
X400837Y-667588D01*
X400693Y-667396D01*
X401324Y-666907D01*
X401943Y-666402D01*
X402549Y-665883D01*
X403143Y-665348D01*
X403723Y-664800D01*
X404289Y-664237D01*
X404842Y-663661D01*
X405380Y-663071D01*
X405904Y-662469D01*
X406413Y-661853D01*
X406907Y-661226D01*
X407385Y-660587D01*
X407848Y-659936D01*
X408294Y-659274D01*
X408724Y-658601D01*
X409138Y-657918D01*
X409534Y-657225D01*
X409914Y-656523D01*
X410276Y-655811D01*
X410621Y-655091D01*
X410948Y-654363D01*
X411257Y-653626D01*
X411548Y-652883D01*
X411821Y-652133D01*
X412076Y-651376D01*
X412312Y-650613D01*
X412529Y-649845D01*
X412727Y-649071D01*
X412906Y-648293D01*
X413067Y-647511D01*
X413208Y-646725D01*
X413329Y-645936D01*
X413432Y-645144D01*
X413515Y-644350D01*
X413579Y-643554D01*
X413623Y-642757D01*
X413647Y-641959D01*
X413652Y-641160D01*
X413638Y-640362D01*
X413604Y-639564D01*
X413551Y-638768D01*
X413478Y-637973D01*
X413386Y-637180D01*
X413274Y-636389D01*
X413143Y-635601D01*
X412993Y-634817D01*
X412824Y-634037D01*
X412635Y-633261D01*
X412428Y-632490D01*
X412202Y-631724D01*
X411957Y-630964D01*
X411694Y-630210D01*
X411412Y-629463D01*
X411113Y-628723D01*
X410795Y-627990D01*
X410459Y-627266D01*
X410106Y-626550D01*
X409736Y-625843D01*
X409348Y-625145D01*
X408943Y-624456D01*
X408522Y-623778D01*
X408084Y-623111D01*
X407630Y-622454D01*
X407160Y-621808D01*
X406674Y-621175D01*
X406173Y-620553D01*
X405657Y-619944D01*
X405127Y-619347D01*
X404581Y-618764D01*
X404022Y-618194D01*
X403449Y-617638D01*
X402862Y-617096D01*
X402263Y-616569D01*
X401651Y-616056D01*
X401026Y-615559D01*
X400389Y-615077D01*
X399741Y-614611D01*
X399082Y-614161D01*
X398412Y-613727D01*
X397731Y-613309D01*
X397040Y-612908D01*
X396340Y-612525D01*
X395631Y-612158D01*
X394913Y-611809D01*
X394186Y-611478D01*
X393452Y-611164D01*
X392710Y-610869D01*
X391961Y-610592D01*
X391206Y-610333D01*
X390445Y-610093D01*
X389678Y-609871D01*
X388905Y-609668D01*
X388128Y-609485D01*
X387347Y-609320D01*
X386562Y-609174D01*
X385774Y-609048D01*
X384982Y-608941D01*
X384189Y-608853D01*
X383393Y-608785D01*
X382596Y-608736D01*
X381798Y-608707D01*
X381000Y-608697D01*
X380202Y-608707D01*
X379404Y-608736D01*
X378607Y-608785D01*
X377811Y-608853D01*
X377018Y-608941D01*
X376226Y-609048D01*
X375438Y-609174D01*
X374653Y-609320D01*
X373872Y-609485D01*
X373095Y-609668D01*
X372322Y-609871D01*
X371555Y-610093D01*
X370794Y-610333D01*
X370039Y-610592D01*
X369290Y-610869D01*
X368548Y-611164D01*
X367814Y-611478D01*
X367087Y-611809D01*
X366369Y-612158D01*
X365660Y-612525D01*
X364960Y-612908D01*
X364269Y-613309D01*
X363588Y-613727D01*
X362918Y-614161D01*
X362259Y-614611D01*
X361611Y-615077D01*
X360974Y-615559D01*
X360349Y-616056D01*
X359737Y-616569D01*
X359138Y-617096D01*
X358551Y-617638D01*
X357978Y-618194D01*
X357419Y-618764D01*
X356873Y-619347D01*
X356343Y-619944D01*
X355827Y-620553D01*
X355326Y-621175D01*
X354840Y-621808D01*
X354370Y-622454D01*
X353916Y-623111D01*
X353478Y-623778D01*
X353057Y-624456D01*
X352652Y-625145D01*
X352264Y-625843D01*
X351894Y-626550D01*
X351541Y-627266D01*
X351205Y-627990D01*
X350887Y-628723D01*
X350588Y-629463D01*
X350306Y-630210D01*
X350043Y-630964D01*
X349798Y-631724D01*
X349572Y-632490D01*
X349365Y-633261D01*
X349176Y-634037D01*
X349007Y-634817D01*
X348857Y-635601D01*
X348726Y-636389D01*
X348614Y-637180D01*
X348522Y-637973D01*
X348449Y-638768D01*
X348396Y-639564D01*
X348362Y-640362D01*
X348348Y-641160D01*
X348353Y-641959D01*
X348377Y-642757D01*
X348421Y-643554D01*
X348485Y-644350D01*
X348568Y-645144D01*
X348671Y-645936D01*
X348792Y-646725D01*
X348933Y-647511D01*
X349094Y-648293D01*
X349273Y-649071D01*
X349471Y-649845D01*
X349688Y-650613D01*
X349924Y-651376D01*
X350179Y-652133D01*
X350452Y-652883D01*
X350743Y-653626D01*
X351052Y-654363D01*
X351379Y-655091D01*
X351724Y-655811D01*
X352086Y-656523D01*
X352466Y-657225D01*
X352862Y-657918D01*
X353276Y-658601D01*
X353706Y-659274D01*
X354152Y-659936D01*
X354615Y-660587D01*
X355093Y-661226D01*
X355587Y-661853D01*
X356096Y-662469D01*
X356620Y-663071D01*
X357158Y-663661D01*
X357711Y-664237D01*
X358277Y-664800D01*
X358857Y-665348D01*
X359451Y-665883D01*
X360057Y-666402D01*
X360676Y-666907D01*
X361307Y-667396D01*
X361451Y-667204D01*
X360824Y-666718D01*
X360210Y-666217D01*
X359608Y-665702D01*
X359019Y-665171D01*
X358444Y-664627D01*
X357881Y-664068D01*
X357333Y-663496D01*
X356798Y-662911D01*
X356278Y-662313D01*
X355773Y-661702D01*
X355283Y-661079D01*
X354808Y-660445D01*
X354349Y-659798D01*
X353906Y-659141D01*
X353479Y-658474D01*
X353069Y-657795D01*
X352675Y-657108D01*
X352298Y-656410D01*
X351939Y-655704D01*
X351596Y-654989D01*
X351272Y-654266D01*
X350965Y-653536D01*
X350676Y-652798D01*
X350405Y-652053D01*
X350152Y-651301D01*
X349918Y-650544D01*
X349703Y-649782D01*
X349506Y-649014D01*
X349328Y-648241D01*
X349169Y-647465D01*
X349029Y-646685D01*
X348908Y-645902D01*
X348806Y-645116D01*
X348724Y-644327D01*
X348661Y-643537D01*
X348617Y-642746D01*
X348593Y-641954D01*
X348588Y-641161D01*
X348602Y-640369D01*
X348636Y-639577D01*
X348689Y-638786D01*
X348761Y-637997D01*
X348853Y-637210D01*
X348963Y-636425D01*
X349093Y-635643D01*
X349242Y-634865D01*
X349411Y-634090D01*
X349597Y-633320D01*
X349803Y-632554D01*
X350028Y-631794D01*
X350270Y-631040D01*
X350532Y-630292D01*
X350811Y-629550D01*
X351109Y-628815D01*
X351424Y-628088D01*
X351757Y-627369D01*
X352108Y-626658D01*
X352476Y-625956D01*
X352861Y-625263D01*
X353262Y-624580D01*
X353681Y-623907D01*
X354115Y-623244D01*
X354566Y-622592D01*
X355033Y-621952D01*
X355515Y-621323D01*
X356012Y-620705D01*
X356524Y-620101D01*
X357051Y-619509D01*
X357592Y-618930D01*
X358147Y-618364D01*
X358716Y-617812D01*
X359298Y-617274D01*
X359894Y-616751D01*
X360501Y-616242D01*
X361121Y-615748D01*
X361753Y-615270D01*
X362397Y-614807D01*
X363051Y-614360D01*
X363716Y-613930D01*
X364392Y-613515D01*
X365078Y-613117D01*
X365773Y-612737D01*
X366477Y-612373D01*
X367190Y-612026D01*
X367911Y-611697D01*
X368640Y-611386D01*
X369376Y-611093D01*
X370119Y-610818D01*
X370869Y-610561D01*
X371625Y-610322D01*
X372386Y-610102D01*
X373153Y-609901D01*
X373924Y-609719D01*
X374700Y-609555D01*
X375479Y-609411D01*
X376262Y-609285D01*
X377047Y-609179D01*
X377835Y-609092D01*
X378624Y-609024D01*
X379415Y-608976D01*
X380207Y-608947D01*
X381000Y-608937D01*
X381793Y-608947D01*
X382585Y-608976D01*
X383376Y-609024D01*
X384165Y-609092D01*
X384953Y-609179D01*
X385738Y-609285D01*
X386521Y-609411D01*
X387300Y-609555D01*
X388076Y-609719D01*
X388847Y-609901D01*
X389614Y-610102D01*
X390375Y-610322D01*
X391131Y-610561D01*
X391881Y-610818D01*
X392624Y-611093D01*
X393360Y-611386D01*
X394089Y-611697D01*
X394810Y-612026D01*
X395523Y-612373D01*
X396227Y-612737D01*
X396922Y-613117D01*
X397608Y-613515D01*
X398284Y-613930D01*
X398949Y-614360D01*
X399603Y-614807D01*
X400247Y-615270D01*
X400879Y-615748D01*
X401499Y-616242D01*
X402106Y-616751D01*
X402702Y-617274D01*
X403284Y-617812D01*
X403853Y-618364D01*
X404408Y-618930D01*
X404949Y-619509D01*
X405476Y-620101D01*
X405988Y-620705D01*
X406485Y-621323D01*
X406967Y-621952D01*
X407434Y-622592D01*
X407885Y-623244D01*
X408319Y-623907D01*
X408738Y-624580D01*
X409139Y-625263D01*
X409524Y-625956D01*
X409892Y-626658D01*
X410243Y-627369D01*
X410576Y-628088D01*
X410891Y-628815D01*
X411189Y-629550D01*
X411468Y-630292D01*
X411730Y-631040D01*
X411972Y-631794D01*
X412197Y-632554D01*
X412403Y-633320D01*
X412589Y-634090D01*
X412758Y-634865D01*
X412907Y-635643D01*
X413037Y-636425D01*
X413147Y-637210D01*
X413239Y-637997D01*
X413311Y-638786D01*
X413364Y-639577D01*
X413398Y-640369D01*
X413412Y-641161D01*
X413407Y-641954D01*
X413383Y-642746D01*
X413339Y-643537D01*
X413276Y-644327D01*
X413194Y-645116D01*
X413092Y-645902D01*
X412971Y-646685D01*
X412831Y-647465D01*
X412672Y-648241D01*
X412494Y-649014D01*
X412297Y-649782D01*
X412082Y-650544D01*
X411848Y-651301D01*
X411595Y-652053D01*
X411324Y-652798D01*
X411035Y-653536D01*
X410728Y-654266D01*
X410404Y-654989D01*
X410061Y-655704D01*
X409702Y-656410D01*
X409325Y-657108D01*
X408931Y-657795D01*
X408521Y-658474D01*
X408094Y-659141D01*
X407651Y-659798D01*
X407192Y-660445D01*
X406717Y-661079D01*
X406227Y-661702D01*
X405722Y-662313D01*
X405202Y-662911D01*
X404667Y-663496D01*
X404119Y-664068D01*
X403556Y-664627D01*
X402981Y-665171D01*
X402392Y-665702D01*
X401790Y-666217D01*
X401176Y-666718D01*
X400549Y-667204D01*
X400405Y-667012D01*
X401027Y-666530D01*
X401637Y-666033D01*
X402234Y-665521D01*
X402818Y-664994D01*
X403390Y-664454D01*
X403948Y-663899D01*
X404493Y-663332D01*
X405023Y-662751D01*
X405539Y-662157D01*
X406041Y-661551D01*
X406527Y-660932D01*
X406998Y-660302D01*
X407454Y-659661D01*
X407894Y-659009D01*
X408317Y-658346D01*
X408725Y-657673D01*
X409116Y-656990D01*
X409490Y-656298D01*
X409846Y-655597D01*
X410186Y-654888D01*
X410508Y-654170D01*
X410813Y-653445D01*
X411100Y-652712D01*
X411369Y-651973D01*
X411619Y-651227D01*
X411852Y-650475D01*
X412066Y-649718D01*
X412261Y-648956D01*
X412438Y-648190D01*
X412595Y-647419D01*
X412734Y-646645D01*
X412854Y-645867D01*
X412955Y-645087D01*
X413037Y-644305D01*
X413100Y-643520D01*
X413143Y-642735D01*
X413167Y-641949D01*
X413172Y-641162D01*
X413158Y-640375D01*
X413125Y-639589D01*
X413072Y-638805D01*
X413000Y-638021D01*
X412909Y-637240D01*
X412799Y-636461D01*
X412670Y-635685D01*
X412522Y-634912D01*
X412355Y-634143D01*
X412170Y-633379D01*
X411966Y-632619D01*
X411743Y-631865D01*
X411502Y-631116D01*
X411243Y-630373D01*
X410965Y-629637D01*
X410670Y-628908D01*
X410357Y-628186D01*
X410026Y-627472D01*
X409678Y-626767D01*
X409313Y-626070D01*
X408931Y-625382D01*
X408532Y-624704D01*
X408117Y-624036D01*
X407685Y-623378D01*
X407238Y-622731D01*
X406775Y-622095D01*
X406296Y-621471D01*
X405803Y-620858D01*
X405294Y-620258D01*
X404771Y-619670D01*
X404234Y-619095D01*
X403683Y-618534D01*
X403119Y-617986D01*
X402541Y-617452D01*
X401950Y-616933D01*
X401347Y-616428D01*
X400731Y-615938D01*
X400104Y-615463D01*
X399465Y-615004D01*
X398816Y-614560D01*
X398155Y-614132D01*
X397485Y-613721D01*
X396804Y-613326D01*
X396114Y-612948D01*
X395415Y-612587D01*
X394708Y-612243D01*
X393992Y-611917D01*
X393269Y-611608D01*
X392538Y-611317D01*
X391800Y-611044D01*
X391056Y-610789D01*
X390306Y-610552D01*
X389550Y-610334D01*
X388789Y-610134D01*
X388023Y-609953D01*
X387254Y-609791D01*
X386480Y-609647D01*
X385703Y-609523D01*
X384924Y-609417D01*
X384142Y-609331D01*
X383358Y-609264D01*
X382573Y-609215D01*
X381787Y-609187D01*
X381000Y-609177D01*
X380213Y-609187D01*
X379427Y-609215D01*
X378642Y-609264D01*
X377858Y-609331D01*
X377076Y-609417D01*
X376297Y-609523D01*
X375520Y-609647D01*
X374746Y-609791D01*
X373977Y-609953D01*
X373211Y-610134D01*
X372450Y-610334D01*
X371694Y-610552D01*
X370944Y-610789D01*
X370200Y-611044D01*
X369462Y-611317D01*
X368731Y-611608D01*
X368008Y-611917D01*
X367292Y-612243D01*
X366585Y-612587D01*
X365886Y-612948D01*
X365196Y-613326D01*
X364515Y-613721D01*
X363845Y-614132D01*
X363184Y-614560D01*
X362535Y-615004D01*
X361896Y-615463D01*
X361269Y-615938D01*
X360653Y-616428D01*
X360050Y-616933D01*
X359459Y-617452D01*
X358881Y-617986D01*
X358317Y-618534D01*
X357766Y-619095D01*
X357229Y-619670D01*
X356706Y-620258D01*
X356197Y-620858D01*
X355704Y-621471D01*
X355225Y-622095D01*
X354762Y-622731D01*
X354315Y-623378D01*
X353883Y-624036D01*
X353468Y-624704D01*
X353069Y-625382D01*
X352687Y-626070D01*
X352322Y-626767D01*
X351974Y-627472D01*
X351643Y-628186D01*
X351330Y-628908D01*
X351035Y-629637D01*
X350757Y-630373D01*
X350498Y-631116D01*
X350257Y-631865D01*
X350034Y-632619D01*
X349830Y-633379D01*
X349645Y-634143D01*
X349478Y-634912D01*
X349330Y-635685D01*
X349201Y-636461D01*
X349091Y-637240D01*
X349000Y-638021D01*
X348928Y-638805D01*
X348875Y-639589D01*
X348842Y-640375D01*
X348828Y-641162D01*
X348833Y-641949D01*
X348857Y-642735D01*
X348900Y-643520D01*
X348963Y-644305D01*
X349045Y-645087D01*
X349146Y-645867D01*
X349266Y-646645D01*
X349405Y-647419D01*
X349562Y-648190D01*
X349739Y-648956D01*
X349934Y-649718D01*
X350148Y-650475D01*
X350381Y-651227D01*
X350631Y-651973D01*
X350900Y-652712D01*
X351187Y-653445D01*
X351492Y-654170D01*
X351814Y-654888D01*
X352154Y-655597D01*
X352510Y-656298D01*
X352884Y-656990D01*
X353275Y-657673D01*
X353683Y-658346D01*
X354106Y-659009D01*
X354546Y-659661D01*
X355002Y-660302D01*
X355473Y-660932D01*
X355959Y-661551D01*
X356461Y-662157D01*
X356977Y-662751D01*
X357507Y-663332D01*
X358052Y-663899D01*
X358610Y-664454D01*
X359182Y-664994D01*
X359766Y-665521D01*
X360363Y-666033D01*
X360973Y-666530D01*
X361595Y-667012D01*
X361739Y-666820D01*
X361122Y-666341D01*
X360517Y-665848D01*
X359924Y-665340D01*
X359344Y-664817D01*
X358776Y-664281D01*
X358222Y-663731D01*
X357682Y-663167D01*
X357155Y-662590D01*
X356643Y-662001D01*
X356146Y-661399D01*
X355663Y-660786D01*
X355195Y-660160D01*
X354743Y-659524D01*
X354307Y-658876D01*
X353886Y-658219D01*
X353482Y-657551D01*
X353094Y-656873D01*
X352723Y-656186D01*
X352368Y-655490D01*
X352031Y-654786D01*
X351711Y-654074D01*
X351409Y-653354D01*
X351124Y-652627D01*
X350858Y-651893D01*
X350609Y-651153D01*
X350378Y-650407D01*
X350166Y-649655D01*
X349972Y-648899D01*
X349797Y-648138D01*
X349640Y-647373D01*
X349502Y-646605D01*
X349383Y-645833D01*
X349283Y-645059D01*
X349202Y-644282D01*
X349140Y-643504D01*
X349097Y-642724D01*
X349073Y-641944D01*
X349068Y-641163D01*
X349082Y-640382D01*
X349115Y-639602D01*
X349167Y-638823D01*
X349238Y-638045D01*
X349329Y-637270D01*
X349438Y-636497D01*
X349566Y-635726D01*
X349713Y-634960D01*
X349879Y-634197D01*
X350063Y-633438D01*
X350265Y-632684D01*
X350487Y-631935D01*
X350726Y-631192D01*
X350983Y-630455D01*
X351259Y-629724D01*
X351552Y-629000D01*
X351863Y-628284D01*
X352191Y-627575D01*
X352536Y-626875D01*
X352899Y-626184D01*
X353278Y-625501D01*
X353674Y-624828D01*
X354086Y-624165D01*
X354514Y-623512D01*
X354958Y-622870D01*
X355418Y-622238D01*
X355892Y-621619D01*
X356382Y-621011D01*
X356887Y-620415D01*
X357406Y-619832D01*
X357939Y-619261D01*
X358486Y-618704D01*
X359047Y-618160D01*
X359620Y-617630D01*
X360207Y-617115D01*
X360805Y-616614D01*
X361416Y-616127D01*
X362039Y-615656D01*
X362673Y-615200D01*
X363317Y-614760D01*
X363973Y-614335D01*
X364638Y-613927D01*
X365314Y-613535D01*
X365999Y-613160D01*
X366692Y-612802D01*
X367394Y-612460D01*
X368105Y-612136D01*
X368823Y-611830D01*
X369548Y-611541D01*
X370281Y-611270D01*
X371019Y-611017D01*
X371764Y-610782D01*
X372514Y-610565D01*
X373269Y-610367D01*
X374029Y-610187D01*
X374793Y-610026D01*
X375561Y-609884D01*
X376332Y-609760D01*
X377106Y-609655D01*
X377882Y-609570D01*
X378660Y-609503D01*
X379439Y-609455D01*
X380219Y-609427D01*
X381000Y-609417D01*
X381781Y-609427D01*
X382561Y-609455D01*
X383340Y-609503D01*
X384118Y-609570D01*
X384894Y-609655D01*
X385668Y-609760D01*
X386439Y-609884D01*
X387207Y-610026D01*
X387971Y-610187D01*
X388731Y-610367D01*
X389486Y-610565D01*
X390236Y-610782D01*
X390981Y-611017D01*
X391719Y-611270D01*
X392452Y-611541D01*
X393177Y-611830D01*
X393895Y-612136D01*
X394606Y-612460D01*
X395308Y-612802D01*
X396001Y-613160D01*
X396686Y-613535D01*
X397362Y-613927D01*
X398027Y-614335D01*
X398683Y-614760D01*
X399327Y-615200D01*
X399961Y-615656D01*
X400584Y-616127D01*
X401195Y-616614D01*
X401793Y-617115D01*
X402380Y-617630D01*
X402953Y-618160D01*
X403514Y-618704D01*
X404061Y-619261D01*
X404594Y-619832D01*
X405113Y-620415D01*
X405618Y-621011D01*
X406108Y-621619D01*
X406582Y-622238D01*
X407042Y-622870D01*
X407486Y-623512D01*
X407914Y-624165D01*
X408326Y-624828D01*
X408722Y-625501D01*
X409101Y-626184D01*
X409464Y-626875D01*
X409809Y-627575D01*
X410137Y-628284D01*
X410448Y-629000D01*
X410741Y-629724D01*
X411017Y-630455D01*
X411274Y-631192D01*
X411513Y-631935D01*
X411735Y-632684D01*
X411937Y-633438D01*
X412121Y-634197D01*
X412287Y-634960D01*
X412434Y-635726D01*
X412562Y-636497D01*
X412671Y-637270D01*
X412762Y-638045D01*
X412833Y-638823D01*
X412885Y-639602D01*
X412918Y-640382D01*
X412932Y-641163D01*
X412927Y-641944D01*
X412903Y-642724D01*
X412860Y-643504D01*
X412798Y-644282D01*
X412717Y-645059D01*
X412617Y-645833D01*
X412498Y-646605D01*
X412360Y-647373D01*
X412203Y-648138D01*
X412028Y-648899D01*
X411834Y-649655D01*
X411622Y-650407D01*
X411391Y-651153D01*
X411142Y-651893D01*
X410876Y-652627D01*
X410591Y-653354D01*
X410289Y-654074D01*
X409969Y-654786D01*
X409632Y-655490D01*
X409277Y-656186D01*
X408906Y-656873D01*
X408518Y-657551D01*
X408114Y-658219D01*
X407693Y-658876D01*
X407257Y-659524D01*
X406805Y-660160D01*
X406337Y-660786D01*
X405854Y-661399D01*
X405357Y-662001D01*
X404845Y-662590D01*
X404318Y-663167D01*
X403778Y-663731D01*
X403224Y-664281D01*
X402656Y-664817D01*
X402076Y-665340D01*
X401483Y-665848D01*
X400878Y-666341D01*
X400261Y-666820D01*
X400117Y-666628D01*
X400730Y-666153D01*
X401330Y-665663D01*
X401918Y-665159D01*
X402494Y-664640D01*
X403057Y-664108D01*
X403607Y-663562D01*
X404143Y-663002D01*
X404666Y-662430D01*
X405174Y-661845D01*
X405668Y-661248D01*
X406147Y-660639D01*
X406611Y-660018D01*
X407060Y-659387D01*
X407493Y-658744D01*
X407911Y-658091D01*
X408312Y-657428D01*
X408697Y-656756D01*
X409065Y-656074D01*
X409417Y-655383D01*
X409751Y-654684D01*
X410069Y-653977D01*
X410369Y-653263D01*
X410651Y-652541D01*
X410916Y-651813D01*
X411163Y-651078D01*
X411392Y-650338D01*
X411602Y-649592D01*
X411795Y-648842D01*
X411969Y-648086D01*
X412124Y-647327D01*
X412261Y-646564D01*
X412379Y-645799D01*
X412479Y-645030D01*
X412559Y-644259D01*
X412621Y-643487D01*
X412664Y-642713D01*
X412688Y-641939D01*
X412692Y-641164D01*
X412678Y-640389D01*
X412645Y-639615D01*
X412594Y-638841D01*
X412523Y-638070D01*
X412433Y-637300D01*
X412325Y-636533D01*
X412198Y-635768D01*
X412052Y-635007D01*
X411887Y-634250D01*
X411705Y-633497D01*
X411503Y-632748D01*
X411284Y-632005D01*
X411046Y-631268D01*
X410791Y-630536D01*
X410518Y-629811D01*
X410227Y-629093D01*
X409918Y-628382D01*
X409593Y-627679D01*
X409250Y-626984D01*
X408890Y-626297D01*
X408514Y-625620D01*
X408121Y-624952D01*
X407712Y-624294D01*
X407287Y-623646D01*
X406846Y-623008D01*
X406390Y-622382D01*
X405919Y-621767D01*
X405432Y-621163D01*
X404932Y-620572D01*
X404416Y-619993D01*
X403887Y-619427D01*
X403344Y-618874D01*
X402788Y-618334D01*
X402219Y-617808D01*
X401637Y-617297D01*
X401043Y-616799D01*
X400436Y-616317D01*
X399819Y-615849D01*
X399190Y-615396D01*
X398550Y-614959D01*
X397899Y-614538D01*
X397238Y-614133D01*
X396568Y-613744D01*
X395889Y-613372D01*
X395200Y-613016D01*
X394503Y-612677D01*
X393798Y-612356D01*
X393085Y-612052D01*
X392365Y-611765D01*
X391639Y-611496D01*
X390906Y-611245D01*
X390167Y-611012D01*
X389422Y-610797D01*
X388673Y-610600D01*
X387918Y-610421D01*
X387160Y-610261D01*
X386398Y-610120D01*
X385633Y-609997D01*
X384865Y-609894D01*
X384095Y-609808D01*
X383323Y-609742D01*
X382549Y-609695D01*
X381775Y-609666D01*
X381000Y-609657D01*
X380225Y-609666D01*
X379451Y-609695D01*
X378677Y-609742D01*
X377905Y-609808D01*
X377135Y-609894D01*
X376367Y-609997D01*
X375602Y-610120D01*
X374840Y-610261D01*
X374082Y-610421D01*
X373327Y-610600D01*
X372578Y-610797D01*
X371833Y-611012D01*
X371094Y-611245D01*
X370361Y-611496D01*
X369635Y-611765D01*
X368915Y-612052D01*
X368202Y-612356D01*
X367497Y-612677D01*
X366800Y-613016D01*
X366111Y-613372D01*
X365432Y-613744D01*
X364762Y-614133D01*
X364101Y-614538D01*
X363450Y-614959D01*
X362810Y-615396D01*
X362181Y-615849D01*
X361564Y-616317D01*
X360957Y-616799D01*
X360363Y-617297D01*
X359781Y-617808D01*
X359212Y-618334D01*
X358656Y-618874D01*
X358113Y-619427D01*
X357584Y-619993D01*
X357068Y-620572D01*
X356568Y-621163D01*
X356081Y-621767D01*
X355610Y-622382D01*
X355154Y-623008D01*
X354713Y-623646D01*
X354288Y-624294D01*
X353879Y-624952D01*
X353486Y-625620D01*
X353110Y-626297D01*
X352750Y-626984D01*
X352407Y-627679D01*
X352082Y-628382D01*
X351773Y-629093D01*
X351482Y-629811D01*
X351209Y-630536D01*
X350954Y-631268D01*
X350716Y-632005D01*
X350497Y-632748D01*
X350295Y-633497D01*
X350113Y-634250D01*
X349948Y-635007D01*
X349802Y-635768D01*
X349675Y-636533D01*
X349567Y-637300D01*
X349477Y-638070D01*
X349406Y-638841D01*
X349355Y-639615D01*
X349322Y-640389D01*
X349308Y-641164D01*
X349312Y-641939D01*
X349336Y-642713D01*
X349379Y-643487D01*
X349441Y-644259D01*
X349521Y-645030D01*
X349621Y-645799D01*
X349739Y-646564D01*
X349876Y-647327D01*
X350031Y-648086D01*
X350205Y-648842D01*
X350398Y-649592D01*
X350608Y-650338D01*
X350837Y-651078D01*
X351084Y-651813D01*
X351349Y-652541D01*
X351631Y-653263D01*
X351931Y-653977D01*
X352249Y-654684D01*
X352583Y-655383D01*
X352935Y-656074D01*
X353303Y-656756D01*
X353688Y-657428D01*
X354089Y-658091D01*
X354507Y-658744D01*
X354940Y-659387D01*
X355389Y-660018D01*
X355853Y-660639D01*
X356332Y-661248D01*
X356826Y-661845D01*
X357334Y-662430D01*
X357857Y-663002D01*
X358393Y-663562D01*
X358943Y-664108D01*
X359506Y-664640D01*
X360082Y-665159D01*
X360670Y-665663D01*
X361270Y-666153D01*
X361883Y-666628D01*
X362027Y-666436D01*
X361419Y-665965D01*
X360823Y-665479D01*
X360239Y-664978D01*
X359668Y-664463D01*
X359109Y-663935D01*
X358563Y-663393D01*
X358031Y-662838D01*
X357513Y-662270D01*
X357008Y-661689D01*
X356518Y-661097D01*
X356043Y-660492D01*
X355582Y-659876D01*
X355137Y-659249D01*
X354707Y-658612D01*
X354293Y-657964D01*
X353895Y-657306D01*
X353513Y-656638D01*
X353147Y-655962D01*
X352798Y-655276D01*
X352466Y-654583D01*
X352151Y-653881D01*
X351853Y-653172D01*
X351573Y-652456D01*
X351310Y-651733D01*
X351065Y-651004D01*
X350838Y-650269D01*
X350629Y-649529D01*
X350438Y-648784D01*
X350266Y-648035D01*
X350111Y-647281D01*
X349976Y-646524D01*
X349858Y-645764D01*
X349760Y-645002D01*
X349680Y-644237D01*
X349619Y-643470D01*
X349576Y-642702D01*
X349552Y-641933D01*
X349548Y-641164D01*
X349561Y-640396D01*
X349594Y-639627D01*
X349646Y-638860D01*
X349716Y-638094D01*
X349805Y-637330D01*
X349913Y-636569D01*
X350039Y-635810D01*
X350183Y-635055D01*
X350347Y-634303D01*
X350528Y-633556D01*
X350728Y-632813D01*
X350945Y-632076D01*
X351181Y-631343D01*
X351435Y-630617D01*
X351706Y-629898D01*
X351995Y-629185D01*
X352301Y-628479D01*
X352624Y-627782D01*
X352964Y-627092D01*
X353321Y-626411D01*
X353695Y-625739D01*
X354085Y-625076D01*
X354491Y-624422D01*
X354912Y-623779D01*
X355350Y-623147D01*
X355803Y-622525D01*
X356270Y-621915D01*
X356753Y-621316D01*
X357250Y-620729D01*
X357761Y-620155D01*
X358286Y-619593D01*
X358825Y-619044D01*
X359377Y-618508D01*
X359942Y-617987D01*
X360519Y-617479D01*
X361109Y-616985D01*
X361711Y-616506D01*
X362324Y-616042D01*
X362948Y-615593D01*
X363584Y-615159D01*
X364229Y-614741D01*
X364885Y-614339D01*
X365550Y-613953D01*
X366224Y-613584D01*
X366908Y-613231D01*
X367599Y-612895D01*
X368299Y-612575D01*
X369006Y-612273D01*
X369721Y-611989D01*
X370442Y-611722D01*
X371170Y-611473D01*
X371903Y-611241D01*
X372642Y-611028D01*
X373386Y-610833D01*
X374134Y-610656D01*
X374887Y-610497D01*
X375643Y-610357D01*
X376402Y-610235D01*
X377164Y-610132D01*
X377929Y-610047D01*
X378695Y-609982D01*
X379462Y-609935D01*
X380231Y-609906D01*
X381000Y-609897D01*
X381769Y-609906D01*
X382538Y-609935D01*
X383305Y-609982D01*
X384071Y-610047D01*
X384836Y-610132D01*
X385598Y-610235D01*
X386357Y-610357D01*
X387113Y-610497D01*
X387866Y-610656D01*
X388614Y-610833D01*
X389358Y-611028D01*
X390097Y-611241D01*
X390830Y-611473D01*
X391558Y-611722D01*
X392279Y-611989D01*
X392994Y-612273D01*
X393701Y-612575D01*
X394401Y-612895D01*
X395092Y-613231D01*
X395776Y-613584D01*
X396450Y-613953D01*
X397115Y-614339D01*
X397771Y-614741D01*
X398416Y-615159D01*
X399052Y-615593D01*
X399676Y-616042D01*
X400289Y-616506D01*
X400891Y-616985D01*
X401481Y-617479D01*
X402058Y-617987D01*
X402623Y-618508D01*
X403175Y-619044D01*
X403714Y-619593D01*
X404239Y-620155D01*
X404750Y-620729D01*
X405247Y-621316D01*
X405730Y-621915D01*
X406197Y-622525D01*
X406650Y-623147D01*
X407088Y-623779D01*
X407509Y-624422D01*
X407915Y-625076D01*
X408305Y-625739D01*
X408679Y-626411D01*
X409036Y-627092D01*
X409376Y-627782D01*
X409699Y-628479D01*
X410005Y-629185D01*
X410294Y-629898D01*
X410565Y-630617D01*
X410819Y-631343D01*
X411055Y-632076D01*
X411272Y-632813D01*
X411472Y-633556D01*
X411653Y-634303D01*
X411817Y-635055D01*
X411961Y-635810D01*
X412087Y-636569D01*
X412195Y-637330D01*
X412284Y-638094D01*
X412354Y-638860D01*
X412406Y-639627D01*
X412439Y-640396D01*
X412452Y-641164D01*
X412448Y-641933D01*
X412424Y-642702D01*
X412381Y-643470D01*
X412320Y-644237D01*
X412240Y-645002D01*
X412142Y-645764D01*
X412024Y-646524D01*
X411889Y-647281D01*
X411734Y-648035D01*
X411562Y-648784D01*
X411371Y-649529D01*
X411162Y-650269D01*
X410935Y-651004D01*
X410690Y-651733D01*
X410427Y-652456D01*
X410147Y-653172D01*
X409849Y-653881D01*
X409534Y-654583D01*
X409202Y-655276D01*
X408853Y-655962D01*
X408487Y-656638D01*
X408105Y-657306D01*
X407707Y-657964D01*
X407293Y-658612D01*
X406863Y-659249D01*
X406418Y-659876D01*
X405957Y-660492D01*
X405482Y-661097D01*
X404992Y-661689D01*
X404487Y-662270D01*
X403969Y-662838D01*
X403437Y-663393D01*
X402891Y-663935D01*
X402332Y-664463D01*
X401761Y-664978D01*
X401177Y-665479D01*
X400581Y-665965D01*
X399973Y-666436D01*
X399829Y-666244D01*
X400432Y-665776D01*
X401024Y-665294D01*
X401603Y-664797D01*
X402170Y-664286D01*
X402725Y-663762D01*
X403266Y-663224D01*
X403794Y-662673D01*
X404309Y-662110D01*
X404809Y-661533D01*
X405296Y-660945D01*
X405767Y-660345D01*
X406224Y-659734D01*
X406666Y-659112D01*
X407093Y-658479D01*
X407504Y-657836D01*
X407899Y-657183D01*
X408278Y-656521D01*
X408641Y-655849D01*
X408987Y-655169D01*
X409317Y-654481D01*
X409629Y-653785D01*
X409925Y-653081D01*
X410203Y-652370D01*
X410464Y-651653D01*
X410707Y-650930D01*
X410932Y-650200D01*
X411139Y-649466D01*
X411329Y-648727D01*
X411500Y-647983D01*
X411653Y-647235D01*
X411788Y-646484D01*
X411904Y-645730D01*
X412002Y-644973D01*
X412081Y-644214D01*
X412142Y-643453D01*
X412184Y-642691D01*
X412208Y-641928D01*
X412212Y-641165D01*
X412199Y-640402D01*
X412166Y-639640D01*
X412115Y-638878D01*
X412045Y-638118D01*
X411957Y-637360D01*
X411850Y-636605D01*
X411725Y-635852D01*
X411581Y-635102D01*
X411419Y-634356D01*
X411239Y-633615D01*
X411041Y-632878D01*
X410825Y-632146D01*
X410591Y-631419D01*
X410339Y-630699D01*
X410070Y-629985D01*
X409784Y-629277D01*
X409480Y-628577D01*
X409159Y-627885D01*
X408822Y-627200D01*
X408467Y-626524D01*
X408097Y-625857D01*
X407710Y-625199D01*
X407307Y-624551D01*
X406888Y-623913D01*
X406454Y-623285D01*
X406005Y-622668D01*
X405541Y-622063D01*
X405062Y-621468D01*
X404569Y-620886D01*
X404061Y-620316D01*
X403540Y-619758D01*
X403006Y-619214D01*
X402458Y-618682D01*
X401897Y-618165D01*
X401324Y-617661D01*
X400739Y-617171D01*
X400142Y-616695D01*
X399533Y-616235D01*
X398914Y-615789D01*
X398283Y-615359D01*
X397643Y-614944D01*
X396992Y-614545D01*
X396332Y-614162D01*
X395663Y-613795D01*
X394985Y-613445D01*
X394298Y-613112D01*
X393604Y-612795D01*
X392902Y-612495D01*
X392193Y-612213D01*
X391477Y-611948D01*
X390755Y-611701D01*
X390027Y-611471D01*
X389294Y-611259D01*
X388556Y-611065D01*
X387813Y-610890D01*
X387067Y-610732D01*
X386316Y-610593D01*
X385563Y-610472D01*
X384806Y-610370D01*
X384048Y-610286D01*
X383288Y-610221D01*
X382526Y-610174D01*
X381763Y-610146D01*
X381000Y-610137D01*
X380237Y-610146D01*
X379474Y-610174D01*
X378712Y-610221D01*
X377952Y-610286D01*
X377194Y-610370D01*
X376437Y-610472D01*
X375684Y-610593D01*
X374933Y-610732D01*
X374187Y-610890D01*
X373444Y-611065D01*
X372706Y-611259D01*
X371973Y-611471D01*
X371245Y-611701D01*
X370523Y-611948D01*
X369807Y-612213D01*
X369098Y-612495D01*
X368396Y-612795D01*
X367702Y-613112D01*
X367015Y-613445D01*
X366337Y-613795D01*
X365668Y-614162D01*
X365008Y-614545D01*
X364357Y-614944D01*
X363717Y-615359D01*
X363086Y-615789D01*
X362467Y-616235D01*
X361858Y-616695D01*
X361261Y-617171D01*
X360676Y-617661D01*
X360103Y-618165D01*
X359542Y-618682D01*
X358994Y-619214D01*
X358460Y-619758D01*
X357939Y-620316D01*
X357431Y-620886D01*
X356938Y-621468D01*
X356459Y-622063D01*
X355995Y-622668D01*
X355546Y-623285D01*
X355112Y-623913D01*
X354693Y-624551D01*
X354290Y-625199D01*
X353903Y-625857D01*
X353533Y-626524D01*
X353178Y-627200D01*
X352841Y-627885D01*
X352520Y-628577D01*
X352216Y-629277D01*
X351930Y-629985D01*
X351661Y-630699D01*
X351409Y-631419D01*
X351175Y-632146D01*
X350959Y-632878D01*
X350761Y-633615D01*
X350581Y-634356D01*
X350419Y-635102D01*
X350275Y-635852D01*
X350150Y-636605D01*
X350043Y-637360D01*
X349955Y-638118D01*
X349885Y-638878D01*
X349834Y-639640D01*
X349801Y-640402D01*
X349788Y-641165D01*
X349792Y-641928D01*
X349816Y-642691D01*
X349858Y-643453D01*
X349919Y-644214D01*
X349998Y-644973D01*
X350096Y-645730D01*
X350212Y-646484D01*
X350347Y-647235D01*
X350500Y-647983D01*
X350671Y-648727D01*
X350861Y-649466D01*
X351068Y-650200D01*
X351293Y-650930D01*
X351536Y-651653D01*
X351797Y-652370D01*
X352075Y-653081D01*
X352371Y-653785D01*
X352683Y-654481D01*
X353013Y-655169D01*
X353359Y-655849D01*
X353722Y-656521D01*
X354101Y-657183D01*
X354496Y-657836D01*
X354907Y-658479D01*
X355334Y-659112D01*
X355776Y-659734D01*
X356233Y-660345D01*
X356704Y-660945D01*
X357191Y-661533D01*
X357691Y-662110D01*
X358206Y-662673D01*
X358734Y-663224D01*
X359275Y-663762D01*
X359830Y-664286D01*
X360397Y-664797D01*
X360976Y-665294D01*
X361568Y-665776D01*
X362171Y-666244D01*
X362315Y-666052D01*
X361716Y-665588D01*
X361130Y-665109D01*
X360555Y-664616D01*
X359992Y-664109D01*
X359442Y-663589D01*
X358905Y-663055D01*
X358380Y-662509D01*
X357870Y-661949D01*
X357373Y-661378D01*
X356891Y-660794D01*
X356423Y-660199D01*
X355969Y-659592D01*
X355531Y-658975D01*
X355107Y-658347D01*
X354699Y-657709D01*
X354307Y-657061D01*
X353931Y-656403D01*
X353571Y-655737D01*
X353228Y-655062D01*
X352901Y-654379D01*
X352591Y-653688D01*
X352297Y-652990D01*
X352021Y-652285D01*
X351763Y-651573D01*
X351522Y-650855D01*
X351298Y-650132D01*
X351092Y-649403D01*
X350904Y-648669D01*
X350734Y-647931D01*
X350582Y-647189D01*
X350449Y-646444D01*
X350333Y-645696D01*
X350236Y-644945D01*
X350158Y-644191D01*
X350097Y-643436D01*
X350056Y-642680D01*
X350032Y-641923D01*
X350028Y-641166D01*
X350041Y-640409D01*
X350074Y-639652D01*
X350124Y-638897D01*
X350194Y-638143D01*
X350281Y-637390D01*
X350387Y-636640D01*
X350511Y-635893D01*
X350654Y-635150D01*
X350815Y-634410D01*
X350993Y-633674D01*
X351190Y-632942D01*
X351404Y-632216D01*
X351637Y-631495D01*
X351886Y-630780D01*
X352153Y-630072D01*
X352438Y-629370D01*
X352739Y-628675D01*
X353058Y-627988D01*
X353393Y-627309D01*
X353744Y-626638D01*
X354112Y-625976D01*
X354496Y-625323D01*
X354896Y-624680D01*
X355311Y-624047D01*
X355742Y-623424D01*
X356187Y-622812D01*
X356648Y-622211D01*
X357123Y-621621D01*
X357613Y-621043D01*
X358116Y-620477D01*
X358633Y-619924D01*
X359164Y-619384D01*
X359707Y-618857D01*
X360264Y-618343D01*
X360832Y-617843D01*
X361413Y-617357D01*
X362006Y-616885D01*
X362609Y-616428D01*
X363224Y-615986D01*
X363850Y-615559D01*
X364485Y-615147D01*
X365131Y-614751D01*
X365786Y-614371D01*
X366450Y-614007D01*
X367123Y-613660D01*
X367804Y-613329D01*
X368493Y-613014D01*
X369190Y-612717D01*
X369893Y-612437D01*
X370603Y-612174D01*
X371320Y-611929D01*
X372042Y-611701D01*
X372770Y-611491D01*
X373502Y-611298D01*
X374239Y-611124D01*
X374980Y-610968D01*
X375725Y-610830D01*
X376472Y-610710D01*
X377223Y-610608D01*
X377976Y-610525D01*
X378730Y-610460D01*
X379486Y-610414D01*
X380243Y-610386D01*
X381000Y-610377D01*
X381757Y-610386D01*
X382514Y-610414D01*
X383270Y-610460D01*
X384024Y-610525D01*
X384777Y-610608D01*
X385528Y-610710D01*
X386275Y-610830D01*
X387020Y-610968D01*
X387761Y-611124D01*
X388498Y-611298D01*
X389230Y-611491D01*
X389958Y-611701D01*
X390680Y-611929D01*
X391397Y-612174D01*
X392107Y-612437D01*
X392810Y-612717D01*
X393507Y-613014D01*
X394196Y-613329D01*
X394877Y-613660D01*
X395550Y-614007D01*
X396214Y-614371D01*
X396869Y-614751D01*
X397515Y-615147D01*
X398150Y-615559D01*
X398776Y-615986D01*
X399391Y-616428D01*
X399994Y-616885D01*
X400587Y-617357D01*
X401168Y-617843D01*
X401736Y-618343D01*
X402293Y-618857D01*
X402836Y-619384D01*
X403367Y-619924D01*
X403884Y-620477D01*
X404387Y-621043D01*
X404877Y-621621D01*
X405352Y-622211D01*
X405813Y-622812D01*
X406258Y-623424D01*
X406689Y-624047D01*
X407104Y-624680D01*
X407504Y-625323D01*
X407888Y-625976D01*
X408256Y-626638D01*
X408607Y-627309D01*
X408942Y-627988D01*
X409261Y-628675D01*
X409562Y-629370D01*
X409847Y-630072D01*
X410114Y-630780D01*
X410363Y-631495D01*
X410596Y-632216D01*
X410810Y-632942D01*
X411007Y-633674D01*
X411185Y-634410D01*
X411346Y-635150D01*
X411489Y-635893D01*
X411613Y-636640D01*
X411719Y-637390D01*
X411806Y-638143D01*
X411876Y-638897D01*
X411926Y-639652D01*
X411959Y-640409D01*
X411972Y-641166D01*
X411968Y-641923D01*
X411944Y-642680D01*
X411903Y-643436D01*
X411842Y-644191D01*
X411764Y-644945D01*
X411667Y-645696D01*
X411551Y-646444D01*
X411418Y-647189D01*
X411266Y-647931D01*
X411096Y-648669D01*
X410908Y-649403D01*
X410702Y-650132D01*
X410478Y-650855D01*
X410237Y-651573D01*
X409979Y-652285D01*
X409703Y-652990D01*
X409409Y-653688D01*
X409099Y-654379D01*
X408772Y-655062D01*
X408429Y-655737D01*
X408069Y-656403D01*
X407693Y-657061D01*
X407301Y-657709D01*
X406893Y-658347D01*
X406469Y-658975D01*
X406031Y-659592D01*
X405577Y-660199D01*
X405109Y-660794D01*
X404627Y-661378D01*
X404130Y-661949D01*
X403620Y-662509D01*
X403095Y-663055D01*
X402558Y-663589D01*
X402008Y-664109D01*
X401445Y-664616D01*
X400870Y-665109D01*
X400284Y-665588D01*
X399685Y-666052D01*
X399541Y-665860D01*
X400135Y-665399D01*
X400717Y-664924D01*
X401288Y-664435D01*
X401846Y-663932D01*
X402392Y-663416D01*
X402925Y-662886D01*
X403445Y-662344D01*
X403951Y-661789D01*
X404444Y-661222D01*
X404923Y-660643D01*
X405388Y-660052D01*
X405838Y-659450D01*
X406273Y-658837D01*
X406693Y-658214D01*
X407097Y-657581D01*
X407486Y-656938D01*
X407859Y-656286D01*
X408217Y-655625D01*
X408557Y-654955D01*
X408882Y-654278D01*
X409190Y-653592D01*
X409480Y-652899D01*
X409754Y-652199D01*
X410011Y-651493D01*
X410250Y-650781D01*
X410472Y-650063D01*
X410676Y-649340D01*
X410863Y-648612D01*
X411031Y-647880D01*
X411182Y-647143D01*
X411315Y-646404D01*
X411429Y-645661D01*
X411525Y-644916D01*
X411603Y-644169D01*
X411663Y-643420D01*
X411705Y-642669D01*
X411728Y-641918D01*
X411732Y-641167D01*
X411719Y-640416D01*
X411687Y-639665D01*
X411636Y-638915D01*
X411568Y-638167D01*
X411481Y-637420D01*
X411376Y-636676D01*
X411252Y-635935D01*
X411111Y-635197D01*
X410951Y-634463D01*
X410774Y-633733D01*
X410579Y-633007D01*
X410366Y-632286D01*
X410136Y-631571D01*
X409888Y-630862D01*
X409623Y-630159D01*
X409341Y-629462D01*
X409042Y-628773D01*
X408726Y-628091D01*
X408393Y-627417D01*
X408045Y-626752D01*
X407680Y-626095D01*
X407299Y-625447D01*
X406902Y-624809D01*
X406490Y-624181D01*
X406062Y-623563D01*
X405620Y-622955D01*
X405163Y-622359D01*
X404691Y-621774D01*
X404206Y-621200D01*
X403706Y-620639D01*
X403193Y-620090D01*
X402667Y-619554D01*
X402127Y-619031D01*
X401575Y-618521D01*
X401011Y-618025D01*
X400435Y-617542D01*
X399847Y-617074D01*
X399248Y-616621D01*
X398638Y-616182D01*
X398017Y-615758D01*
X397386Y-615350D01*
X396746Y-614957D01*
X396096Y-614580D01*
X395437Y-614219D01*
X394769Y-613874D01*
X394093Y-613546D01*
X393410Y-613234D01*
X392719Y-612939D01*
X392021Y-612661D01*
X391316Y-612400D01*
X390605Y-612157D01*
X389888Y-611930D01*
X389167Y-611722D01*
X388440Y-611531D01*
X387709Y-611358D01*
X386973Y-611203D01*
X386234Y-611066D01*
X385492Y-610947D01*
X384748Y-610846D01*
X384001Y-610764D01*
X383252Y-610700D01*
X382502Y-610654D01*
X381751Y-610626D01*
X381000Y-610617D01*
X380249Y-610626D01*
X379498Y-610654D01*
X378748Y-610700D01*
X377999Y-610764D01*
X377252Y-610846D01*
X376508Y-610947D01*
X375766Y-611066D01*
X375027Y-611203D01*
X374291Y-611358D01*
X373560Y-611531D01*
X372833Y-611722D01*
X372112Y-611930D01*
X371395Y-612157D01*
X370684Y-612400D01*
X369979Y-612661D01*
X369281Y-612939D01*
X368590Y-613234D01*
X367907Y-613546D01*
X367231Y-613874D01*
X366563Y-614219D01*
X365904Y-614580D01*
X365254Y-614957D01*
X364614Y-615350D01*
X363983Y-615758D01*
X363362Y-616182D01*
X362752Y-616621D01*
X362153Y-617074D01*
X361565Y-617542D01*
X360989Y-618025D01*
X360425Y-618521D01*
X359873Y-619031D01*
X359333Y-619554D01*
X358807Y-620090D01*
X358294Y-620639D01*
X357794Y-621200D01*
X357309Y-621774D01*
X356837Y-622359D01*
X356380Y-622955D01*
X355938Y-623563D01*
X355510Y-624181D01*
X355098Y-624809D01*
X354701Y-625447D01*
X354320Y-626095D01*
X353955Y-626752D01*
X353607Y-627417D01*
X353274Y-628091D01*
X352958Y-628773D01*
X352659Y-629462D01*
X352377Y-630159D01*
X352112Y-630862D01*
X351864Y-631571D01*
X351634Y-632286D01*
X351421Y-633007D01*
X351226Y-633733D01*
X351049Y-634463D01*
X350889Y-635197D01*
X350748Y-635935D01*
X350624Y-636676D01*
X350519Y-637420D01*
X350432Y-638167D01*
X350364Y-638915D01*
X350313Y-639665D01*
X350281Y-640416D01*
X350268Y-641167D01*
X350272Y-641918D01*
X350295Y-642669D01*
X350337Y-643420D01*
X350397Y-644169D01*
X350475Y-644916D01*
X350571Y-645661D01*
X350685Y-646404D01*
X350818Y-647143D01*
X350969Y-647880D01*
X351137Y-648612D01*
X351324Y-649340D01*
X351528Y-650063D01*
X351750Y-650781D01*
X351989Y-651493D01*
X352246Y-652199D01*
X352520Y-652899D01*
X352810Y-653592D01*
X353118Y-654278D01*
X353443Y-654955D01*
X353783Y-655625D01*
X354141Y-656286D01*
X354514Y-656938D01*
X354903Y-657581D01*
X355307Y-658214D01*
X355727Y-658837D01*
X356162Y-659450D01*
X356612Y-660052D01*
X357077Y-660643D01*
X357556Y-661222D01*
X358049Y-661789D01*
X358555Y-662344D01*
X359075Y-662886D01*
X359608Y-663416D01*
X360154Y-663932D01*
X360712Y-664435D01*
X361283Y-664924D01*
X361865Y-665399D01*
X362459Y-665860D01*
D12*
X355600Y-641350D02*
X355608Y-640727D01*
X355631Y-640104D01*
X355669Y-639481D01*
X355722Y-638860D01*
X355791Y-638241D01*
X355875Y-637623D01*
X355974Y-637008D01*
X356088Y-636395D01*
X356217Y-635785D01*
X356361Y-635178D01*
X356520Y-634575D01*
X356694Y-633977D01*
X356882Y-633382D01*
X357085Y-632793D01*
X357302Y-632209D01*
X357533Y-631630D01*
X357779Y-631057D01*
X358039Y-630490D01*
X358312Y-629930D01*
X358599Y-629377D01*
X358900Y-628830D01*
X359214Y-628292D01*
X359541Y-627761D01*
X359881Y-627239D01*
X360233Y-626724D01*
X360599Y-626219D01*
X360976Y-625723D01*
X361366Y-625236D01*
X361767Y-624759D01*
X362180Y-624292D01*
X362604Y-623836D01*
X363039Y-623389D01*
X363486Y-622954D01*
X363942Y-622530D01*
X364409Y-622117D01*
X364886Y-621716D01*
X365373Y-621326D01*
X365869Y-620949D01*
X366374Y-620583D01*
X366889Y-620231D01*
X367411Y-619891D01*
X367942Y-619564D01*
X368480Y-619250D01*
X369027Y-618949D01*
X369580Y-618662D01*
X370140Y-618389D01*
X370707Y-618129D01*
X371280Y-617883D01*
X371859Y-617652D01*
X372443Y-617435D01*
X373032Y-617232D01*
X373627Y-617044D01*
X374225Y-616870D01*
X374828Y-616711D01*
X375435Y-616567D01*
X376045Y-616438D01*
X376658Y-616324D01*
X377273Y-616225D01*
X377891Y-616141D01*
X378510Y-616072D01*
X379131Y-616019D01*
X379754Y-615981D01*
X380377Y-615958D01*
X381000Y-615950D01*
X381623Y-615958D01*
X382246Y-615981D01*
X382869Y-616019D01*
X383490Y-616072D01*
X384109Y-616141D01*
X384727Y-616225D01*
X385342Y-616324D01*
X385955Y-616438D01*
X386565Y-616567D01*
X387172Y-616711D01*
X387775Y-616870D01*
X388373Y-617044D01*
X388968Y-617232D01*
X389557Y-617435D01*
X390141Y-617652D01*
X390720Y-617883D01*
X391293Y-618129D01*
X391860Y-618389D01*
X392420Y-618662D01*
X392973Y-618949D01*
X393520Y-619250D01*
X394058Y-619564D01*
X394589Y-619891D01*
X395111Y-620231D01*
X395626Y-620583D01*
X396131Y-620949D01*
X396627Y-621326D01*
X397114Y-621716D01*
X397591Y-622117D01*
X398058Y-622530D01*
X398514Y-622954D01*
X398961Y-623389D01*
X399396Y-623836D01*
X399820Y-624292D01*
X400233Y-624759D01*
X400634Y-625236D01*
X401024Y-625723D01*
X401401Y-626219D01*
X401767Y-626724D01*
X402119Y-627239D01*
X402459Y-627761D01*
X402786Y-628292D01*
X403100Y-628830D01*
X403401Y-629377D01*
X403688Y-629930D01*
X403961Y-630490D01*
X404221Y-631057D01*
X404467Y-631630D01*
X404698Y-632209D01*
X404915Y-632793D01*
X405118Y-633382D01*
X405306Y-633977D01*
X405480Y-634575D01*
X405639Y-635178D01*
X405783Y-635785D01*
X405912Y-636395D01*
X406026Y-637008D01*
X406125Y-637623D01*
X406209Y-638241D01*
X406278Y-638860D01*
X406331Y-639481D01*
X406369Y-640104D01*
X406392Y-640727D01*
X406400Y-641350D01*
X406392Y-641973D01*
X406369Y-642596D01*
X406331Y-643219D01*
X406278Y-643840D01*
X406209Y-644459D01*
X406125Y-645077D01*
X406026Y-645692D01*
X405912Y-646305D01*
X405783Y-646915D01*
X405639Y-647522D01*
X405480Y-648125D01*
X405306Y-648723D01*
X405118Y-649318D01*
X404915Y-649907D01*
X404698Y-650491D01*
X404467Y-651070D01*
X404221Y-651643D01*
X403961Y-652210D01*
X403688Y-652770D01*
X403401Y-653323D01*
X403100Y-653870D01*
X402786Y-654408D01*
X402459Y-654939D01*
X402119Y-655461D01*
X401767Y-655976D01*
X401401Y-656481D01*
X401024Y-656977D01*
X400634Y-657464D01*
X400233Y-657941D01*
X399820Y-658408D01*
X399396Y-658864D01*
X398961Y-659311D01*
X398514Y-659746D01*
X398058Y-660170D01*
X397591Y-660583D01*
X397114Y-660984D01*
X396627Y-661374D01*
X396131Y-661751D01*
X395626Y-662117D01*
X395111Y-662469D01*
X394589Y-662809D01*
X394058Y-663136D01*
X393520Y-663450D01*
X392973Y-663751D01*
X392420Y-664038D01*
X391860Y-664311D01*
X391293Y-664571D01*
X390720Y-664817D01*
X390141Y-665048D01*
X389557Y-665265D01*
X388968Y-665468D01*
X388373Y-665656D01*
X387775Y-665830D01*
X387172Y-665989D01*
X386565Y-666133D01*
X385955Y-666262D01*
X385342Y-666376D01*
X384727Y-666475D01*
X384109Y-666559D01*
X383490Y-666628D01*
X382869Y-666681D01*
X382246Y-666719D01*
X381623Y-666742D01*
X381000Y-666750D01*
X380377Y-666742D01*
X379754Y-666719D01*
X379131Y-666681D01*
X378510Y-666628D01*
X377891Y-666559D01*
X377273Y-666475D01*
X376658Y-666376D01*
X376045Y-666262D01*
X375435Y-666133D01*
X374828Y-665989D01*
X374225Y-665830D01*
X373627Y-665656D01*
X373032Y-665468D01*
X372443Y-665265D01*
X371859Y-665048D01*
X371280Y-664817D01*
X370707Y-664571D01*
X370140Y-664311D01*
X369580Y-664038D01*
X369027Y-663751D01*
X368480Y-663450D01*
X367942Y-663136D01*
X367411Y-662809D01*
X366889Y-662469D01*
X366374Y-662117D01*
X365869Y-661751D01*
X365373Y-661374D01*
X364886Y-660984D01*
X364409Y-660583D01*
X363942Y-660170D01*
X363486Y-659746D01*
X363039Y-659311D01*
X362604Y-658864D01*
X362180Y-658408D01*
X361767Y-657941D01*
X361366Y-657464D01*
X360976Y-656977D01*
X360599Y-656481D01*
X360233Y-655976D01*
X359881Y-655461D01*
X359541Y-654939D01*
X359214Y-654408D01*
X358900Y-653870D01*
X358599Y-653323D01*
X358312Y-652770D01*
X358039Y-652210D01*
X357779Y-651643D01*
X357533Y-651070D01*
X357302Y-650491D01*
X357085Y-649907D01*
X356882Y-649318D01*
X356694Y-648723D01*
X356520Y-648125D01*
X356361Y-647522D01*
X356217Y-646915D01*
X356088Y-646305D01*
X355974Y-645692D01*
X355875Y-645077D01*
X355791Y-644459D01*
X355722Y-643840D01*
X355669Y-643219D01*
X355631Y-642596D01*
X355608Y-641973D01*
X355600Y-641350D01*
D10*
X386969Y-711683D02*
X398399Y-711683D01*
X398399Y-706603D01*
X398399Y-701777D02*
X398399Y-696697D01*
X398399Y-701777D02*
X386969Y-701777D01*
X386969Y-696697D01*
X392049Y-697967D02*
X392049Y-701777D01*
X386969Y-691896D02*
X398399Y-691896D01*
X386969Y-691896D02*
X386969Y-688721D01*
X386971Y-688610D01*
X386977Y-688500D01*
X386986Y-688389D01*
X387000Y-688279D01*
X387017Y-688170D01*
X387038Y-688061D01*
X387063Y-687953D01*
X387092Y-687846D01*
X387124Y-687740D01*
X387160Y-687635D01*
X387200Y-687532D01*
X387243Y-687430D01*
X387290Y-687329D01*
X387341Y-687230D01*
X387394Y-687134D01*
X387451Y-687039D01*
X387512Y-686946D01*
X387575Y-686855D01*
X387642Y-686766D01*
X387712Y-686680D01*
X387785Y-686597D01*
X387860Y-686515D01*
X387938Y-686437D01*
X388020Y-686362D01*
X388103Y-686289D01*
X388189Y-686219D01*
X388278Y-686152D01*
X388369Y-686089D01*
X388462Y-686028D01*
X388557Y-685971D01*
X388653Y-685918D01*
X388752Y-685867D01*
X388853Y-685820D01*
X388955Y-685777D01*
X389058Y-685737D01*
X389163Y-685701D01*
X389269Y-685669D01*
X389376Y-685640D01*
X389484Y-685615D01*
X389593Y-685594D01*
X389702Y-685577D01*
X389812Y-685563D01*
X389923Y-685554D01*
X390033Y-685548D01*
X390144Y-685546D01*
X395224Y-685546D01*
X395335Y-685548D01*
X395445Y-685554D01*
X395556Y-685563D01*
X395666Y-685577D01*
X395775Y-685594D01*
X395884Y-685615D01*
X395992Y-685640D01*
X396099Y-685669D01*
X396205Y-685701D01*
X396310Y-685737D01*
X396413Y-685777D01*
X396515Y-685820D01*
X396616Y-685867D01*
X396715Y-685918D01*
X396812Y-685971D01*
X396906Y-686028D01*
X396999Y-686089D01*
X397090Y-686152D01*
X397179Y-686219D01*
X397265Y-686289D01*
X397348Y-686362D01*
X397430Y-686437D01*
X397508Y-686515D01*
X397583Y-686597D01*
X397656Y-686680D01*
X397726Y-686766D01*
X397793Y-686855D01*
X397856Y-686946D01*
X397917Y-687039D01*
X397974Y-687134D01*
X398027Y-687230D01*
X398078Y-687329D01*
X398125Y-687430D01*
X398168Y-687532D01*
X398208Y-687635D01*
X398244Y-687740D01*
X398276Y-687846D01*
X398305Y-687953D01*
X398330Y-688061D01*
X398351Y-688170D01*
X398368Y-688279D01*
X398382Y-688389D01*
X398391Y-688500D01*
X398397Y-688610D01*
X398399Y-688721D01*
X398399Y-691896D01*
X389509Y-680085D02*
X386969Y-676910D01*
X398399Y-676910D01*
X398399Y-680085D02*
X398399Y-673735D01*
D17*
X474850Y-988300D02*
X495850Y-988300D01*
X495850Y-1046300D02*
X495850Y-1097300D01*
X495850Y-999300D02*
X495850Y-988300D01*
X405850Y-988300D02*
X405850Y-1097300D01*
X405850Y-988300D02*
X424850Y-988300D01*
X405850Y-1097300D02*
X495850Y-1097300D01*
D11*
X399542Y-1129792D02*
X387858Y-1129792D01*
X387858Y-1126546D01*
X387860Y-1126433D01*
X387866Y-1126320D01*
X387876Y-1126207D01*
X387890Y-1126094D01*
X387907Y-1125982D01*
X387929Y-1125871D01*
X387954Y-1125761D01*
X387984Y-1125651D01*
X388017Y-1125543D01*
X388054Y-1125436D01*
X388094Y-1125330D01*
X388139Y-1125226D01*
X388187Y-1125123D01*
X388238Y-1125022D01*
X388293Y-1124923D01*
X388351Y-1124826D01*
X388413Y-1124731D01*
X388478Y-1124638D01*
X388546Y-1124548D01*
X388617Y-1124460D01*
X388692Y-1124374D01*
X388769Y-1124291D01*
X388849Y-1124211D01*
X388932Y-1124134D01*
X389018Y-1124059D01*
X389106Y-1123988D01*
X389196Y-1123920D01*
X389289Y-1123855D01*
X389384Y-1123793D01*
X389481Y-1123735D01*
X389580Y-1123680D01*
X389681Y-1123629D01*
X389784Y-1123581D01*
X389888Y-1123536D01*
X389994Y-1123496D01*
X390101Y-1123459D01*
X390209Y-1123426D01*
X390319Y-1123396D01*
X390429Y-1123371D01*
X390540Y-1123349D01*
X390652Y-1123332D01*
X390765Y-1123318D01*
X390878Y-1123308D01*
X390991Y-1123302D01*
X391104Y-1123300D01*
X391104Y-1123301D02*
X396296Y-1123301D01*
X396296Y-1123300D02*
X396409Y-1123302D01*
X396522Y-1123308D01*
X396635Y-1123318D01*
X396748Y-1123332D01*
X396860Y-1123349D01*
X396971Y-1123371D01*
X397081Y-1123396D01*
X397191Y-1123426D01*
X397299Y-1123459D01*
X397406Y-1123496D01*
X397512Y-1123536D01*
X397616Y-1123581D01*
X397719Y-1123629D01*
X397820Y-1123680D01*
X397919Y-1123735D01*
X398016Y-1123793D01*
X398111Y-1123855D01*
X398204Y-1123920D01*
X398294Y-1123988D01*
X398382Y-1124059D01*
X398468Y-1124134D01*
X398551Y-1124211D01*
X398631Y-1124291D01*
X398708Y-1124374D01*
X398783Y-1124460D01*
X398854Y-1124548D01*
X398922Y-1124638D01*
X398987Y-1124731D01*
X399049Y-1124826D01*
X399107Y-1124923D01*
X399162Y-1125022D01*
X399213Y-1125123D01*
X399261Y-1125226D01*
X399306Y-1125330D01*
X399346Y-1125436D01*
X399383Y-1125543D01*
X399416Y-1125651D01*
X399446Y-1125761D01*
X399471Y-1125871D01*
X399493Y-1125982D01*
X399510Y-1126094D01*
X399524Y-1126207D01*
X399534Y-1126320D01*
X399540Y-1126433D01*
X399542Y-1126546D01*
X399542Y-1129792D01*
X399542Y-1115418D02*
X399542Y-1112821D01*
X399542Y-1115418D02*
X399540Y-1115517D01*
X399534Y-1115617D01*
X399525Y-1115716D01*
X399512Y-1115814D01*
X399495Y-1115912D01*
X399474Y-1116010D01*
X399449Y-1116106D01*
X399421Y-1116201D01*
X399389Y-1116295D01*
X399354Y-1116388D01*
X399315Y-1116480D01*
X399272Y-1116570D01*
X399227Y-1116658D01*
X399177Y-1116745D01*
X399125Y-1116829D01*
X399069Y-1116912D01*
X399011Y-1116992D01*
X398949Y-1117070D01*
X398884Y-1117145D01*
X398816Y-1117218D01*
X398746Y-1117288D01*
X398673Y-1117356D01*
X398598Y-1117421D01*
X398520Y-1117483D01*
X398440Y-1117541D01*
X398357Y-1117597D01*
X398273Y-1117649D01*
X398186Y-1117699D01*
X398098Y-1117744D01*
X398008Y-1117787D01*
X397916Y-1117826D01*
X397823Y-1117861D01*
X397729Y-1117893D01*
X397634Y-1117921D01*
X397538Y-1117946D01*
X397440Y-1117967D01*
X397342Y-1117984D01*
X397244Y-1117997D01*
X397145Y-1118006D01*
X397045Y-1118012D01*
X396946Y-1118014D01*
X390454Y-1118014D01*
X390454Y-1118015D02*
X390355Y-1118013D01*
X390255Y-1118007D01*
X390156Y-1117998D01*
X390058Y-1117985D01*
X389960Y-1117967D01*
X389862Y-1117947D01*
X389766Y-1117922D01*
X389670Y-1117894D01*
X389576Y-1117862D01*
X389483Y-1117827D01*
X389392Y-1117788D01*
X389302Y-1117745D01*
X389213Y-1117700D01*
X389127Y-1117650D01*
X389042Y-1117598D01*
X388960Y-1117542D01*
X388880Y-1117483D01*
X388802Y-1117422D01*
X388726Y-1117357D01*
X388653Y-1117289D01*
X388583Y-1117219D01*
X388515Y-1117146D01*
X388450Y-1117070D01*
X388389Y-1116992D01*
X388330Y-1116912D01*
X388274Y-1116830D01*
X388222Y-1116745D01*
X388173Y-1116659D01*
X388127Y-1116570D01*
X388084Y-1116480D01*
X388045Y-1116389D01*
X388010Y-1116296D01*
X387978Y-1116202D01*
X387950Y-1116106D01*
X387925Y-1116010D01*
X387905Y-1115912D01*
X387887Y-1115814D01*
X387874Y-1115716D01*
X387865Y-1115617D01*
X387859Y-1115518D01*
X387857Y-1115418D01*
X387858Y-1115418D02*
X387858Y-1112821D01*
X394998Y-1108343D02*
X394998Y-1100554D01*
X396946Y-1092774D02*
X387858Y-1092774D01*
X396946Y-1092775D02*
X397045Y-1092777D01*
X397145Y-1092783D01*
X397244Y-1092792D01*
X397342Y-1092805D01*
X397440Y-1092822D01*
X397538Y-1092843D01*
X397634Y-1092868D01*
X397729Y-1092896D01*
X397823Y-1092928D01*
X397916Y-1092963D01*
X398008Y-1093002D01*
X398098Y-1093045D01*
X398186Y-1093090D01*
X398273Y-1093140D01*
X398357Y-1093192D01*
X398440Y-1093248D01*
X398520Y-1093306D01*
X398598Y-1093368D01*
X398673Y-1093433D01*
X398746Y-1093501D01*
X398816Y-1093571D01*
X398884Y-1093644D01*
X398949Y-1093719D01*
X399011Y-1093797D01*
X399069Y-1093877D01*
X399125Y-1093960D01*
X399177Y-1094044D01*
X399227Y-1094131D01*
X399272Y-1094219D01*
X399315Y-1094309D01*
X399354Y-1094401D01*
X399389Y-1094494D01*
X399421Y-1094588D01*
X399449Y-1094683D01*
X399474Y-1094779D01*
X399495Y-1094877D01*
X399512Y-1094975D01*
X399525Y-1095073D01*
X399534Y-1095172D01*
X399540Y-1095272D01*
X399542Y-1095371D01*
X399542Y-1096669D01*
X399542Y-1088150D02*
X387858Y-1084255D01*
X399542Y-1080361D01*
X396621Y-1081334D02*
X396621Y-1087176D01*
X399542Y-1073508D02*
X399542Y-1070911D01*
X399542Y-1073508D02*
X399540Y-1073607D01*
X399534Y-1073707D01*
X399525Y-1073806D01*
X399512Y-1073904D01*
X399495Y-1074002D01*
X399474Y-1074100D01*
X399449Y-1074196D01*
X399421Y-1074291D01*
X399389Y-1074385D01*
X399354Y-1074478D01*
X399315Y-1074570D01*
X399272Y-1074660D01*
X399227Y-1074748D01*
X399177Y-1074835D01*
X399125Y-1074919D01*
X399069Y-1075002D01*
X399011Y-1075082D01*
X398949Y-1075160D01*
X398884Y-1075235D01*
X398816Y-1075308D01*
X398746Y-1075378D01*
X398673Y-1075446D01*
X398598Y-1075511D01*
X398520Y-1075573D01*
X398440Y-1075631D01*
X398357Y-1075687D01*
X398273Y-1075739D01*
X398186Y-1075789D01*
X398098Y-1075834D01*
X398008Y-1075877D01*
X397916Y-1075916D01*
X397823Y-1075951D01*
X397729Y-1075983D01*
X397634Y-1076011D01*
X397538Y-1076036D01*
X397440Y-1076057D01*
X397342Y-1076074D01*
X397244Y-1076087D01*
X397145Y-1076096D01*
X397045Y-1076102D01*
X396946Y-1076104D01*
X390454Y-1076104D01*
X390454Y-1076105D02*
X390355Y-1076103D01*
X390255Y-1076097D01*
X390156Y-1076088D01*
X390058Y-1076075D01*
X389960Y-1076057D01*
X389862Y-1076037D01*
X389766Y-1076012D01*
X389670Y-1075984D01*
X389576Y-1075952D01*
X389483Y-1075917D01*
X389392Y-1075878D01*
X389302Y-1075835D01*
X389213Y-1075790D01*
X389127Y-1075740D01*
X389042Y-1075688D01*
X388960Y-1075632D01*
X388880Y-1075573D01*
X388802Y-1075512D01*
X388726Y-1075447D01*
X388653Y-1075379D01*
X388583Y-1075309D01*
X388515Y-1075236D01*
X388450Y-1075160D01*
X388389Y-1075082D01*
X388330Y-1075002D01*
X388274Y-1074920D01*
X388222Y-1074835D01*
X388173Y-1074749D01*
X388127Y-1074660D01*
X388084Y-1074570D01*
X388045Y-1074479D01*
X388010Y-1074386D01*
X387978Y-1074292D01*
X387950Y-1074196D01*
X387925Y-1074100D01*
X387905Y-1074002D01*
X387887Y-1073904D01*
X387874Y-1073806D01*
X387865Y-1073707D01*
X387859Y-1073608D01*
X387857Y-1073508D01*
X387858Y-1073508D02*
X387858Y-1070911D01*
X387858Y-1065996D02*
X399542Y-1065996D01*
X394998Y-1065996D02*
X387858Y-1059505D01*
X392402Y-1063399D02*
X399542Y-1059505D01*
D12*
X-241300Y-1041400D02*
X-241300Y-1028700D01*
X-234950Y-1022350D01*
X-241300Y-1016000D01*
X-241300Y-1003300D01*
X-234950Y-996950D01*
X-241300Y-1041400D02*
X-234950Y-1047750D01*
X-234950Y-996950D02*
X-241300Y-990600D01*
X-241300Y-977900D01*
X-234950Y-971550D01*
X-241300Y-965200D02*
X-241300Y-952500D01*
X-234950Y-946150D01*
X-241300Y-939800D01*
X-241300Y-927100D01*
X-234950Y-920750D01*
X-241300Y-965200D02*
X-234950Y-971550D01*
X-234950Y-920750D02*
X-241300Y-914400D01*
X-241300Y-901700D01*
X-234950Y-895350D01*
X-196850Y-1022350D02*
X-190500Y-1028700D01*
X-190500Y-1003300D02*
X-196850Y-996950D01*
X-190500Y-1003300D02*
X-190500Y-1016000D01*
X-196850Y-1022350D01*
X-196850Y-1047750D02*
X-234950Y-1047750D01*
X-196850Y-1047750D02*
X-190500Y-1041400D01*
X-190500Y-1028700D01*
X-190500Y-977900D02*
X-196850Y-971550D01*
X-190500Y-977900D02*
X-190500Y-990600D01*
X-196850Y-996950D01*
X-190500Y-952500D02*
X-196850Y-946150D01*
X-190500Y-927100D02*
X-196850Y-920750D01*
X-190500Y-927100D02*
X-190500Y-939800D01*
X-196850Y-946150D01*
X-190500Y-965200D02*
X-196850Y-971550D01*
X-190500Y-965200D02*
X-190500Y-952500D01*
X-190500Y-901700D02*
X-196850Y-895350D01*
X-190500Y-901700D02*
X-190500Y-914400D01*
X-196850Y-920750D01*
X-196850Y-869950D02*
X-234950Y-869950D01*
X-241300Y-876300D01*
X-241300Y-889000D01*
X-234950Y-895350D01*
X-196850Y-895350D02*
X-190500Y-889000D01*
X-190500Y-876300D01*
X-196850Y-869950D01*
D10*
X-186055Y-1036320D02*
X-183515Y-1039495D01*
X-186055Y-1036320D02*
X-174625Y-1036320D01*
X-174625Y-1039495D02*
X-174625Y-1033145D01*
X-245745Y-1043305D02*
X-245747Y-1043205D01*
X-245753Y-1043106D01*
X-245763Y-1043006D01*
X-245776Y-1042908D01*
X-245794Y-1042809D01*
X-245815Y-1042712D01*
X-245840Y-1042616D01*
X-245869Y-1042520D01*
X-245902Y-1042426D01*
X-245938Y-1042333D01*
X-245978Y-1042242D01*
X-246022Y-1042152D01*
X-246069Y-1042064D01*
X-246119Y-1041978D01*
X-246173Y-1041894D01*
X-246230Y-1041812D01*
X-246290Y-1041733D01*
X-246354Y-1041655D01*
X-246420Y-1041581D01*
X-246489Y-1041509D01*
X-246561Y-1041440D01*
X-246635Y-1041374D01*
X-246713Y-1041310D01*
X-246792Y-1041250D01*
X-246874Y-1041193D01*
X-246958Y-1041139D01*
X-247044Y-1041089D01*
X-247132Y-1041042D01*
X-247222Y-1040998D01*
X-247313Y-1040958D01*
X-247406Y-1040922D01*
X-247500Y-1040889D01*
X-247596Y-1040860D01*
X-247692Y-1040835D01*
X-247789Y-1040814D01*
X-247888Y-1040796D01*
X-247986Y-1040783D01*
X-248086Y-1040773D01*
X-248185Y-1040767D01*
X-248285Y-1040765D01*
X-245745Y-1043305D02*
X-245747Y-1043446D01*
X-245752Y-1043587D01*
X-245762Y-1043728D01*
X-245775Y-1043869D01*
X-245791Y-1044009D01*
X-245812Y-1044149D01*
X-245836Y-1044288D01*
X-245864Y-1044427D01*
X-245895Y-1044564D01*
X-245930Y-1044701D01*
X-245968Y-1044837D01*
X-246010Y-1044972D01*
X-246056Y-1045105D01*
X-246105Y-1045238D01*
X-246158Y-1045369D01*
X-246214Y-1045498D01*
X-246273Y-1045627D01*
X-246336Y-1045753D01*
X-246402Y-1045878D01*
X-246471Y-1046001D01*
X-246544Y-1046122D01*
X-246620Y-1046241D01*
X-246699Y-1046359D01*
X-246780Y-1046474D01*
X-246865Y-1046586D01*
X-246953Y-1046697D01*
X-247044Y-1046805D01*
X-247137Y-1046911D01*
X-247234Y-1047014D01*
X-247333Y-1047115D01*
X-254635Y-1046798D02*
X-254735Y-1046796D01*
X-254834Y-1046790D01*
X-254934Y-1046780D01*
X-255032Y-1046767D01*
X-255131Y-1046749D01*
X-255228Y-1046728D01*
X-255324Y-1046703D01*
X-255420Y-1046674D01*
X-255514Y-1046641D01*
X-255607Y-1046605D01*
X-255698Y-1046565D01*
X-255788Y-1046521D01*
X-255876Y-1046474D01*
X-255962Y-1046424D01*
X-256046Y-1046370D01*
X-256128Y-1046313D01*
X-256207Y-1046253D01*
X-256285Y-1046189D01*
X-256359Y-1046123D01*
X-256431Y-1046054D01*
X-256500Y-1045982D01*
X-256566Y-1045908D01*
X-256630Y-1045830D01*
X-256690Y-1045751D01*
X-256747Y-1045669D01*
X-256801Y-1045585D01*
X-256851Y-1045499D01*
X-256898Y-1045411D01*
X-256942Y-1045321D01*
X-256982Y-1045230D01*
X-257018Y-1045137D01*
X-257051Y-1045043D01*
X-257080Y-1044947D01*
X-257105Y-1044851D01*
X-257126Y-1044754D01*
X-257144Y-1044655D01*
X-257157Y-1044557D01*
X-257167Y-1044457D01*
X-257173Y-1044358D01*
X-257175Y-1044258D01*
X-257176Y-1044258D02*
X-257174Y-1044125D01*
X-257169Y-1043992D01*
X-257159Y-1043859D01*
X-257146Y-1043726D01*
X-257129Y-1043594D01*
X-257109Y-1043462D01*
X-257085Y-1043331D01*
X-257057Y-1043201D01*
X-257026Y-1043071D01*
X-256991Y-1042943D01*
X-256952Y-1042815D01*
X-256910Y-1042689D01*
X-256864Y-1042564D01*
X-256815Y-1042440D01*
X-256763Y-1042317D01*
X-256707Y-1042196D01*
X-256647Y-1042077D01*
X-256585Y-1041959D01*
X-256519Y-1041844D01*
X-256450Y-1041730D01*
X-256377Y-1041618D01*
X-256302Y-1041508D01*
X-256223Y-1041400D01*
X-252412Y-1045528D02*
X-252464Y-1045612D01*
X-252519Y-1045695D01*
X-252578Y-1045775D01*
X-252639Y-1045853D01*
X-252703Y-1045928D01*
X-252771Y-1046001D01*
X-252841Y-1046072D01*
X-252913Y-1046139D01*
X-252988Y-1046204D01*
X-253066Y-1046266D01*
X-253146Y-1046325D01*
X-253228Y-1046381D01*
X-253312Y-1046433D01*
X-253398Y-1046482D01*
X-253486Y-1046528D01*
X-253576Y-1046571D01*
X-253667Y-1046610D01*
X-253760Y-1046645D01*
X-253854Y-1046677D01*
X-253949Y-1046705D01*
X-254045Y-1046730D01*
X-254142Y-1046750D01*
X-254240Y-1046768D01*
X-254338Y-1046781D01*
X-254437Y-1046790D01*
X-254536Y-1046796D01*
X-254635Y-1046798D01*
X-250508Y-1042035D02*
X-250456Y-1041951D01*
X-250401Y-1041868D01*
X-250342Y-1041788D01*
X-250281Y-1041710D01*
X-250217Y-1041635D01*
X-250149Y-1041562D01*
X-250079Y-1041491D01*
X-250007Y-1041424D01*
X-249932Y-1041359D01*
X-249854Y-1041297D01*
X-249774Y-1041238D01*
X-249692Y-1041182D01*
X-249608Y-1041130D01*
X-249522Y-1041081D01*
X-249434Y-1041035D01*
X-249344Y-1040992D01*
X-249253Y-1040953D01*
X-249160Y-1040918D01*
X-249066Y-1040886D01*
X-248971Y-1040858D01*
X-248875Y-1040833D01*
X-248778Y-1040813D01*
X-248680Y-1040795D01*
X-248582Y-1040782D01*
X-248483Y-1040773D01*
X-248384Y-1040767D01*
X-248285Y-1040765D01*
X-250508Y-1042035D02*
X-252413Y-1045528D01*
X-257175Y-1036701D02*
X-245745Y-1032891D01*
X-257175Y-1029081D01*
X-254635Y-1024636D02*
X-257175Y-1021461D01*
X-245745Y-1021461D01*
X-245745Y-1024636D02*
X-245745Y-1018286D01*
X-254635Y-893445D02*
X-257175Y-890270D01*
X-245745Y-890270D01*
X-245745Y-893445D02*
X-245745Y-887095D01*
X-248285Y-882015D02*
X-257175Y-879475D01*
X-248285Y-882015D02*
X-248285Y-875665D01*
X-250825Y-877570D02*
X-245745Y-877570D01*
D12*
X-130810Y-831850D02*
X-130810Y-1035050D01*
X-72390Y-1035050D02*
X-72390Y-831850D01*
X-130810Y-831850D01*
X-130810Y-1035050D02*
X-111760Y-1035050D01*
X-91440Y-1035050D02*
X-72390Y-1035050D01*
X-91440Y-1035050D02*
X-91443Y-1034803D01*
X-91452Y-1034555D01*
X-91467Y-1034308D01*
X-91488Y-1034062D01*
X-91515Y-1033816D01*
X-91548Y-1033571D01*
X-91587Y-1033326D01*
X-91632Y-1033083D01*
X-91683Y-1032841D01*
X-91740Y-1032600D01*
X-91802Y-1032361D01*
X-91871Y-1032123D01*
X-91945Y-1031887D01*
X-92025Y-1031653D01*
X-92110Y-1031421D01*
X-92202Y-1031191D01*
X-92298Y-1030963D01*
X-92401Y-1030738D01*
X-92508Y-1030515D01*
X-92622Y-1030295D01*
X-92740Y-1030078D01*
X-92864Y-1029863D01*
X-92993Y-1029652D01*
X-93127Y-1029444D01*
X-93266Y-1029239D01*
X-93410Y-1029038D01*
X-93558Y-1028840D01*
X-93712Y-1028646D01*
X-93870Y-1028456D01*
X-94033Y-1028270D01*
X-94200Y-1028088D01*
X-94372Y-1027910D01*
X-94548Y-1027736D01*
X-94728Y-1027566D01*
X-94913Y-1027401D01*
X-95101Y-1027241D01*
X-95293Y-1027085D01*
X-95489Y-1026933D01*
X-95688Y-1026787D01*
X-95891Y-1026645D01*
X-96098Y-1026509D01*
X-96307Y-1026377D01*
X-96520Y-1026251D01*
X-96736Y-1026130D01*
X-96954Y-1026014D01*
X-97176Y-1025904D01*
X-97400Y-1025799D01*
X-97626Y-1025699D01*
X-97855Y-1025605D01*
X-98086Y-1025517D01*
X-98320Y-1025434D01*
X-98555Y-1025357D01*
X-98792Y-1025286D01*
X-99030Y-1025220D01*
X-99270Y-1025161D01*
X-99512Y-1025107D01*
X-99755Y-1025059D01*
X-99998Y-1025017D01*
X-100243Y-1024981D01*
X-100489Y-1024951D01*
X-100735Y-1024927D01*
X-100982Y-1024909D01*
X-101229Y-1024897D01*
X-101476Y-1024891D01*
X-101724Y-1024891D01*
X-101971Y-1024897D01*
X-102218Y-1024909D01*
X-102465Y-1024927D01*
X-102711Y-1024951D01*
X-102957Y-1024981D01*
X-103202Y-1025017D01*
X-103445Y-1025059D01*
X-103688Y-1025107D01*
X-103930Y-1025161D01*
X-104170Y-1025220D01*
X-104408Y-1025286D01*
X-104645Y-1025357D01*
X-104880Y-1025434D01*
X-105114Y-1025517D01*
X-105345Y-1025605D01*
X-105574Y-1025699D01*
X-105800Y-1025799D01*
X-106024Y-1025904D01*
X-106246Y-1026014D01*
X-106464Y-1026130D01*
X-106680Y-1026251D01*
X-106893Y-1026377D01*
X-107102Y-1026509D01*
X-107309Y-1026645D01*
X-107512Y-1026787D01*
X-107711Y-1026933D01*
X-107907Y-1027085D01*
X-108099Y-1027241D01*
X-108287Y-1027401D01*
X-108472Y-1027566D01*
X-108652Y-1027736D01*
X-108828Y-1027910D01*
X-109000Y-1028088D01*
X-109167Y-1028270D01*
X-109330Y-1028456D01*
X-109488Y-1028646D01*
X-109642Y-1028840D01*
X-109790Y-1029038D01*
X-109934Y-1029239D01*
X-110073Y-1029444D01*
X-110207Y-1029652D01*
X-110336Y-1029863D01*
X-110460Y-1030078D01*
X-110578Y-1030295D01*
X-110692Y-1030515D01*
X-110799Y-1030738D01*
X-110902Y-1030963D01*
X-110998Y-1031191D01*
X-111090Y-1031421D01*
X-111175Y-1031653D01*
X-111255Y-1031887D01*
X-111329Y-1032123D01*
X-111398Y-1032361D01*
X-111460Y-1032600D01*
X-111517Y-1032841D01*
X-111568Y-1033083D01*
X-111613Y-1033326D01*
X-111652Y-1033571D01*
X-111685Y-1033816D01*
X-111712Y-1034062D01*
X-111733Y-1034308D01*
X-111748Y-1034555D01*
X-111757Y-1034803D01*
X-111760Y-1035050D01*
D10*
X-131445Y-1039495D02*
X-131445Y-1040765D01*
X-131445Y-1039495D02*
X-125095Y-1039495D01*
X-128270Y-1050925D01*
X-120015Y-1048385D02*
X-117475Y-1039495D01*
X-120015Y-1048385D02*
X-113665Y-1048385D01*
X-115570Y-1045845D02*
X-115570Y-1050925D01*
X-108585Y-1050925D02*
X-104775Y-1050925D01*
X-104675Y-1050923D01*
X-104576Y-1050917D01*
X-104476Y-1050907D01*
X-104378Y-1050894D01*
X-104279Y-1050876D01*
X-104182Y-1050855D01*
X-104086Y-1050830D01*
X-103990Y-1050801D01*
X-103896Y-1050768D01*
X-103803Y-1050732D01*
X-103712Y-1050692D01*
X-103622Y-1050648D01*
X-103534Y-1050601D01*
X-103448Y-1050551D01*
X-103364Y-1050497D01*
X-103282Y-1050440D01*
X-103203Y-1050380D01*
X-103125Y-1050316D01*
X-103051Y-1050250D01*
X-102979Y-1050181D01*
X-102910Y-1050109D01*
X-102844Y-1050035D01*
X-102780Y-1049957D01*
X-102720Y-1049878D01*
X-102663Y-1049796D01*
X-102609Y-1049712D01*
X-102559Y-1049626D01*
X-102512Y-1049538D01*
X-102468Y-1049448D01*
X-102428Y-1049357D01*
X-102392Y-1049264D01*
X-102359Y-1049170D01*
X-102330Y-1049074D01*
X-102305Y-1048978D01*
X-102284Y-1048881D01*
X-102266Y-1048782D01*
X-102253Y-1048684D01*
X-102243Y-1048584D01*
X-102237Y-1048485D01*
X-102235Y-1048385D01*
X-102235Y-1047115D01*
X-102237Y-1047015D01*
X-102243Y-1046916D01*
X-102253Y-1046816D01*
X-102266Y-1046718D01*
X-102284Y-1046619D01*
X-102305Y-1046522D01*
X-102330Y-1046426D01*
X-102359Y-1046330D01*
X-102392Y-1046236D01*
X-102428Y-1046143D01*
X-102468Y-1046052D01*
X-102512Y-1045962D01*
X-102559Y-1045874D01*
X-102609Y-1045788D01*
X-102663Y-1045704D01*
X-102720Y-1045622D01*
X-102780Y-1045543D01*
X-102844Y-1045465D01*
X-102910Y-1045391D01*
X-102979Y-1045319D01*
X-103051Y-1045250D01*
X-103125Y-1045184D01*
X-103203Y-1045120D01*
X-103282Y-1045060D01*
X-103364Y-1045003D01*
X-103448Y-1044949D01*
X-103534Y-1044899D01*
X-103622Y-1044852D01*
X-103712Y-1044808D01*
X-103803Y-1044768D01*
X-103896Y-1044732D01*
X-103990Y-1044699D01*
X-104086Y-1044670D01*
X-104182Y-1044645D01*
X-104279Y-1044624D01*
X-104378Y-1044606D01*
X-104476Y-1044593D01*
X-104576Y-1044583D01*
X-104675Y-1044577D01*
X-104775Y-1044575D01*
X-108585Y-1044575D01*
X-108585Y-1039495D01*
X-102235Y-1039495D01*
X-94615Y-1045845D02*
X-90805Y-1045845D01*
X-94615Y-1045845D02*
X-94715Y-1045843D01*
X-94814Y-1045837D01*
X-94914Y-1045827D01*
X-95012Y-1045814D01*
X-95111Y-1045796D01*
X-95208Y-1045775D01*
X-95304Y-1045750D01*
X-95400Y-1045721D01*
X-95494Y-1045688D01*
X-95587Y-1045652D01*
X-95678Y-1045612D01*
X-95768Y-1045568D01*
X-95856Y-1045521D01*
X-95942Y-1045471D01*
X-96026Y-1045417D01*
X-96108Y-1045360D01*
X-96187Y-1045300D01*
X-96265Y-1045236D01*
X-96339Y-1045170D01*
X-96411Y-1045101D01*
X-96480Y-1045029D01*
X-96546Y-1044955D01*
X-96610Y-1044877D01*
X-96670Y-1044798D01*
X-96727Y-1044716D01*
X-96781Y-1044632D01*
X-96831Y-1044546D01*
X-96878Y-1044458D01*
X-96922Y-1044368D01*
X-96962Y-1044277D01*
X-96998Y-1044184D01*
X-97031Y-1044090D01*
X-97060Y-1043994D01*
X-97085Y-1043898D01*
X-97106Y-1043801D01*
X-97124Y-1043702D01*
X-97137Y-1043604D01*
X-97147Y-1043504D01*
X-97153Y-1043405D01*
X-97155Y-1043305D01*
X-97155Y-1042670D01*
X-97153Y-1042559D01*
X-97147Y-1042449D01*
X-97138Y-1042338D01*
X-97124Y-1042228D01*
X-97107Y-1042119D01*
X-97086Y-1042010D01*
X-97061Y-1041902D01*
X-97032Y-1041795D01*
X-97000Y-1041689D01*
X-96964Y-1041584D01*
X-96924Y-1041481D01*
X-96881Y-1041379D01*
X-96834Y-1041278D01*
X-96783Y-1041179D01*
X-96730Y-1041083D01*
X-96673Y-1040988D01*
X-96612Y-1040895D01*
X-96549Y-1040804D01*
X-96482Y-1040715D01*
X-96412Y-1040629D01*
X-96339Y-1040546D01*
X-96264Y-1040464D01*
X-96186Y-1040386D01*
X-96104Y-1040311D01*
X-96021Y-1040238D01*
X-95935Y-1040168D01*
X-95846Y-1040101D01*
X-95755Y-1040038D01*
X-95662Y-1039977D01*
X-95568Y-1039920D01*
X-95471Y-1039867D01*
X-95372Y-1039816D01*
X-95271Y-1039769D01*
X-95169Y-1039726D01*
X-95066Y-1039686D01*
X-94961Y-1039650D01*
X-94855Y-1039618D01*
X-94748Y-1039589D01*
X-94640Y-1039564D01*
X-94531Y-1039543D01*
X-94422Y-1039526D01*
X-94312Y-1039512D01*
X-94201Y-1039503D01*
X-94091Y-1039497D01*
X-93980Y-1039495D01*
X-93869Y-1039497D01*
X-93759Y-1039503D01*
X-93648Y-1039512D01*
X-93538Y-1039526D01*
X-93429Y-1039543D01*
X-93320Y-1039564D01*
X-93212Y-1039589D01*
X-93105Y-1039618D01*
X-92999Y-1039650D01*
X-92894Y-1039686D01*
X-92791Y-1039726D01*
X-92689Y-1039769D01*
X-92588Y-1039816D01*
X-92489Y-1039867D01*
X-92393Y-1039920D01*
X-92298Y-1039977D01*
X-92205Y-1040038D01*
X-92114Y-1040101D01*
X-92025Y-1040168D01*
X-91939Y-1040238D01*
X-91856Y-1040311D01*
X-91774Y-1040386D01*
X-91696Y-1040464D01*
X-91621Y-1040546D01*
X-91548Y-1040629D01*
X-91478Y-1040715D01*
X-91411Y-1040804D01*
X-91348Y-1040895D01*
X-91287Y-1040988D01*
X-91230Y-1041083D01*
X-91177Y-1041179D01*
X-91126Y-1041278D01*
X-91079Y-1041379D01*
X-91036Y-1041481D01*
X-90996Y-1041584D01*
X-90960Y-1041689D01*
X-90928Y-1041795D01*
X-90899Y-1041902D01*
X-90874Y-1042010D01*
X-90853Y-1042119D01*
X-90836Y-1042228D01*
X-90822Y-1042338D01*
X-90813Y-1042449D01*
X-90807Y-1042559D01*
X-90805Y-1042670D01*
X-90805Y-1045845D01*
X-90807Y-1045985D01*
X-90813Y-1046125D01*
X-90822Y-1046265D01*
X-90836Y-1046404D01*
X-90853Y-1046543D01*
X-90874Y-1046681D01*
X-90899Y-1046819D01*
X-90928Y-1046956D01*
X-90960Y-1047092D01*
X-90997Y-1047227D01*
X-91037Y-1047361D01*
X-91080Y-1047494D01*
X-91128Y-1047626D01*
X-91178Y-1047757D01*
X-91233Y-1047886D01*
X-91291Y-1048013D01*
X-91352Y-1048139D01*
X-91417Y-1048263D01*
X-91486Y-1048385D01*
X-91557Y-1048505D01*
X-91632Y-1048623D01*
X-91710Y-1048740D01*
X-91792Y-1048854D01*
X-91876Y-1048965D01*
X-91964Y-1049074D01*
X-92054Y-1049181D01*
X-92148Y-1049286D01*
X-92244Y-1049387D01*
X-92343Y-1049486D01*
X-92444Y-1049582D01*
X-92549Y-1049676D01*
X-92656Y-1049766D01*
X-92765Y-1049854D01*
X-92876Y-1049938D01*
X-92990Y-1050020D01*
X-93107Y-1050098D01*
X-93225Y-1050173D01*
X-93345Y-1050244D01*
X-93467Y-1050313D01*
X-93591Y-1050378D01*
X-93717Y-1050439D01*
X-93844Y-1050497D01*
X-93973Y-1050552D01*
X-94104Y-1050602D01*
X-94236Y-1050650D01*
X-94369Y-1050693D01*
X-94503Y-1050733D01*
X-94638Y-1050770D01*
X-94774Y-1050802D01*
X-94911Y-1050831D01*
X-95049Y-1050856D01*
X-95187Y-1050877D01*
X-95326Y-1050894D01*
X-95465Y-1050908D01*
X-95605Y-1050917D01*
X-95745Y-1050923D01*
X-95885Y-1050925D01*
X-85725Y-1050925D02*
X-81915Y-1050925D01*
X-81815Y-1050923D01*
X-81716Y-1050917D01*
X-81616Y-1050907D01*
X-81518Y-1050894D01*
X-81419Y-1050876D01*
X-81322Y-1050855D01*
X-81226Y-1050830D01*
X-81130Y-1050801D01*
X-81036Y-1050768D01*
X-80943Y-1050732D01*
X-80852Y-1050692D01*
X-80762Y-1050648D01*
X-80674Y-1050601D01*
X-80588Y-1050551D01*
X-80504Y-1050497D01*
X-80422Y-1050440D01*
X-80343Y-1050380D01*
X-80265Y-1050316D01*
X-80191Y-1050250D01*
X-80119Y-1050181D01*
X-80050Y-1050109D01*
X-79984Y-1050035D01*
X-79920Y-1049957D01*
X-79860Y-1049878D01*
X-79803Y-1049796D01*
X-79749Y-1049712D01*
X-79699Y-1049626D01*
X-79652Y-1049538D01*
X-79608Y-1049448D01*
X-79568Y-1049357D01*
X-79532Y-1049264D01*
X-79499Y-1049170D01*
X-79470Y-1049074D01*
X-79445Y-1048978D01*
X-79424Y-1048881D01*
X-79406Y-1048782D01*
X-79393Y-1048684D01*
X-79383Y-1048584D01*
X-79377Y-1048485D01*
X-79375Y-1048385D01*
X-79375Y-1047115D01*
X-79377Y-1047015D01*
X-79383Y-1046916D01*
X-79393Y-1046816D01*
X-79406Y-1046718D01*
X-79424Y-1046619D01*
X-79445Y-1046522D01*
X-79470Y-1046426D01*
X-79499Y-1046330D01*
X-79532Y-1046236D01*
X-79568Y-1046143D01*
X-79608Y-1046052D01*
X-79652Y-1045962D01*
X-79699Y-1045874D01*
X-79749Y-1045788D01*
X-79803Y-1045704D01*
X-79860Y-1045622D01*
X-79920Y-1045543D01*
X-79984Y-1045465D01*
X-80050Y-1045391D01*
X-80119Y-1045319D01*
X-80191Y-1045250D01*
X-80265Y-1045184D01*
X-80343Y-1045120D01*
X-80422Y-1045060D01*
X-80504Y-1045003D01*
X-80588Y-1044949D01*
X-80674Y-1044899D01*
X-80762Y-1044852D01*
X-80852Y-1044808D01*
X-80943Y-1044768D01*
X-81036Y-1044732D01*
X-81130Y-1044699D01*
X-81226Y-1044670D01*
X-81322Y-1044645D01*
X-81419Y-1044624D01*
X-81518Y-1044606D01*
X-81616Y-1044593D01*
X-81716Y-1044583D01*
X-81815Y-1044577D01*
X-81915Y-1044575D01*
X-85725Y-1044575D01*
X-85725Y-1039495D01*
X-79375Y-1039495D01*
D12*
X171450Y-584200D02*
X184150Y-584200D01*
X171450Y-584200D02*
X165100Y-577850D01*
X165100Y-565150D02*
X171450Y-558800D01*
X165100Y-577850D02*
X158750Y-584200D01*
X146050Y-584200D01*
X139700Y-577850D01*
X139700Y-565150D02*
X146050Y-558800D01*
X158750Y-558800D01*
X165100Y-565150D01*
X190500Y-565150D02*
X190500Y-577850D01*
X184150Y-584200D01*
X190500Y-565150D02*
X184150Y-558800D01*
X171450Y-558800D01*
X139700Y-577850D02*
X133350Y-584200D01*
X120650Y-584200D01*
X114300Y-577850D01*
X114300Y-565150D02*
X120650Y-558800D01*
X133350Y-558800D01*
X139700Y-565150D01*
X107950Y-584200D02*
X95250Y-584200D01*
X88900Y-577850D01*
X88900Y-565150D02*
X95250Y-558800D01*
X88900Y-577850D02*
X82550Y-584200D01*
X69850Y-584200D01*
X63500Y-577850D01*
X63500Y-565150D02*
X69850Y-558800D01*
X82550Y-558800D01*
X88900Y-565150D01*
X107950Y-584200D02*
X114300Y-577850D01*
X114300Y-565150D02*
X107950Y-558800D01*
X95250Y-558800D01*
X63500Y-577850D02*
X57150Y-584200D01*
X44450Y-584200D01*
X38100Y-577850D01*
X38100Y-565150D02*
X44450Y-558800D01*
X57150Y-558800D01*
X63500Y-565150D01*
X38100Y-565150D02*
X38100Y-577850D01*
D10*
X163703Y-593725D02*
X165608Y-593725D01*
X165608Y-600075D01*
X161798Y-600075D01*
X161698Y-600073D01*
X161599Y-600067D01*
X161499Y-600057D01*
X161401Y-600044D01*
X161302Y-600026D01*
X161205Y-600005D01*
X161109Y-599980D01*
X161013Y-599951D01*
X160919Y-599918D01*
X160826Y-599882D01*
X160735Y-599842D01*
X160645Y-599798D01*
X160557Y-599751D01*
X160471Y-599701D01*
X160387Y-599647D01*
X160305Y-599590D01*
X160226Y-599530D01*
X160148Y-599466D01*
X160074Y-599400D01*
X160002Y-599331D01*
X159933Y-599259D01*
X159867Y-599185D01*
X159803Y-599107D01*
X159743Y-599028D01*
X159686Y-598946D01*
X159632Y-598862D01*
X159582Y-598776D01*
X159535Y-598688D01*
X159491Y-598598D01*
X159451Y-598507D01*
X159415Y-598414D01*
X159382Y-598320D01*
X159353Y-598224D01*
X159328Y-598128D01*
X159307Y-598031D01*
X159289Y-597932D01*
X159276Y-597834D01*
X159266Y-597734D01*
X159260Y-597635D01*
X159258Y-597535D01*
X159258Y-591185D01*
X159260Y-591085D01*
X159266Y-590986D01*
X159276Y-590886D01*
X159289Y-590788D01*
X159307Y-590689D01*
X159328Y-590592D01*
X159353Y-590496D01*
X159382Y-590400D01*
X159415Y-590306D01*
X159451Y-590213D01*
X159491Y-590122D01*
X159535Y-590032D01*
X159582Y-589944D01*
X159632Y-589858D01*
X159686Y-589774D01*
X159743Y-589692D01*
X159803Y-589613D01*
X159867Y-589535D01*
X159933Y-589461D01*
X160002Y-589389D01*
X160074Y-589320D01*
X160148Y-589254D01*
X160226Y-589190D01*
X160305Y-589130D01*
X160387Y-589073D01*
X160471Y-589019D01*
X160557Y-588969D01*
X160645Y-588922D01*
X160735Y-588878D01*
X160826Y-588838D01*
X160919Y-588802D01*
X161013Y-588769D01*
X161109Y-588740D01*
X161205Y-588715D01*
X161302Y-588694D01*
X161401Y-588676D01*
X161499Y-588663D01*
X161599Y-588653D01*
X161698Y-588647D01*
X161798Y-588645D01*
X165608Y-588645D01*
X174498Y-600075D02*
X174598Y-600073D01*
X174697Y-600067D01*
X174797Y-600057D01*
X174895Y-600044D01*
X174994Y-600026D01*
X175091Y-600005D01*
X175187Y-599980D01*
X175283Y-599951D01*
X175377Y-599918D01*
X175470Y-599882D01*
X175561Y-599842D01*
X175651Y-599798D01*
X175739Y-599751D01*
X175825Y-599701D01*
X175909Y-599647D01*
X175991Y-599590D01*
X176070Y-599530D01*
X176148Y-599466D01*
X176222Y-599400D01*
X176294Y-599331D01*
X176363Y-599259D01*
X176429Y-599185D01*
X176493Y-599107D01*
X176553Y-599028D01*
X176610Y-598946D01*
X176664Y-598862D01*
X176714Y-598776D01*
X176761Y-598688D01*
X176805Y-598598D01*
X176845Y-598507D01*
X176881Y-598414D01*
X176914Y-598320D01*
X176943Y-598224D01*
X176968Y-598128D01*
X176989Y-598031D01*
X177007Y-597932D01*
X177020Y-597834D01*
X177030Y-597734D01*
X177036Y-597635D01*
X177038Y-597535D01*
X174498Y-600075D02*
X174357Y-600073D01*
X174216Y-600068D01*
X174075Y-600058D01*
X173934Y-600045D01*
X173794Y-600029D01*
X173654Y-600008D01*
X173515Y-599984D01*
X173376Y-599956D01*
X173239Y-599925D01*
X173102Y-599890D01*
X172966Y-599852D01*
X172831Y-599810D01*
X172698Y-599764D01*
X172565Y-599715D01*
X172434Y-599662D01*
X172305Y-599606D01*
X172176Y-599547D01*
X172050Y-599484D01*
X171925Y-599418D01*
X171802Y-599349D01*
X171681Y-599276D01*
X171562Y-599200D01*
X171444Y-599121D01*
X171329Y-599040D01*
X171217Y-598955D01*
X171106Y-598867D01*
X170998Y-598776D01*
X170892Y-598683D01*
X170789Y-598586D01*
X170688Y-598487D01*
X171006Y-591185D02*
X171008Y-591085D01*
X171014Y-590986D01*
X171024Y-590886D01*
X171037Y-590788D01*
X171055Y-590689D01*
X171076Y-590592D01*
X171101Y-590496D01*
X171130Y-590400D01*
X171163Y-590306D01*
X171199Y-590213D01*
X171239Y-590122D01*
X171283Y-590032D01*
X171330Y-589944D01*
X171380Y-589858D01*
X171434Y-589774D01*
X171491Y-589692D01*
X171551Y-589613D01*
X171615Y-589535D01*
X171681Y-589461D01*
X171750Y-589389D01*
X171822Y-589320D01*
X171896Y-589254D01*
X171974Y-589190D01*
X172053Y-589130D01*
X172135Y-589073D01*
X172219Y-589019D01*
X172305Y-588969D01*
X172393Y-588922D01*
X172483Y-588878D01*
X172574Y-588838D01*
X172667Y-588802D01*
X172761Y-588769D01*
X172857Y-588740D01*
X172953Y-588715D01*
X173050Y-588694D01*
X173149Y-588676D01*
X173247Y-588663D01*
X173347Y-588653D01*
X173446Y-588647D01*
X173546Y-588645D01*
X173679Y-588647D01*
X173812Y-588652D01*
X173945Y-588662D01*
X174078Y-588675D01*
X174210Y-588692D01*
X174342Y-588712D01*
X174473Y-588736D01*
X174603Y-588764D01*
X174733Y-588795D01*
X174861Y-588830D01*
X174989Y-588869D01*
X175115Y-588911D01*
X175240Y-588957D01*
X175364Y-589006D01*
X175487Y-589058D01*
X175608Y-589114D01*
X175727Y-589174D01*
X175845Y-589236D01*
X175960Y-589302D01*
X176074Y-589371D01*
X176186Y-589444D01*
X176296Y-589519D01*
X176404Y-589598D01*
X172275Y-593408D02*
X172191Y-593356D01*
X172108Y-593301D01*
X172028Y-593242D01*
X171950Y-593181D01*
X171875Y-593117D01*
X171802Y-593049D01*
X171731Y-592979D01*
X171664Y-592907D01*
X171599Y-592832D01*
X171537Y-592754D01*
X171478Y-592674D01*
X171422Y-592592D01*
X171370Y-592508D01*
X171321Y-592422D01*
X171275Y-592334D01*
X171232Y-592244D01*
X171193Y-592153D01*
X171158Y-592060D01*
X171126Y-591966D01*
X171098Y-591871D01*
X171073Y-591775D01*
X171053Y-591678D01*
X171035Y-591580D01*
X171022Y-591482D01*
X171013Y-591383D01*
X171007Y-591284D01*
X171005Y-591185D01*
X175768Y-595312D02*
X175852Y-595364D01*
X175935Y-595419D01*
X176015Y-595478D01*
X176093Y-595539D01*
X176168Y-595603D01*
X176241Y-595671D01*
X176312Y-595741D01*
X176379Y-595813D01*
X176444Y-595888D01*
X176506Y-595966D01*
X176565Y-596046D01*
X176621Y-596128D01*
X176673Y-596212D01*
X176722Y-596298D01*
X176768Y-596386D01*
X176811Y-596476D01*
X176850Y-596567D01*
X176885Y-596660D01*
X176917Y-596754D01*
X176945Y-596849D01*
X176970Y-596945D01*
X176990Y-597042D01*
X177008Y-597140D01*
X177021Y-597238D01*
X177030Y-597337D01*
X177036Y-597436D01*
X177038Y-597535D01*
X175768Y-595313D02*
X172276Y-593408D01*
X182245Y-588645D02*
X182245Y-600075D01*
X186055Y-594995D02*
X182245Y-588645D01*
X186055Y-594995D02*
X189865Y-588645D01*
X189865Y-600075D01*
X177165Y-545465D02*
X180340Y-542925D01*
X180340Y-554355D01*
X177165Y-554355D02*
X183515Y-554355D01*
X53975Y-593725D02*
X50165Y-593725D01*
X53975Y-593725D02*
X54075Y-593727D01*
X54174Y-593733D01*
X54274Y-593743D01*
X54372Y-593756D01*
X54471Y-593774D01*
X54568Y-593795D01*
X54664Y-593820D01*
X54760Y-593849D01*
X54854Y-593882D01*
X54947Y-593918D01*
X55038Y-593958D01*
X55128Y-594002D01*
X55216Y-594049D01*
X55302Y-594099D01*
X55386Y-594153D01*
X55468Y-594210D01*
X55547Y-594270D01*
X55625Y-594334D01*
X55699Y-594400D01*
X55771Y-594469D01*
X55840Y-594541D01*
X55906Y-594615D01*
X55970Y-594693D01*
X56030Y-594772D01*
X56087Y-594854D01*
X56141Y-594938D01*
X56191Y-595024D01*
X56238Y-595112D01*
X56282Y-595202D01*
X56322Y-595293D01*
X56358Y-595386D01*
X56391Y-595480D01*
X56420Y-595576D01*
X56445Y-595672D01*
X56466Y-595769D01*
X56484Y-595868D01*
X56497Y-595966D01*
X56507Y-596066D01*
X56513Y-596165D01*
X56515Y-596265D01*
X56515Y-596900D01*
X56513Y-597011D01*
X56507Y-597121D01*
X56498Y-597232D01*
X56484Y-597342D01*
X56467Y-597451D01*
X56446Y-597560D01*
X56421Y-597668D01*
X56392Y-597775D01*
X56360Y-597881D01*
X56324Y-597986D01*
X56284Y-598089D01*
X56241Y-598191D01*
X56194Y-598292D01*
X56143Y-598391D01*
X56090Y-598488D01*
X56033Y-598582D01*
X55972Y-598675D01*
X55909Y-598766D01*
X55842Y-598855D01*
X55772Y-598941D01*
X55699Y-599024D01*
X55624Y-599106D01*
X55546Y-599184D01*
X55464Y-599259D01*
X55381Y-599332D01*
X55295Y-599402D01*
X55206Y-599469D01*
X55115Y-599532D01*
X55022Y-599593D01*
X54927Y-599650D01*
X54831Y-599703D01*
X54732Y-599754D01*
X54631Y-599801D01*
X54529Y-599844D01*
X54426Y-599884D01*
X54321Y-599920D01*
X54215Y-599952D01*
X54108Y-599981D01*
X54000Y-600006D01*
X53891Y-600027D01*
X53782Y-600044D01*
X53672Y-600058D01*
X53561Y-600067D01*
X53451Y-600073D01*
X53340Y-600075D01*
X53229Y-600073D01*
X53119Y-600067D01*
X53008Y-600058D01*
X52898Y-600044D01*
X52789Y-600027D01*
X52680Y-600006D01*
X52572Y-599981D01*
X52465Y-599952D01*
X52359Y-599920D01*
X52254Y-599884D01*
X52151Y-599844D01*
X52049Y-599801D01*
X51948Y-599754D01*
X51849Y-599703D01*
X51753Y-599650D01*
X51658Y-599593D01*
X51565Y-599532D01*
X51474Y-599469D01*
X51385Y-599402D01*
X51299Y-599332D01*
X51216Y-599259D01*
X51134Y-599184D01*
X51056Y-599106D01*
X50981Y-599024D01*
X50908Y-598941D01*
X50838Y-598855D01*
X50771Y-598766D01*
X50708Y-598675D01*
X50647Y-598582D01*
X50590Y-598488D01*
X50537Y-598391D01*
X50486Y-598292D01*
X50439Y-598191D01*
X50396Y-598089D01*
X50356Y-597986D01*
X50320Y-597881D01*
X50288Y-597775D01*
X50259Y-597668D01*
X50234Y-597560D01*
X50213Y-597451D01*
X50196Y-597342D01*
X50182Y-597232D01*
X50173Y-597121D01*
X50167Y-597011D01*
X50165Y-596900D01*
X50165Y-593725D01*
X50167Y-593585D01*
X50173Y-593445D01*
X50182Y-593305D01*
X50196Y-593166D01*
X50213Y-593027D01*
X50234Y-592889D01*
X50259Y-592751D01*
X50288Y-592614D01*
X50320Y-592478D01*
X50357Y-592343D01*
X50397Y-592209D01*
X50440Y-592076D01*
X50488Y-591944D01*
X50538Y-591813D01*
X50593Y-591684D01*
X50651Y-591557D01*
X50712Y-591431D01*
X50777Y-591307D01*
X50846Y-591185D01*
X50917Y-591065D01*
X50992Y-590947D01*
X51070Y-590830D01*
X51152Y-590716D01*
X51236Y-590605D01*
X51324Y-590496D01*
X51414Y-590389D01*
X51508Y-590284D01*
X51604Y-590183D01*
X51703Y-590084D01*
X51804Y-589988D01*
X51909Y-589894D01*
X52016Y-589804D01*
X52125Y-589716D01*
X52236Y-589632D01*
X52350Y-589550D01*
X52467Y-589472D01*
X52585Y-589397D01*
X52705Y-589326D01*
X52827Y-589257D01*
X52951Y-589192D01*
X53077Y-589131D01*
X53204Y-589073D01*
X53333Y-589018D01*
X53464Y-588968D01*
X53596Y-588920D01*
X53729Y-588877D01*
X53863Y-588837D01*
X53998Y-588800D01*
X54134Y-588768D01*
X54271Y-588739D01*
X54409Y-588714D01*
X54547Y-588693D01*
X54686Y-588676D01*
X54825Y-588662D01*
X54965Y-588653D01*
X55105Y-588647D01*
X55245Y-588645D01*
D12*
X-44450Y-628650D02*
X-44450Y-641350D01*
X-50800Y-647700D01*
X-63500Y-647700D02*
X-69850Y-641350D01*
X-50800Y-647700D02*
X-44450Y-654050D01*
X-44450Y-666750D01*
X-50800Y-673100D01*
X-63500Y-673100D02*
X-69850Y-666750D01*
X-69850Y-654050D01*
X-63500Y-647700D01*
X-63500Y-622300D02*
X-50800Y-622300D01*
X-44450Y-628650D01*
X-63500Y-622300D02*
X-69850Y-628650D01*
X-69850Y-641350D01*
X-50800Y-673100D02*
X-44450Y-679450D01*
X-44450Y-692150D01*
X-50800Y-698500D01*
X-63500Y-698500D02*
X-69850Y-692150D01*
X-69850Y-679450D01*
X-63500Y-673100D01*
X-44450Y-704850D02*
X-44450Y-717550D01*
X-50800Y-723900D01*
X-63500Y-723900D02*
X-69850Y-717550D01*
X-50800Y-723900D02*
X-44450Y-730250D01*
X-44450Y-742950D01*
X-50800Y-749300D01*
X-63500Y-749300D02*
X-69850Y-742950D01*
X-69850Y-730250D01*
X-63500Y-723900D01*
X-44450Y-704850D02*
X-50800Y-698500D01*
X-63500Y-698500D02*
X-69850Y-704850D01*
X-69850Y-717550D01*
X-50800Y-749300D02*
X-44450Y-755650D01*
X-44450Y-768350D01*
X-50800Y-774700D01*
X-63500Y-774700D02*
X-69850Y-768350D01*
X-69850Y-755650D01*
X-63500Y-749300D01*
X-63500Y-774700D02*
X-50800Y-774700D01*
D10*
X-40005Y-675005D02*
X-28575Y-675005D01*
X-34925Y-675005D02*
X-34925Y-668655D01*
X-40005Y-668655D02*
X-28575Y-668655D01*
X-28575Y-660691D02*
X-28575Y-658151D01*
X-28575Y-660691D02*
X-28577Y-660791D01*
X-28583Y-660890D01*
X-28593Y-660990D01*
X-28606Y-661088D01*
X-28624Y-661187D01*
X-28645Y-661284D01*
X-28670Y-661380D01*
X-28699Y-661476D01*
X-28732Y-661570D01*
X-28768Y-661663D01*
X-28808Y-661754D01*
X-28852Y-661844D01*
X-28899Y-661932D01*
X-28949Y-662018D01*
X-29003Y-662102D01*
X-29060Y-662184D01*
X-29120Y-662263D01*
X-29184Y-662341D01*
X-29250Y-662415D01*
X-29319Y-662487D01*
X-29391Y-662556D01*
X-29465Y-662622D01*
X-29543Y-662686D01*
X-29622Y-662746D01*
X-29704Y-662803D01*
X-29788Y-662857D01*
X-29874Y-662907D01*
X-29962Y-662954D01*
X-30052Y-662998D01*
X-30143Y-663038D01*
X-30236Y-663074D01*
X-30330Y-663107D01*
X-30426Y-663136D01*
X-30522Y-663161D01*
X-30619Y-663182D01*
X-30718Y-663200D01*
X-30816Y-663213D01*
X-30916Y-663223D01*
X-31015Y-663229D01*
X-31115Y-663231D01*
X-37465Y-663231D01*
X-37565Y-663229D01*
X-37664Y-663223D01*
X-37764Y-663213D01*
X-37862Y-663200D01*
X-37961Y-663182D01*
X-38058Y-663161D01*
X-38154Y-663136D01*
X-38250Y-663107D01*
X-38344Y-663074D01*
X-38437Y-663038D01*
X-38528Y-662998D01*
X-38618Y-662954D01*
X-38706Y-662907D01*
X-38792Y-662857D01*
X-38876Y-662803D01*
X-38958Y-662746D01*
X-39037Y-662686D01*
X-39115Y-662622D01*
X-39189Y-662556D01*
X-39261Y-662487D01*
X-39330Y-662415D01*
X-39396Y-662341D01*
X-39460Y-662263D01*
X-39520Y-662184D01*
X-39577Y-662102D01*
X-39631Y-662018D01*
X-39681Y-661932D01*
X-39728Y-661844D01*
X-39772Y-661754D01*
X-39812Y-661663D01*
X-39848Y-661570D01*
X-39881Y-661476D01*
X-39910Y-661380D01*
X-39935Y-661284D01*
X-39956Y-661187D01*
X-39974Y-661088D01*
X-39987Y-660990D01*
X-39997Y-660890D01*
X-40003Y-660791D01*
X-40005Y-660691D01*
X-40005Y-658151D01*
X-33020Y-653542D02*
X-33020Y-645922D01*
X-34290Y-640715D02*
X-34515Y-640712D01*
X-34740Y-640704D01*
X-34964Y-640691D01*
X-35188Y-640672D01*
X-35412Y-640648D01*
X-35635Y-640619D01*
X-35857Y-640584D01*
X-36078Y-640544D01*
X-36298Y-640498D01*
X-36517Y-640448D01*
X-36735Y-640392D01*
X-36952Y-640331D01*
X-37167Y-640265D01*
X-37380Y-640194D01*
X-37591Y-640117D01*
X-37801Y-640036D01*
X-38009Y-639950D01*
X-38214Y-639859D01*
X-38417Y-639763D01*
X-38418Y-639763D02*
X-38506Y-639731D01*
X-38593Y-639695D01*
X-38679Y-639656D01*
X-38763Y-639613D01*
X-38845Y-639567D01*
X-38925Y-639518D01*
X-39003Y-639466D01*
X-39079Y-639410D01*
X-39153Y-639352D01*
X-39224Y-639290D01*
X-39293Y-639226D01*
X-39359Y-639159D01*
X-39422Y-639090D01*
X-39483Y-639018D01*
X-39541Y-638944D01*
X-39595Y-638867D01*
X-39647Y-638789D01*
X-39695Y-638708D01*
X-39740Y-638626D01*
X-39782Y-638541D01*
X-39820Y-638455D01*
X-39855Y-638368D01*
X-39887Y-638280D01*
X-39914Y-638190D01*
X-39939Y-638099D01*
X-39959Y-638007D01*
X-39976Y-637915D01*
X-39989Y-637821D01*
X-39998Y-637728D01*
X-40004Y-637634D01*
X-40006Y-637540D01*
X-40004Y-637446D01*
X-39998Y-637352D01*
X-39989Y-637259D01*
X-39976Y-637165D01*
X-39959Y-637073D01*
X-39939Y-636981D01*
X-39914Y-636890D01*
X-39887Y-636800D01*
X-39855Y-636712D01*
X-39820Y-636625D01*
X-39782Y-636539D01*
X-39740Y-636454D01*
X-39695Y-636372D01*
X-39647Y-636291D01*
X-39595Y-636213D01*
X-39541Y-636136D01*
X-39483Y-636062D01*
X-39422Y-635990D01*
X-39359Y-635921D01*
X-39293Y-635854D01*
X-39224Y-635790D01*
X-39153Y-635728D01*
X-39079Y-635670D01*
X-39003Y-635614D01*
X-38925Y-635562D01*
X-38845Y-635513D01*
X-38763Y-635467D01*
X-38679Y-635424D01*
X-38593Y-635385D01*
X-38506Y-635349D01*
X-38418Y-635317D01*
X-38417Y-635317D02*
X-38214Y-635221D01*
X-38009Y-635130D01*
X-37801Y-635044D01*
X-37591Y-634963D01*
X-37380Y-634886D01*
X-37167Y-634815D01*
X-36952Y-634749D01*
X-36735Y-634688D01*
X-36517Y-634632D01*
X-36298Y-634582D01*
X-36078Y-634536D01*
X-35857Y-634496D01*
X-35635Y-634461D01*
X-35412Y-634432D01*
X-35188Y-634408D01*
X-34964Y-634389D01*
X-34740Y-634376D01*
X-34515Y-634368D01*
X-34290Y-634365D01*
X-34290Y-640715D02*
X-34065Y-640712D01*
X-33840Y-640704D01*
X-33616Y-640691D01*
X-33392Y-640672D01*
X-33168Y-640648D01*
X-32945Y-640619D01*
X-32723Y-640584D01*
X-32502Y-640544D01*
X-32282Y-640498D01*
X-32063Y-640448D01*
X-31845Y-640392D01*
X-31628Y-640331D01*
X-31413Y-640265D01*
X-31200Y-640194D01*
X-30989Y-640117D01*
X-30779Y-640036D01*
X-30571Y-639950D01*
X-30366Y-639859D01*
X-30163Y-639763D01*
X-30075Y-639731D01*
X-29988Y-639695D01*
X-29902Y-639656D01*
X-29818Y-639613D01*
X-29736Y-639567D01*
X-29656Y-639518D01*
X-29578Y-639466D01*
X-29502Y-639410D01*
X-29428Y-639352D01*
X-29357Y-639290D01*
X-29288Y-639226D01*
X-29222Y-639159D01*
X-29159Y-639090D01*
X-29098Y-639018D01*
X-29040Y-638944D01*
X-28986Y-638867D01*
X-28934Y-638789D01*
X-28886Y-638708D01*
X-28841Y-638626D01*
X-28799Y-638541D01*
X-28761Y-638455D01*
X-28726Y-638368D01*
X-28694Y-638280D01*
X-28667Y-638190D01*
X-28642Y-638099D01*
X-28622Y-638007D01*
X-28605Y-637915D01*
X-28592Y-637821D01*
X-28583Y-637728D01*
X-28577Y-637634D01*
X-28575Y-637540D01*
X-30163Y-635317D02*
X-30366Y-635221D01*
X-30571Y-635130D01*
X-30779Y-635044D01*
X-30989Y-634963D01*
X-31200Y-634886D01*
X-31413Y-634815D01*
X-31628Y-634749D01*
X-31845Y-634688D01*
X-32063Y-634632D01*
X-32282Y-634582D01*
X-32502Y-634536D01*
X-32723Y-634496D01*
X-32945Y-634461D01*
X-33168Y-634432D01*
X-33392Y-634408D01*
X-33616Y-634389D01*
X-33840Y-634376D01*
X-34065Y-634368D01*
X-34290Y-634365D01*
X-30163Y-635317D02*
X-30075Y-635349D01*
X-29988Y-635385D01*
X-29902Y-635424D01*
X-29818Y-635467D01*
X-29736Y-635513D01*
X-29656Y-635562D01*
X-29578Y-635614D01*
X-29502Y-635670D01*
X-29428Y-635728D01*
X-29357Y-635790D01*
X-29288Y-635854D01*
X-29222Y-635921D01*
X-29159Y-635990D01*
X-29098Y-636062D01*
X-29040Y-636136D01*
X-28986Y-636213D01*
X-28934Y-636291D01*
X-28886Y-636372D01*
X-28841Y-636454D01*
X-28799Y-636539D01*
X-28761Y-636625D01*
X-28726Y-636712D01*
X-28694Y-636800D01*
X-28667Y-636890D01*
X-28642Y-636981D01*
X-28622Y-637073D01*
X-28605Y-637165D01*
X-28592Y-637259D01*
X-28583Y-637352D01*
X-28577Y-637446D01*
X-28575Y-637540D01*
X-31115Y-640080D02*
X-37465Y-635000D01*
X-28575Y-629285D02*
X-28575Y-625475D01*
X-28577Y-625375D01*
X-28583Y-625276D01*
X-28593Y-625176D01*
X-28606Y-625078D01*
X-28624Y-624979D01*
X-28645Y-624882D01*
X-28670Y-624786D01*
X-28699Y-624690D01*
X-28732Y-624596D01*
X-28768Y-624503D01*
X-28808Y-624412D01*
X-28852Y-624322D01*
X-28899Y-624234D01*
X-28949Y-624148D01*
X-29003Y-624064D01*
X-29060Y-623982D01*
X-29120Y-623903D01*
X-29184Y-623825D01*
X-29250Y-623751D01*
X-29319Y-623679D01*
X-29391Y-623610D01*
X-29465Y-623544D01*
X-29543Y-623480D01*
X-29622Y-623420D01*
X-29704Y-623363D01*
X-29788Y-623309D01*
X-29874Y-623259D01*
X-29962Y-623212D01*
X-30052Y-623168D01*
X-30143Y-623128D01*
X-30236Y-623092D01*
X-30330Y-623059D01*
X-30426Y-623030D01*
X-30522Y-623005D01*
X-30619Y-622984D01*
X-30718Y-622966D01*
X-30816Y-622953D01*
X-30916Y-622943D01*
X-31015Y-622937D01*
X-31115Y-622935D01*
X-32385Y-622935D01*
X-32485Y-622937D01*
X-32584Y-622943D01*
X-32684Y-622953D01*
X-32782Y-622966D01*
X-32881Y-622984D01*
X-32978Y-623005D01*
X-33074Y-623030D01*
X-33170Y-623059D01*
X-33264Y-623092D01*
X-33357Y-623128D01*
X-33448Y-623168D01*
X-33538Y-623212D01*
X-33626Y-623259D01*
X-33712Y-623309D01*
X-33796Y-623363D01*
X-33878Y-623420D01*
X-33957Y-623480D01*
X-34035Y-623544D01*
X-34109Y-623610D01*
X-34181Y-623679D01*
X-34250Y-623751D01*
X-34316Y-623825D01*
X-34380Y-623903D01*
X-34440Y-623982D01*
X-34497Y-624064D01*
X-34551Y-624148D01*
X-34601Y-624234D01*
X-34648Y-624322D01*
X-34692Y-624412D01*
X-34732Y-624503D01*
X-34768Y-624596D01*
X-34801Y-624690D01*
X-34830Y-624786D01*
X-34855Y-624882D01*
X-34876Y-624979D01*
X-34894Y-625078D01*
X-34907Y-625176D01*
X-34917Y-625276D01*
X-34923Y-625375D01*
X-34925Y-625475D01*
X-34925Y-629285D01*
X-40005Y-629285D01*
X-40005Y-622935D01*
X-83185Y-635635D02*
X-85725Y-632460D01*
X-74295Y-632460D01*
X-74295Y-635635D02*
X-74295Y-629285D01*
X-34925Y-758825D02*
X-34925Y-762635D01*
X-34925Y-758825D02*
X-34923Y-758725D01*
X-34917Y-758626D01*
X-34907Y-758526D01*
X-34894Y-758428D01*
X-34876Y-758329D01*
X-34855Y-758232D01*
X-34830Y-758136D01*
X-34801Y-758040D01*
X-34768Y-757946D01*
X-34732Y-757853D01*
X-34692Y-757762D01*
X-34648Y-757672D01*
X-34601Y-757584D01*
X-34551Y-757498D01*
X-34497Y-757414D01*
X-34440Y-757332D01*
X-34380Y-757253D01*
X-34316Y-757175D01*
X-34250Y-757101D01*
X-34181Y-757029D01*
X-34109Y-756960D01*
X-34035Y-756894D01*
X-33957Y-756830D01*
X-33878Y-756770D01*
X-33796Y-756713D01*
X-33712Y-756659D01*
X-33626Y-756609D01*
X-33538Y-756562D01*
X-33448Y-756518D01*
X-33357Y-756478D01*
X-33264Y-756442D01*
X-33170Y-756409D01*
X-33074Y-756380D01*
X-32978Y-756355D01*
X-32881Y-756334D01*
X-32782Y-756316D01*
X-32684Y-756303D01*
X-32584Y-756293D01*
X-32485Y-756287D01*
X-32385Y-756285D01*
X-31750Y-756285D01*
X-31639Y-756287D01*
X-31529Y-756293D01*
X-31418Y-756302D01*
X-31308Y-756316D01*
X-31199Y-756333D01*
X-31090Y-756354D01*
X-30982Y-756379D01*
X-30875Y-756408D01*
X-30769Y-756440D01*
X-30664Y-756476D01*
X-30561Y-756516D01*
X-30459Y-756559D01*
X-30358Y-756606D01*
X-30259Y-756657D01*
X-30162Y-756710D01*
X-30068Y-756767D01*
X-29975Y-756828D01*
X-29884Y-756891D01*
X-29795Y-756958D01*
X-29709Y-757028D01*
X-29626Y-757101D01*
X-29544Y-757176D01*
X-29466Y-757254D01*
X-29391Y-757336D01*
X-29318Y-757419D01*
X-29248Y-757505D01*
X-29181Y-757594D01*
X-29118Y-757685D01*
X-29057Y-757778D01*
X-29000Y-757873D01*
X-28947Y-757969D01*
X-28896Y-758068D01*
X-28849Y-758169D01*
X-28806Y-758271D01*
X-28766Y-758374D01*
X-28730Y-758479D01*
X-28698Y-758585D01*
X-28669Y-758692D01*
X-28644Y-758800D01*
X-28623Y-758909D01*
X-28606Y-759018D01*
X-28592Y-759128D01*
X-28583Y-759239D01*
X-28577Y-759349D01*
X-28575Y-759460D01*
X-28577Y-759571D01*
X-28583Y-759681D01*
X-28592Y-759792D01*
X-28606Y-759902D01*
X-28623Y-760011D01*
X-28644Y-760120D01*
X-28669Y-760228D01*
X-28698Y-760335D01*
X-28730Y-760441D01*
X-28766Y-760546D01*
X-28806Y-760649D01*
X-28849Y-760751D01*
X-28896Y-760852D01*
X-28947Y-760951D01*
X-29000Y-761048D01*
X-29057Y-761142D01*
X-29118Y-761235D01*
X-29181Y-761326D01*
X-29248Y-761415D01*
X-29318Y-761501D01*
X-29391Y-761584D01*
X-29466Y-761666D01*
X-29544Y-761744D01*
X-29626Y-761819D01*
X-29709Y-761892D01*
X-29795Y-761962D01*
X-29884Y-762029D01*
X-29975Y-762092D01*
X-30068Y-762153D01*
X-30163Y-762210D01*
X-30259Y-762263D01*
X-30358Y-762314D01*
X-30459Y-762361D01*
X-30561Y-762404D01*
X-30664Y-762444D01*
X-30769Y-762480D01*
X-30875Y-762512D01*
X-30982Y-762541D01*
X-31090Y-762566D01*
X-31199Y-762587D01*
X-31308Y-762604D01*
X-31418Y-762618D01*
X-31529Y-762627D01*
X-31639Y-762633D01*
X-31750Y-762635D01*
X-34925Y-762635D01*
X-35065Y-762633D01*
X-35205Y-762627D01*
X-35345Y-762618D01*
X-35484Y-762604D01*
X-35623Y-762587D01*
X-35761Y-762566D01*
X-35899Y-762541D01*
X-36036Y-762512D01*
X-36172Y-762480D01*
X-36307Y-762443D01*
X-36441Y-762403D01*
X-36574Y-762360D01*
X-36706Y-762312D01*
X-36837Y-762262D01*
X-36966Y-762207D01*
X-37093Y-762149D01*
X-37219Y-762088D01*
X-37343Y-762023D01*
X-37465Y-761954D01*
X-37585Y-761883D01*
X-37703Y-761808D01*
X-37820Y-761730D01*
X-37934Y-761648D01*
X-38045Y-761564D01*
X-38154Y-761476D01*
X-38261Y-761386D01*
X-38366Y-761292D01*
X-38467Y-761196D01*
X-38566Y-761097D01*
X-38662Y-760996D01*
X-38756Y-760891D01*
X-38846Y-760784D01*
X-38934Y-760675D01*
X-39018Y-760564D01*
X-39100Y-760450D01*
X-39178Y-760333D01*
X-39253Y-760215D01*
X-39324Y-760095D01*
X-39393Y-759973D01*
X-39458Y-759849D01*
X-39519Y-759723D01*
X-39577Y-759596D01*
X-39632Y-759467D01*
X-39682Y-759336D01*
X-39730Y-759204D01*
X-39773Y-759071D01*
X-39813Y-758937D01*
X-39850Y-758802D01*
X-39882Y-758666D01*
X-39911Y-758529D01*
X-39936Y-758391D01*
X-39957Y-758253D01*
X-39974Y-758114D01*
X-39988Y-757975D01*
X-39997Y-757835D01*
X-40003Y-757695D01*
X-40005Y-757555D01*
D17*
X375920Y-561340D02*
X375920Y-518160D01*
X436880Y-518160D02*
X436880Y-561340D01*
X416560Y-509270D02*
X396420Y-509270D01*
X396120Y-570230D02*
X416560Y-570230D01*
X388620Y-539750D02*
X388625Y-539314D01*
X388641Y-538878D01*
X388668Y-538442D01*
X388706Y-538007D01*
X388754Y-537574D01*
X388812Y-537141D01*
X388882Y-536710D01*
X388962Y-536281D01*
X389052Y-535854D01*
X389153Y-535430D01*
X389264Y-535008D01*
X389386Y-534589D01*
X389517Y-534173D01*
X389659Y-533760D01*
X389811Y-533351D01*
X389973Y-532946D01*
X390145Y-532545D01*
X390327Y-532148D01*
X390518Y-531756D01*
X390719Y-531369D01*
X390930Y-530986D01*
X391150Y-530609D01*
X391379Y-530238D01*
X391616Y-529872D01*
X391863Y-529512D01*
X392119Y-529158D01*
X392383Y-528811D01*
X392656Y-528470D01*
X392937Y-528137D01*
X393226Y-527810D01*
X393523Y-527490D01*
X393828Y-527178D01*
X394140Y-526873D01*
X394460Y-526576D01*
X394787Y-526287D01*
X395120Y-526006D01*
X395461Y-525733D01*
X395808Y-525469D01*
X396162Y-525213D01*
X396522Y-524966D01*
X396888Y-524729D01*
X397259Y-524500D01*
X397636Y-524280D01*
X398019Y-524069D01*
X398406Y-523868D01*
X398798Y-523677D01*
X399195Y-523495D01*
X399596Y-523323D01*
X400001Y-523161D01*
X400410Y-523009D01*
X400823Y-522867D01*
X401239Y-522736D01*
X401658Y-522614D01*
X402080Y-522503D01*
X402504Y-522402D01*
X402931Y-522312D01*
X403360Y-522232D01*
X403791Y-522162D01*
X404224Y-522104D01*
X404657Y-522056D01*
X405092Y-522018D01*
X405528Y-521991D01*
X405964Y-521975D01*
X406400Y-521970D01*
X406836Y-521975D01*
X407272Y-521991D01*
X407708Y-522018D01*
X408143Y-522056D01*
X408576Y-522104D01*
X409009Y-522162D01*
X409440Y-522232D01*
X409869Y-522312D01*
X410296Y-522402D01*
X410720Y-522503D01*
X411142Y-522614D01*
X411561Y-522736D01*
X411977Y-522867D01*
X412390Y-523009D01*
X412799Y-523161D01*
X413204Y-523323D01*
X413605Y-523495D01*
X414002Y-523677D01*
X414394Y-523868D01*
X414781Y-524069D01*
X415164Y-524280D01*
X415541Y-524500D01*
X415912Y-524729D01*
X416278Y-524966D01*
X416638Y-525213D01*
X416992Y-525469D01*
X417339Y-525733D01*
X417680Y-526006D01*
X418013Y-526287D01*
X418340Y-526576D01*
X418660Y-526873D01*
X418972Y-527178D01*
X419277Y-527490D01*
X419574Y-527810D01*
X419863Y-528137D01*
X420144Y-528470D01*
X420417Y-528811D01*
X420681Y-529158D01*
X420937Y-529512D01*
X421184Y-529872D01*
X421421Y-530238D01*
X421650Y-530609D01*
X421870Y-530986D01*
X422081Y-531369D01*
X422282Y-531756D01*
X422473Y-532148D01*
X422655Y-532545D01*
X422827Y-532946D01*
X422989Y-533351D01*
X423141Y-533760D01*
X423283Y-534173D01*
X423414Y-534589D01*
X423536Y-535008D01*
X423647Y-535430D01*
X423748Y-535854D01*
X423838Y-536281D01*
X423918Y-536710D01*
X423988Y-537141D01*
X424046Y-537574D01*
X424094Y-538007D01*
X424132Y-538442D01*
X424159Y-538878D01*
X424175Y-539314D01*
X424180Y-539750D01*
X424175Y-540186D01*
X424159Y-540622D01*
X424132Y-541058D01*
X424094Y-541493D01*
X424046Y-541926D01*
X423988Y-542359D01*
X423918Y-542790D01*
X423838Y-543219D01*
X423748Y-543646D01*
X423647Y-544070D01*
X423536Y-544492D01*
X423414Y-544911D01*
X423283Y-545327D01*
X423141Y-545740D01*
X422989Y-546149D01*
X422827Y-546554D01*
X422655Y-546955D01*
X422473Y-547352D01*
X422282Y-547744D01*
X422081Y-548131D01*
X421870Y-548514D01*
X421650Y-548891D01*
X421421Y-549262D01*
X421184Y-549628D01*
X420937Y-549988D01*
X420681Y-550342D01*
X420417Y-550689D01*
X420144Y-551030D01*
X419863Y-551363D01*
X419574Y-551690D01*
X419277Y-552010D01*
X418972Y-552322D01*
X418660Y-552627D01*
X418340Y-552924D01*
X418013Y-553213D01*
X417680Y-553494D01*
X417339Y-553767D01*
X416992Y-554031D01*
X416638Y-554287D01*
X416278Y-554534D01*
X415912Y-554771D01*
X415541Y-555000D01*
X415164Y-555220D01*
X414781Y-555431D01*
X414394Y-555632D01*
X414002Y-555823D01*
X413605Y-556005D01*
X413204Y-556177D01*
X412799Y-556339D01*
X412390Y-556491D01*
X411977Y-556633D01*
X411561Y-556764D01*
X411142Y-556886D01*
X410720Y-556997D01*
X410296Y-557098D01*
X409869Y-557188D01*
X409440Y-557268D01*
X409009Y-557338D01*
X408576Y-557396D01*
X408143Y-557444D01*
X407708Y-557482D01*
X407272Y-557509D01*
X406836Y-557525D01*
X406400Y-557530D01*
X405964Y-557525D01*
X405528Y-557509D01*
X405092Y-557482D01*
X404657Y-557444D01*
X404224Y-557396D01*
X403791Y-557338D01*
X403360Y-557268D01*
X402931Y-557188D01*
X402504Y-557098D01*
X402080Y-556997D01*
X401658Y-556886D01*
X401239Y-556764D01*
X400823Y-556633D01*
X400410Y-556491D01*
X400001Y-556339D01*
X399596Y-556177D01*
X399195Y-556005D01*
X398798Y-555823D01*
X398406Y-555632D01*
X398019Y-555431D01*
X397636Y-555220D01*
X397259Y-555000D01*
X396888Y-554771D01*
X396522Y-554534D01*
X396162Y-554287D01*
X395808Y-554031D01*
X395461Y-553767D01*
X395120Y-553494D01*
X394787Y-553213D01*
X394460Y-552924D01*
X394140Y-552627D01*
X393828Y-552322D01*
X393523Y-552010D01*
X393226Y-551690D01*
X392937Y-551363D01*
X392656Y-551030D01*
X392383Y-550689D01*
X392119Y-550342D01*
X391863Y-549988D01*
X391616Y-549628D01*
X391379Y-549262D01*
X391150Y-548891D01*
X390930Y-548514D01*
X390719Y-548131D01*
X390518Y-547744D01*
X390327Y-547352D01*
X390145Y-546955D01*
X389973Y-546554D01*
X389811Y-546149D01*
X389659Y-545740D01*
X389517Y-545327D01*
X389386Y-544911D01*
X389264Y-544492D01*
X389153Y-544070D01*
X389052Y-543646D01*
X388962Y-543219D01*
X388882Y-542790D01*
X388812Y-542359D01*
X388754Y-541926D01*
X388706Y-541493D01*
X388668Y-541058D01*
X388641Y-540622D01*
X388625Y-540186D01*
X388620Y-539750D01*
D10*
X367665Y-560705D02*
X367663Y-560605D01*
X367657Y-560506D01*
X367647Y-560406D01*
X367634Y-560308D01*
X367616Y-560209D01*
X367595Y-560112D01*
X367570Y-560016D01*
X367541Y-559920D01*
X367508Y-559826D01*
X367472Y-559733D01*
X367432Y-559642D01*
X367388Y-559552D01*
X367341Y-559464D01*
X367291Y-559378D01*
X367237Y-559294D01*
X367180Y-559212D01*
X367120Y-559133D01*
X367056Y-559055D01*
X366990Y-558981D01*
X366921Y-558909D01*
X366849Y-558840D01*
X366775Y-558774D01*
X366697Y-558710D01*
X366618Y-558650D01*
X366536Y-558593D01*
X366452Y-558539D01*
X366366Y-558489D01*
X366278Y-558442D01*
X366188Y-558398D01*
X366097Y-558358D01*
X366004Y-558322D01*
X365910Y-558289D01*
X365814Y-558260D01*
X365718Y-558235D01*
X365621Y-558214D01*
X365522Y-558196D01*
X365424Y-558183D01*
X365324Y-558173D01*
X365225Y-558167D01*
X365125Y-558165D01*
X367665Y-560705D02*
X367663Y-560846D01*
X367658Y-560987D01*
X367648Y-561128D01*
X367635Y-561269D01*
X367619Y-561409D01*
X367598Y-561549D01*
X367574Y-561688D01*
X367546Y-561827D01*
X367515Y-561964D01*
X367480Y-562101D01*
X367442Y-562237D01*
X367400Y-562372D01*
X367354Y-562505D01*
X367305Y-562638D01*
X367252Y-562769D01*
X367196Y-562898D01*
X367137Y-563027D01*
X367074Y-563153D01*
X367008Y-563278D01*
X366939Y-563401D01*
X366866Y-563522D01*
X366790Y-563641D01*
X366711Y-563759D01*
X366630Y-563874D01*
X366545Y-563986D01*
X366457Y-564097D01*
X366366Y-564205D01*
X366273Y-564311D01*
X366176Y-564414D01*
X366077Y-564515D01*
X358775Y-564198D02*
X358675Y-564196D01*
X358576Y-564190D01*
X358476Y-564180D01*
X358378Y-564167D01*
X358279Y-564149D01*
X358182Y-564128D01*
X358086Y-564103D01*
X357990Y-564074D01*
X357896Y-564041D01*
X357803Y-564005D01*
X357712Y-563965D01*
X357622Y-563921D01*
X357534Y-563874D01*
X357448Y-563824D01*
X357364Y-563770D01*
X357282Y-563713D01*
X357203Y-563653D01*
X357125Y-563589D01*
X357051Y-563523D01*
X356979Y-563454D01*
X356910Y-563382D01*
X356844Y-563308D01*
X356780Y-563230D01*
X356720Y-563151D01*
X356663Y-563069D01*
X356609Y-562985D01*
X356559Y-562899D01*
X356512Y-562811D01*
X356468Y-562721D01*
X356428Y-562630D01*
X356392Y-562537D01*
X356359Y-562443D01*
X356330Y-562347D01*
X356305Y-562251D01*
X356284Y-562154D01*
X356266Y-562055D01*
X356253Y-561957D01*
X356243Y-561857D01*
X356237Y-561758D01*
X356235Y-561658D01*
X356237Y-561525D01*
X356242Y-561392D01*
X356252Y-561259D01*
X356265Y-561126D01*
X356282Y-560994D01*
X356302Y-560862D01*
X356326Y-560731D01*
X356354Y-560601D01*
X356385Y-560471D01*
X356420Y-560343D01*
X356459Y-560215D01*
X356501Y-560089D01*
X356547Y-559964D01*
X356596Y-559840D01*
X356648Y-559717D01*
X356704Y-559596D01*
X356764Y-559477D01*
X356826Y-559359D01*
X356892Y-559244D01*
X356961Y-559130D01*
X357034Y-559018D01*
X357109Y-558908D01*
X357188Y-558800D01*
X360998Y-562928D02*
X360946Y-563012D01*
X360891Y-563095D01*
X360832Y-563175D01*
X360771Y-563253D01*
X360707Y-563328D01*
X360639Y-563401D01*
X360569Y-563472D01*
X360497Y-563539D01*
X360422Y-563604D01*
X360344Y-563666D01*
X360264Y-563725D01*
X360182Y-563781D01*
X360098Y-563833D01*
X360012Y-563882D01*
X359924Y-563928D01*
X359834Y-563971D01*
X359743Y-564010D01*
X359650Y-564045D01*
X359556Y-564077D01*
X359461Y-564105D01*
X359365Y-564130D01*
X359268Y-564150D01*
X359170Y-564168D01*
X359072Y-564181D01*
X358973Y-564190D01*
X358874Y-564196D01*
X358775Y-564198D01*
X362902Y-559435D02*
X362954Y-559351D01*
X363009Y-559268D01*
X363068Y-559188D01*
X363129Y-559110D01*
X363193Y-559035D01*
X363261Y-558962D01*
X363331Y-558891D01*
X363403Y-558824D01*
X363478Y-558759D01*
X363556Y-558697D01*
X363636Y-558638D01*
X363718Y-558582D01*
X363802Y-558530D01*
X363888Y-558481D01*
X363976Y-558435D01*
X364066Y-558392D01*
X364157Y-558353D01*
X364250Y-558318D01*
X364344Y-558286D01*
X364439Y-558258D01*
X364535Y-558233D01*
X364632Y-558213D01*
X364730Y-558195D01*
X364828Y-558182D01*
X364927Y-558173D01*
X365026Y-558167D01*
X365125Y-558165D01*
X362903Y-559435D02*
X360998Y-562928D01*
X356235Y-549974D02*
X356237Y-549870D01*
X356243Y-549765D01*
X356252Y-549661D01*
X356265Y-549558D01*
X356283Y-549455D01*
X356303Y-549353D01*
X356328Y-549251D01*
X356356Y-549151D01*
X356388Y-549051D01*
X356424Y-548953D01*
X356463Y-548856D01*
X356505Y-548761D01*
X356551Y-548667D01*
X356601Y-548575D01*
X356653Y-548485D01*
X356709Y-548397D01*
X356769Y-548311D01*
X356831Y-548227D01*
X356896Y-548146D01*
X356964Y-548067D01*
X357036Y-547990D01*
X357109Y-547917D01*
X357186Y-547845D01*
X357265Y-547777D01*
X357346Y-547712D01*
X357430Y-547650D01*
X357516Y-547590D01*
X357604Y-547534D01*
X357694Y-547482D01*
X357786Y-547432D01*
X357880Y-547386D01*
X357975Y-547344D01*
X358072Y-547305D01*
X358170Y-547269D01*
X358270Y-547237D01*
X358370Y-547209D01*
X358472Y-547184D01*
X358574Y-547164D01*
X358677Y-547146D01*
X358780Y-547133D01*
X358884Y-547124D01*
X358989Y-547118D01*
X359093Y-547116D01*
X356235Y-549974D02*
X356237Y-550092D01*
X356243Y-550211D01*
X356252Y-550329D01*
X356265Y-550446D01*
X356283Y-550563D01*
X356303Y-550680D01*
X356328Y-550796D01*
X356356Y-550911D01*
X356389Y-551024D01*
X356424Y-551137D01*
X356464Y-551249D01*
X356506Y-551359D01*
X356553Y-551468D01*
X356603Y-551576D01*
X356656Y-551681D01*
X356713Y-551785D01*
X356773Y-551887D01*
X356836Y-551987D01*
X356903Y-552085D01*
X356972Y-552181D01*
X357045Y-552274D01*
X357121Y-552365D01*
X357199Y-552454D01*
X357281Y-552540D01*
X357365Y-552623D01*
X357451Y-552704D01*
X357541Y-552781D01*
X357632Y-552856D01*
X357726Y-552928D01*
X357823Y-552997D01*
X357921Y-553062D01*
X358022Y-553125D01*
X358125Y-553184D01*
X358229Y-553240D01*
X358335Y-553292D01*
X358443Y-553341D01*
X358552Y-553386D01*
X358663Y-553428D01*
X358775Y-553466D01*
X361315Y-548068D02*
X361240Y-547992D01*
X361161Y-547917D01*
X361080Y-547846D01*
X360996Y-547777D01*
X360910Y-547712D01*
X360822Y-547650D01*
X360732Y-547590D01*
X360640Y-547534D01*
X360545Y-547481D01*
X360449Y-547432D01*
X360351Y-547386D01*
X360252Y-547343D01*
X360151Y-547304D01*
X360049Y-547269D01*
X359946Y-547237D01*
X359842Y-547209D01*
X359737Y-547184D01*
X359630Y-547163D01*
X359524Y-547146D01*
X359417Y-547133D01*
X359309Y-547124D01*
X359201Y-547118D01*
X359093Y-547116D01*
X361315Y-548069D02*
X367665Y-553466D01*
X367665Y-547116D01*
M02*
