G04 EAGLE Gerber X2 export*
%TF.Part,Single*%
%TF.FileFunction,Soldermask,Bot,1*%
%TF.FilePolarity,Negative*%
%TF.GenerationSoftware,Autodesk,EAGLE,8.7.0*%
%TF.CreationDate,2018-03-20T17:42:44Z*%
G75*
%MOMM*%
%FSLAX34Y34*%
%LPD*%
%AMOC8*
5,1,8,0,0,1.08239X$1,22.5*%
G01*
%ADD10C,3.203200*%
%ADD11R,1.711200X1.711200*%
%ADD12C,1.711200*%
%ADD13C,1.854200*%
%ADD14P,4.343848X8X202.500000*%
%ADD15C,6.680200*%
%ADD16P,1.759533X8X292.500000*%
%ADD17C,1.625600*%
%ADD18P,1.759533X8X112.500000*%
%ADD19P,2.034460X8X202.500000*%
%ADD20P,2.034460X8X292.500000*%
%ADD21C,4.419200*%
%ADD22C,4.019200*%
%ADD23P,1.869504X8X112.500000*%
%ADD24C,1.524000*%
%ADD25C,1.727200*%
%ADD26C,2.082800*%


D10*
X-279400Y-1117600D03*
X635000Y-1117600D03*
X635000Y-501650D03*
X-279400Y-501650D03*
D11*
X38100Y-679450D03*
D12*
X38100Y-704850D03*
X38100Y-730250D03*
X38100Y-755650D03*
X38100Y-781050D03*
X38100Y-806450D03*
X38100Y-831850D03*
X38100Y-857250D03*
X38100Y-882650D03*
X38100Y-908050D03*
X38100Y-933450D03*
X38100Y-958850D03*
X190500Y-679450D03*
X190500Y-704850D03*
X190500Y-730250D03*
X190500Y-755650D03*
X190500Y-781050D03*
X190500Y-806450D03*
X190500Y-857250D03*
X190500Y-882650D03*
X190500Y-933450D03*
X190500Y-958850D03*
X190500Y-908050D03*
X190500Y-831850D03*
X38100Y-984250D03*
X38100Y-1009650D03*
X38100Y-1035050D03*
X190500Y-984250D03*
X190500Y-1009650D03*
X190500Y-1035050D03*
D13*
X38100Y-1060450D03*
X190500Y-1060450D03*
X190500Y-654050D03*
X38100Y-654050D03*
D14*
X468630Y-758190D03*
X468630Y-867410D03*
D15*
X299720Y-812800D03*
X601980Y-812800D03*
D16*
X298450Y-943610D03*
D17*
X298450Y-923290D03*
D18*
X603250Y-694690D03*
D17*
X603250Y-715010D03*
D19*
X558800Y-628650D03*
X457200Y-628650D03*
D20*
X381000Y-628650D03*
X381000Y-654050D03*
D21*
X450850Y-994300D03*
D22*
X450850Y-1056800D03*
X498850Y-1022800D03*
D23*
X-203200Y-1035050D03*
X-203200Y-1009650D03*
X-203200Y-984250D03*
X-203200Y-958850D03*
X-203200Y-933450D03*
X-203200Y-908050D03*
X-228600Y-1035050D03*
X-228600Y-1009650D03*
X-228600Y-984250D03*
X-228600Y-958850D03*
X-228600Y-933450D03*
X-228600Y-908050D03*
X-203200Y-882650D03*
X-228600Y-882650D03*
D24*
X-70104Y-1022350D02*
X-56896Y-1022350D01*
X-56896Y-996950D02*
X-70104Y-996950D01*
X-70104Y-869950D02*
X-56896Y-869950D01*
X-56896Y-844550D02*
X-70104Y-844550D01*
X-70104Y-971550D02*
X-56896Y-971550D01*
X-56896Y-946150D02*
X-70104Y-946150D01*
X-70104Y-895350D02*
X-56896Y-895350D01*
X-56896Y-920750D02*
X-70104Y-920750D01*
X-133096Y-844550D02*
X-146304Y-844550D01*
X-146304Y-869950D02*
X-133096Y-869950D01*
X-133096Y-895350D02*
X-146304Y-895350D01*
X-146304Y-920750D02*
X-133096Y-920750D01*
X-133096Y-946150D02*
X-146304Y-946150D01*
X-146304Y-971550D02*
X-133096Y-971550D01*
X-133096Y-996950D02*
X-146304Y-996950D01*
X-146304Y-1022350D02*
X-133096Y-1022350D01*
D25*
X177800Y-579120D02*
X177800Y-563880D01*
X152400Y-563880D02*
X152400Y-579120D01*
X127000Y-579120D02*
X127000Y-563880D01*
X101600Y-563880D02*
X101600Y-579120D01*
X76200Y-579120D02*
X76200Y-563880D01*
X50800Y-563880D02*
X50800Y-579120D01*
X-49530Y-635000D02*
X-64770Y-635000D01*
X-64770Y-660400D02*
X-49530Y-660400D01*
X-49530Y-685800D02*
X-64770Y-685800D01*
X-64770Y-711200D02*
X-49530Y-711200D01*
X-49530Y-736600D02*
X-64770Y-736600D01*
X-64770Y-762000D02*
X-49530Y-762000D01*
D26*
X383794Y-572262D03*
X383794Y-507238D03*
X429006Y-572262D03*
X429006Y-507238D03*
M02*
