G75*
%MOMM*%
%OFA0B0*%
%FSLAX33Y33*%
%IPPOS*%
%LPD*%
%AMOC8*
5,1,8,0,0,1.08239X$1,22.5*
%
%ADD10C,0.152*%
%ADD11C,0.130*%
D10*
X07009Y114630D02*
X07009Y00330D01*
X678839Y00330D01*
X678839Y114630D01*
X07009Y114630D01*
X339583Y119448D02*
X339041Y119177D01*
X338498Y118634D01*
X338498Y118092D01*
X338769Y117821D01*
X339312Y117821D01*
X339583Y118092D01*
X339583Y118363D01*
X339312Y118634D01*
X338498Y118634D01*
X340135Y119448D02*
X341220Y119448D01*
X341220Y119177D01*
X340135Y118092D01*
X340135Y117821D01*
X341772Y118906D02*
X342315Y119448D01*
X342315Y117821D01*
X342857Y117821D02*
X341772Y117821D01*
X343410Y117821D02*
X343410Y118092D01*
X343681Y118092D01*
X343681Y117821D01*
X343410Y117821D01*
X344228Y119177D02*
X344499Y119448D01*
X345042Y119448D01*
X345313Y119177D01*
X345313Y118906D01*
X345042Y118634D01*
X345313Y118363D01*
X345313Y118092D01*
X345042Y117821D01*
X344499Y117821D01*
X344228Y118092D01*
X344228Y118363D01*
X344499Y118634D01*
X344228Y118906D01*
X344228Y119177D01*
X344499Y118634D02*
X345042Y118634D01*
X345865Y119177D02*
X346137Y119448D01*
X346679Y119448D01*
X346950Y119177D01*
X346950Y118906D01*
X346679Y118634D01*
X346408Y118634D01*
X346679Y118634D02*
X346950Y118363D01*
X346950Y118092D01*
X346679Y117821D01*
X346137Y117821D01*
X345865Y118092D01*
X01464Y53054D02*
X00921Y53597D01*
X02548Y53597D01*
X02548Y54139D02*
X02548Y53054D01*
X01464Y54691D02*
X00921Y55234D01*
X02548Y55234D01*
X02548Y55776D02*
X02548Y54691D01*
X02548Y57142D02*
X00921Y57142D01*
X01735Y56329D01*
X01735Y57413D01*
X02548Y57966D02*
X02277Y57966D01*
X02277Y58237D01*
X02548Y58237D01*
X02548Y57966D01*
X01193Y58784D02*
X00921Y59055D01*
X00921Y59598D01*
X01193Y59869D01*
X01464Y59869D01*
X01735Y59598D01*
X01735Y59327D01*
X01735Y59598D02*
X02006Y59869D01*
X02277Y59869D01*
X02548Y59598D01*
X02548Y59055D01*
X02277Y58784D01*
X02277Y60421D02*
X01193Y60421D01*
X00921Y60693D01*
X00921Y61235D01*
X01193Y61506D01*
X02277Y61506D01*
X02548Y61235D01*
X02548Y60693D01*
X02277Y60421D01*
X01193Y61506D01*
D11*
X678839Y114630D02*
X678839Y119120D01*
X07009Y119120D02*
X07009Y114630D01*
X07074Y117170D02*
X678774Y117170D01*
X676239Y117489D01*
X676239Y116851D01*
X678774Y117170D01*
X676239Y117300D01*
X676239Y117040D02*
X678774Y117170D01*
X676239Y117430D01*
X676239Y116910D02*
X678774Y117170D01*
X07074Y117170D02*
X09609Y117489D01*
X09609Y116851D01*
X07074Y117170D01*
X09609Y117300D01*
X09609Y117040D02*
X07074Y117170D01*
X09609Y117430D01*
X09609Y116910D02*
X07074Y117170D01*
X07009Y114630D02*
X01249Y114630D01*
X01249Y00330D02*
X07009Y00330D01*
X03199Y00395D02*
X03199Y114565D01*
X02880Y112030D01*
X03518Y112030D01*
X03199Y114565D01*
X03069Y112030D01*
X03329Y112030D02*
X03199Y114565D01*
X02939Y112030D01*
X03459Y112030D02*
X03199Y114565D01*
X03199Y00395D02*
X02880Y02930D01*
X03518Y02930D01*
X03199Y00395D01*
X03069Y02930D01*
X03329Y02930D02*
X03199Y00395D01*
X02939Y02930D01*
X03459Y02930D02*
X03199Y00395D01*
M02*
