%
M48
METRIC,TZ,000.000
T01C0.812800
T02C1.000000
T03C1.016000
%
T01
X18439Y67640
X18439Y70180
X18439Y59385
X18439Y61925
X18439Y51130
X18439Y53670
X18439Y42875
X18439Y45415
X18439Y34620
X18439Y37160
X18439Y26365
X18439Y28905
X18439Y18110
X18439Y20650
X18439Y9855
X18439Y12395
X27329Y67640
X27329Y70180
X27329Y59385
X27329Y61925
X27329Y51130
X27329Y53670
X27329Y42875
X27329Y45415
X27329Y34620
X27329Y37160
X27329Y26365
X27329Y28905
X27329Y18110
X27329Y20650
X27329Y9855
X27329Y12395
X36219Y67640
X36219Y70180
X36219Y59385
X36219Y61925
X36219Y51130
X36219Y53670
X36219Y42875
X36219Y45415
X36219Y34620
X36219Y37160
X36219Y26365
X36219Y28905
X36219Y18110
X36219Y20650
X36219Y9855
X36219Y12395
X45109Y67640
X45109Y70180
X45109Y59385
X45109Y61925
X45109Y51130
X45109Y53670
X45109Y42875
X45109Y45415
X45109Y34620
X45109Y37160
X45109Y26365
X45109Y28905
X45109Y18110
X45109Y20650
X45109Y9855
X45109Y12395
X53999Y67640
X53999Y70180
X53999Y59385
X53999Y61925
X53999Y51130
X53999Y53670
X53999Y42875
X53999Y45415
X53999Y34620
X53999Y37160
X53999Y26365
X53999Y28905
X53999Y18110
X53999Y20650
X53999Y9855
X53999Y12395
X62889Y67640
X62889Y70180
X62889Y59385
X62889Y61925
X62889Y51130
X62889Y53670
X62889Y42875
X62889Y45415
X62889Y34620
X62889Y37160
X62889Y26365
X62889Y28905
X62889Y18110
X62889Y20650
X62889Y9855
X62889Y12395
X71779Y67640
X71779Y70180
X71779Y59385
X71779Y61925
X71779Y51130
X71779Y53670
X71779Y42875
X71779Y45415
X71779Y34620
X71779Y37160
X71779Y26365
X71779Y28905
X71779Y18110
X71779Y20650
X71779Y9855
X71779Y12395
X80669Y67640
X80669Y70180
X80669Y59385
X80669Y61925
X80669Y51130
X80669Y53670
X80669Y42875
X80669Y45415
X80669Y34620
X80669Y37160
X80669Y26365
X80669Y28905
X80669Y18110
X80669Y20650
X80669Y9855
X80669Y12395
X89559Y67640
X89559Y70180
X89559Y59385
X89559Y61925
X89559Y51130
X89559Y53670
X89559Y42875
X89559Y45415
X89559Y34620
X89559Y37160
X89559Y26365
X89559Y28905
X89559Y18110
X89559Y20650
X89559Y9855
X89559Y12395
X98449Y67640
X98449Y70180
X98449Y59385
X98449Y61925
X98449Y51130
X98449Y53670
X98449Y42875
X98449Y45415
X98449Y34620
X98449Y37160
X98449Y26365
X98449Y28905
X98449Y18110
X98449Y20650
X98449Y9855
X98449Y12395
X107339Y67640
X107339Y70180
X107339Y59385
X107339Y61925
X107339Y51130
X107339Y53670
X107339Y42875
X107339Y45415
X107339Y34620
X107339Y37160
X107339Y26365
X107339Y28905
X107339Y18110
X107339Y20650
X107339Y9855
X107339Y12395
X116229Y67640
X116229Y70180
X116229Y59385
X116229Y61925
X116229Y51130
X116229Y53670
X116229Y42875
X116229Y45415
X116229Y34620
X116229Y37160
X116229Y26365
X116229Y28905
X116229Y18110
X116229Y20650
X116229Y9855
X116229Y12395
X125119Y67640
X125119Y70180
X125119Y59385
X125119Y61925
X125119Y51130
X125119Y53670
X125119Y42875
X125119Y45415
X125119Y34620
X125119Y37160
X125119Y26365
X125119Y28905
X125119Y18110
X125119Y20650
X125119Y9855
X125119Y12395
X134009Y67640
X134009Y70180
X134009Y59385
X134009Y61925
X134009Y51130
X134009Y53670
X134009Y42875
X134009Y45415
X134009Y34620
X134009Y37160
X134009Y26365
X134009Y28905
X134009Y18110
X134009Y20650
X134009Y9855
X134009Y12395
X142899Y67640
X142899Y70180
X142899Y59385
X142899Y61925
X142899Y51130
X142899Y53670
X142899Y42875
X142899Y45415
X142899Y34620
X142899Y37160
X142899Y26365
X142899Y28905
X142899Y18110
X142899Y20650
X142899Y9855
X142899Y12395
X151789Y67640
X151789Y70180
X151789Y59385
X151789Y61925
X151789Y51130
X151789Y53670
X151789Y42875
X151789Y45415
X151789Y34620
X151789Y37160
X151789Y26365
X151789Y28905
X151789Y18110
X151789Y20650
X151789Y9855
X151789Y12395
X160679Y67640
X160679Y70180
X160679Y59385
X160679Y61925
X160679Y51130
X160679Y53670
X160679Y42875
X160679Y45415
X160679Y34620
X160679Y37160
X160679Y26365
X160679Y28905
X160679Y18110
X160679Y20650
X160679Y9855
X160679Y12395
X169569Y67640
X169569Y70180
X169569Y59385
X169569Y61925
X169569Y51130
X169569Y53670
X169569Y42875
X169569Y45415
X169569Y34620
X169569Y37160
X169569Y26365
X169569Y28905
X169569Y18110
X169569Y20650
X169569Y9855
X169569Y12395
X178459Y67640
X178459Y70180
X178459Y59385
X178459Y61925
X178459Y51130
X178459Y53670
X178459Y42875
X178459Y45415
X178459Y34620
X178459Y37160
X178459Y26365
X178459Y28905
X178459Y18110
X178459Y20650
X178459Y9855
X178459Y12395
X187349Y67640
X187349Y70180
X187349Y59385
X187349Y61925
X187349Y51130
X187349Y53670
X187349Y42875
X187349Y45415
X187349Y34620
X187349Y37160
X187349Y26365
X187349Y28905
X187349Y18110
X187349Y20650
X187349Y9855
X187349Y12395
X196239Y67640
X196239Y70180
X196239Y59385
X196239Y61925
X196239Y51130
X196239Y53670
X196239Y42875
X196239Y45415
X196239Y34620
X196239Y37160
X196239Y26365
X196239Y28905
X196239Y18110
X196239Y20650
X196239Y9855
X196239Y12395
X205129Y67640
X205129Y70180
X205129Y59385
X205129Y61925
X205129Y51130
X205129Y53670
X205129Y42875
X205129Y45415
X205129Y34620
X205129Y37160
X205129Y26365
X205129Y28905
X205129Y18110
X205129Y20650
X205129Y9855
X205129Y12395
X214019Y67640
X214019Y70180
X214019Y59385
X214019Y61925
X214019Y51130
X214019Y53670
X214019Y42875
X214019Y45415
X214019Y34620
X214019Y37160
X214019Y26365
X214019Y28905
X214019Y18110
X214019Y20650
X214019Y9855
X214019Y12395
X222909Y67640
X222909Y70180
X222909Y59385
X222909Y61925
X222909Y51130
X222909Y53670
X222909Y42875
X222909Y45415
X222909Y34620
X222909Y37160
X222909Y26365
X222909Y28905
X222909Y18110
X222909Y20650
X222909Y9855
X222909Y12395
X231799Y67640
X231799Y70180
X231799Y59385
X231799Y61925
X231799Y51130
X231799Y53670
X231799Y42875
X231799Y45415
X231799Y34620
X231799Y37160
X231799Y26365
X231799Y28905
X231799Y18110
X231799Y20650
X231799Y9855
X231799Y12395
X240689Y67640
X240689Y70180
X240689Y59385
X240689Y61925
X240689Y51130
X240689Y53670
X240689Y42875
X240689Y45415
X240689Y34620
X240689Y37160
X240689Y26365
X240689Y28905
X240689Y18110
X240689Y20650
X240689Y9855
X240689Y12395
X249579Y67640
X249579Y70180
X249579Y59385
X249579Y61925
X249579Y51130
X249579Y53670
X249579Y42875
X249579Y45415
X249579Y34620
X249579Y37160
X249579Y26365
X249579Y28905
X249579Y18110
X249579Y20650
X249579Y9855
X249579Y12395
X258469Y67640
X258469Y70180
X258469Y59385
X258469Y61925
X258469Y51130
X258469Y53670
X258469Y42875
X258469Y45415
X258469Y34620
X258469Y37160
X258469Y26365
X258469Y28905
X258469Y18110
X258469Y20650
X258469Y9855
X258469Y12395
X267359Y67640
X267359Y70180
X267359Y59385
X267359Y61925
X267359Y51130
X267359Y53670
X267359Y42875
X267359Y45415
X267359Y34620
X267359Y37160
X267359Y26365
X267359Y28905
X267359Y18110
X267359Y20650
X267359Y9855
X267359Y12395
X276249Y67640
X276249Y70180
X276249Y59385
X276249Y61925
X276249Y51130
X276249Y53670
X276249Y42875
X276249Y45415
X276249Y34620
X276249Y37160
X276249Y26365
X276249Y28905
X276249Y18110
X276249Y20650
X276249Y9855
X276249Y12395
X285139Y67640
X285139Y70180
X285139Y59385
X285139Y61925
X285139Y51130
X285139Y53670
X285139Y42875
X285139Y45415
X285139Y34620
X285139Y37160
X285139Y26365
X285139Y28905
X285139Y18110
X285139Y20650
X285139Y9855
X285139Y12395
X294029Y67640
X294029Y70180
X294029Y59385
X294029Y61925
X294029Y51130
X294029Y53670
X294029Y42875
X294029Y45415
X294029Y34620
X294029Y37160
X294029Y26365
X294029Y28905
X294029Y18110
X294029Y20650
X294029Y9855
X294029Y12395
X302919Y67640
X302919Y70180
X302919Y59385
X302919Y61925
X302919Y51130
X302919Y53670
X302919Y42875
X302919Y45415
X302919Y34620
X302919Y37160
X302919Y26365
X302919Y28905
X302919Y18110
X302919Y20650
X302919Y9855
X302919Y12395
X311809Y67640
X311809Y70180
X311809Y59385
X311809Y61925
X311809Y51130
X311809Y53670
X311809Y42875
X311809Y45415
X311809Y34620
X311809Y37160
X311809Y26365
X311809Y28905
X311809Y18110
X311809Y20650
X311809Y9855
X311809Y12395
X320699Y67640
X320699Y70180
X320699Y59385
X320699Y61925
X320699Y51130
X320699Y53670
X320699Y42875
X320699Y45415
X320699Y34620
X320699Y37160
X320699Y26365
X320699Y28905
X320699Y18110
X320699Y20650
X320699Y9855
X320699Y12395
X329589Y67640
X329589Y70180
X329589Y59385
X329589Y61925
X329589Y51130
X329589Y53670
X329589Y42875
X329589Y45415
X329589Y34620
X329589Y37160
X329589Y26365
X329589Y28905
X329589Y18110
X329589Y20650
X329589Y9855
X329589Y12395
X338479Y67640
X338479Y70180
X338479Y59385
X338479Y61925
X338479Y51130
X338479Y53670
X338479Y42875
X338479Y45415
X338479Y34620
X338479Y37160
X338479Y26365
X338479Y28905
X338479Y18110
X338479Y20650
X338479Y9855
X338479Y12395
X347369Y67640
X347369Y70180
X347369Y59385
X347369Y61925
X347369Y51130
X347369Y53670
X347369Y42875
X347369Y45415
X347369Y34620
X347369Y37160
X347369Y26365
X347369Y28905
X347369Y18110
X347369Y20650
X347369Y9855
X347369Y12395
X356259Y67640
X356259Y70180
X356259Y59385
X356259Y61925
X356259Y51130
X356259Y53670
X356259Y42875
X356259Y45415
X356259Y34620
X356259Y37160
X356259Y26365
X356259Y28905
X356259Y18110
X356259Y20650
X356259Y9855
X356259Y12395
X365149Y67640
X365149Y70180
X365149Y59385
X365149Y61925
X365149Y51130
X365149Y53670
X365149Y42875
X365149Y45415
X365149Y34620
X365149Y37160
X365149Y26365
X365149Y28905
X365149Y18110
X365149Y20650
X365149Y9855
X365149Y12395
X374039Y67640
X374039Y70180
X374039Y59385
X374039Y61925
X374039Y51130
X374039Y53670
X374039Y42875
X374039Y45415
X374039Y34620
X374039Y37160
X374039Y26365
X374039Y28905
X374039Y18110
X374039Y20650
X374039Y9855
X374039Y12395
X382929Y67640
X382929Y70180
X382929Y59385
X382929Y61925
X382929Y51130
X382929Y53670
X382929Y42875
X382929Y45415
X382929Y34620
X382929Y37160
X382929Y26365
X382929Y28905
X382929Y18110
X382929Y20650
X382929Y9855
X382929Y12395
X391819Y67640
X391819Y70180
X391819Y59385
X391819Y61925
X391819Y51130
X391819Y53670
X391819Y42875
X391819Y45415
X391819Y34620
X391819Y37160
X391819Y26365
X391819Y28905
X391819Y18110
X391819Y20650
X391819Y9855
X391819Y12395
X400709Y67640
X400709Y70180
X400709Y59385
X400709Y61925
X400709Y51130
X400709Y53670
X400709Y42875
X400709Y45415
X400709Y34620
X400709Y37160
X400709Y26365
X400709Y28905
X400709Y18110
X400709Y20650
X400709Y9855
X400709Y12395
X409599Y67640
X409599Y70180
X409599Y59385
X409599Y61925
X409599Y51130
X409599Y53670
X409599Y42875
X409599Y45415
X409599Y34620
X409599Y37160
X409599Y26365
X409599Y28905
X409599Y18110
X409599Y20650
X409599Y9855
X409599Y12395
X418489Y67640
X418489Y70180
X418489Y59385
X418489Y61925
X418489Y51130
X418489Y53670
X418489Y42875
X418489Y45415
X418489Y34620
X418489Y37160
X418489Y26365
X418489Y28905
X418489Y18110
X418489Y20650
X418489Y9855
X418489Y12395
X427379Y67640
X427379Y70180
X427379Y59385
X427379Y61925
X427379Y51130
X427379Y53670
X427379Y42875
X427379Y45415
X427379Y34620
X427379Y37160
X427379Y26365
X427379Y28905
X427379Y18110
X427379Y20650
X427379Y9855
X427379Y12395
X436269Y67640
X436269Y70180
X436269Y59385
X436269Y61925
X436269Y51130
X436269Y53670
X436269Y42875
X436269Y45415
X436269Y34620
X436269Y37160
X436269Y26365
X436269Y28905
X436269Y18110
X436269Y20650
X436269Y9855
X436269Y12395
X445159Y67640
X445159Y70180
X445159Y59385
X445159Y61925
X445159Y51130
X445159Y53670
X445159Y42875
X445159Y45415
X445159Y34620
X445159Y37160
X445159Y26365
X445159Y28905
X445159Y18110
X445159Y20650
X445159Y9855
X445159Y12395
X454049Y67640
X454049Y70180
X454049Y59385
X454049Y61925
X454049Y51130
X454049Y53670
X454049Y42875
X454049Y45415
X454049Y34620
X454049Y37160
X454049Y26365
X454049Y28905
X454049Y18110
X454049Y20650
X454049Y9855
X454049Y12395
X462939Y67640
X462939Y70180
X462939Y59385
X462939Y61925
X462939Y51130
X462939Y53670
X462939Y42875
X462939Y45415
X462939Y34620
X462939Y37160
X462939Y26365
X462939Y28905
X462939Y18110
X462939Y20650
X462939Y9855
X462939Y12395
X471829Y67640
X471829Y70180
X471829Y59385
X471829Y61925
X471829Y51130
X471829Y53670
X471829Y42875
X471829Y45415
X471829Y34620
X471829Y37160
X471829Y26365
X471829Y28905
X471829Y18110
X471829Y20650
X471829Y9855
X471829Y12395
X480719Y67640
X480719Y70180
X480719Y59385
X480719Y61925
X480719Y51130
X480719Y53670
X480719Y42875
X480719Y45415
X480719Y34620
X480719Y37160
X480719Y26365
X480719Y28905
X480719Y18110
X480719Y20650
X480719Y9855
X480719Y12395
X489609Y67640
X489609Y70180
X489609Y59385
X489609Y61925
X489609Y51130
X489609Y53670
X489609Y42875
X489609Y45415
X489609Y34620
X489609Y37160
X489609Y26365
X489609Y28905
X489609Y18110
X489609Y20650
X489609Y9855
X489609Y12395
X498499Y67640
X498499Y70180
X498499Y59385
X498499Y61925
X498499Y51130
X498499Y53670
X498499Y42875
X498499Y45415
X498499Y34620
X498499Y37160
X498499Y26365
X498499Y28905
X498499Y18110
X498499Y20650
X498499Y9855
X498499Y12395
X507389Y67640
X507389Y70180
X507389Y59385
X507389Y61925
X507389Y51130
X507389Y53670
X507389Y42875
X507389Y45415
X507389Y34620
X507389Y37160
X507389Y26365
X507389Y28905
X507389Y18110
X507389Y20650
X507389Y9855
X507389Y12395
X516279Y67640
X516279Y70180
X516279Y59385
X516279Y61925
X516279Y51130
X516279Y53670
X516279Y42875
X516279Y45415
X516279Y34620
X516279Y37160
X516279Y26365
X516279Y28905
X516279Y18110
X516279Y20650
X516279Y9855
X516279Y12395
X525169Y67640
X525169Y70180
X525169Y59385
X525169Y61925
X525169Y51130
X525169Y53670
X525169Y42875
X525169Y45415
X525169Y34620
X525169Y37160
X525169Y26365
X525169Y28905
X525169Y18110
X525169Y20650
X525169Y9855
X525169Y12395
X534059Y67640
X534059Y70180
X534059Y59385
X534059Y61925
X534059Y51130
X534059Y53670
X534059Y42875
X534059Y45415
X534059Y34620
X534059Y37160
X534059Y26365
X534059Y28905
X534059Y18110
X534059Y20650
X534059Y9855
X534059Y12395
X542949Y67640
X542949Y70180
X542949Y59385
X542949Y61925
X542949Y51130
X542949Y53670
X542949Y42875
X542949Y45415
X542949Y34620
X542949Y37160
X542949Y26365
X542949Y28905
X542949Y18110
X542949Y20650
X542949Y9855
X542949Y12395
X551839Y67640
X551839Y70180
X551839Y59385
X551839Y61925
X551839Y51130
X551839Y53670
X551839Y42875
X551839Y45415
X551839Y34620
X551839Y37160
X551839Y26365
X551839Y28905
X551839Y18110
X551839Y20650
X551839Y9855
X551839Y12395
X560729Y67640
X560729Y70180
X560729Y59385
X560729Y61925
X560729Y51130
X560729Y53670
X560729Y42875
X560729Y45415
X560729Y34620
X560729Y37160
X560729Y26365
X560729Y28905
X560729Y18110
X560729Y20650
X560729Y9855
X560729Y12395
X569619Y67640
X569619Y70180
X569619Y59385
X569619Y61925
X569619Y51130
X569619Y53670
X569619Y42875
X569619Y45415
X569619Y34620
X569619Y37160
X569619Y26365
X569619Y28905
X569619Y18110
X569619Y20650
X569619Y9855
X569619Y12395
X578509Y67640
X578509Y70180
X578509Y59385
X578509Y61925
X578509Y51130
X578509Y53670
X578509Y42875
X578509Y45415
X578509Y34620
X578509Y37160
X578509Y26365
X578509Y28905
X578509Y18110
X578509Y20650
X578509Y9855
X578509Y12395
X587399Y67640
X587399Y70180
X587399Y59385
X587399Y61925
X587399Y51130
X587399Y53670
X587399Y42875
X587399Y45415
X587399Y34620
X587399Y37160
X587399Y26365
X587399Y28905
X587399Y18110
X587399Y20650
X587399Y9855
X587399Y12395
X596289Y67640
X596289Y70180
X596289Y59385
X596289Y61925
X596289Y51130
X596289Y53670
X596289Y42875
X596289Y45415
X596289Y34620
X596289Y37160
X596289Y26365
X596289Y28905
X596289Y18110
X596289Y20650
X596289Y9855
X596289Y12395
X605179Y67640
X605179Y70180
X605179Y59385
X605179Y61925
X605179Y51130
X605179Y53670
X605179Y42875
X605179Y45415
X605179Y34620
X605179Y37160
X605179Y26365
X605179Y28905
X605179Y18110
X605179Y20650
X605179Y9855
X605179Y12395
X614069Y67640
X614069Y70180
X614069Y59385
X614069Y61925
X614069Y51130
X614069Y53670
X614069Y42875
X614069Y45415
X614069Y34620
X614069Y37160
X614069Y26365
X614069Y28905
X614069Y18110
X614069Y20650
X614069Y9855
X614069Y12395
X622959Y67640
X622959Y70180
X622959Y59385
X622959Y61925
X622959Y51130
X622959Y53670
X622959Y42875
X622959Y45415
X622959Y34620
X622959Y37160
X622959Y26365
X622959Y28905
X622959Y18110
X622959Y20650
X622959Y9855
X622959Y12395
X631849Y67640
X631849Y70180
X631849Y59385
X631849Y61925
X631849Y51130
X631849Y53670
X631849Y42875
X631849Y45415
X631849Y34620
X631849Y37160
X631849Y26365
X631849Y28905
X631849Y18110
X631849Y20650
X631849Y9855
X631849Y12395
X640739Y67640
X640739Y70180
X640739Y59385
X640739Y61925
X640739Y51130
X640739Y53670
X640739Y42875
X640739Y45415
X640739Y34620
X640739Y37160
X640739Y26365
X640739Y28905
X640739Y18110
X640739Y20650
X640739Y9855
X640739Y12395
X649629Y67640
X649629Y70180
X649629Y59385
X649629Y61925
X649629Y51130
X649629Y53670
X649629Y42875
X649629Y45415
X649629Y34620
X649629Y37160
X649629Y26365
X649629Y28905
X649629Y18110
X649629Y20650
X649629Y9855
X649629Y12395
X46379Y89865
X48919Y89865
X61619Y89865
X64159Y89865
X51459Y89865
X53999Y89865
X59079Y89865
X56539Y89865
X64159Y97485
X61619Y97485
X59079Y97485
X56539Y97485
X53999Y97485
X51459Y97485
X48919Y97485
X46379Y97485
X18439Y73990
X18439Y84150
X27329Y73990
X27329Y84150
X36219Y73990
X36219Y84150
X45109Y73990
X45109Y84150
X53999Y73990
X53999Y84150
X62889Y73990
X62889Y84150
X71779Y73990
X71779Y84150
X80669Y73990
X80669Y84150
X117499Y89865
X120039Y89865
X132739Y89865
X135279Y89865
X122579Y89865
X125119Y89865
X130199Y89865
X127659Y89865
X135279Y97485
X132739Y97485
X130199Y97485
X127659Y97485
X125119Y97485
X122579Y97485
X120039Y97485
X117499Y97485
X89559Y73990
X89559Y84150
X98449Y73990
X98449Y84150
X107339Y73990
X107339Y84150
X116229Y73990
X116229Y84150
X125119Y73990
X125119Y84150
X134009Y73990
X134009Y84150
X142899Y73990
X142899Y84150
X151789Y73990
X151789Y84150
X188619Y89865
X191159Y89865
X203859Y89865
X206399Y89865
X193699Y89865
X196239Y89865
X201319Y89865
X198779Y89865
X206399Y97485
X203859Y97485
X201319Y97485
X198779Y97485
X196239Y97485
X193699Y97485
X191159Y97485
X188619Y97485
X160679Y73990
X160679Y84150
X169569Y73990
X169569Y84150
X178459Y73990
X178459Y84150
X187349Y73990
X187349Y84150
X196239Y73990
X196239Y84150
X205129Y73990
X205129Y84150
X214019Y73990
X214019Y84150
X222909Y73990
X222909Y84150
X259739Y89865
X262279Y89865
X274979Y89865
X277519Y89865
X264819Y89865
X267359Y89865
X272439Y89865
X269899Y89865
X277519Y97485
X274979Y97485
X272439Y97485
X269899Y97485
X267359Y97485
X264819Y97485
X262279Y97485
X259739Y97485
X231799Y73990
X231799Y84150
X240689Y73990
X240689Y84150
X249579Y73990
X249579Y84150
X258469Y73990
X258469Y84150
X267359Y73990
X267359Y84150
X276249Y73990
X276249Y84150
X285139Y73990
X285139Y84150
X294029Y73990
X294029Y84150
X330859Y89865
X333399Y89865
X346099Y89865
X348639Y89865
X335939Y89865
X338479Y89865
X343559Y89865
X341019Y89865
X348639Y97485
X346099Y97485
X343559Y97485
X341019Y97485
X338479Y97485
X335939Y97485
X333399Y97485
X330859Y97485
X302919Y73990
X302919Y84150
X311809Y73990
X311809Y84150
X320699Y73990
X320699Y84150
X329589Y73990
X329589Y84150
X338479Y73990
X338479Y84150
X347369Y73990
X347369Y84150
X356259Y73990
X356259Y84150
X365149Y73990
X365149Y84150
X401979Y89865
X404519Y89865
X417219Y89865
X419759Y89865
X407059Y89865
X409599Y89865
X414679Y89865
X412139Y89865
X419759Y97485
X417219Y97485
X414679Y97485
X412139Y97485
X409599Y97485
X407059Y97485
X404519Y97485
X401979Y97485
X374039Y73990
X374039Y84150
X382929Y73990
X382929Y84150
X391819Y73990
X391819Y84150
X400709Y73990
X400709Y84150
X409599Y73990
X409599Y84150
X418489Y73990
X418489Y84150
X427379Y73990
X427379Y84150
X436269Y73990
X436269Y84150
X473099Y89865
X475639Y89865
X488339Y89865
X490879Y89865
X478179Y89865
X480719Y89865
X485799Y89865
X483259Y89865
X490879Y97485
X488339Y97485
X485799Y97485
X483259Y97485
X480719Y97485
X478179Y97485
X475639Y97485
X473099Y97485
X445159Y73990
X445159Y84150
X454049Y73990
X454049Y84150
X462939Y73990
X462939Y84150
X471829Y73990
X471829Y84150
X480719Y73990
X480719Y84150
X489609Y73990
X489609Y84150
X498499Y73990
X498499Y84150
X507389Y73990
X507389Y84150
X544219Y89865
X546759Y89865
X559459Y89865
X561999Y89865
X549299Y89865
X551839Y89865
X556919Y89865
X554379Y89865
X561999Y97485
X559459Y97485
X556919Y97485
X554379Y97485
X551839Y97485
X549299Y97485
X546759Y97485
X544219Y97485
X516279Y73990
X516279Y84150
X525169Y73990
X525169Y84150
X534059Y73990
X534059Y84150
X542949Y73990
X542949Y84150
X551839Y73990
X551839Y84150
X560729Y73990
X560729Y84150
X569619Y73990
X569619Y84150
X578509Y73990
X578509Y84150
X615339Y89865
X617879Y89865
X630579Y89865
X633119Y89865
X620419Y89865
X622959Y89865
X628039Y89865
X625499Y89865
X633119Y97485
X630579Y97485
X628039Y97485
X625499Y97485
X622959Y97485
X620419Y97485
X617879Y97485
X615339Y97485
X587399Y73990
X587399Y84150
X596289Y73990
X596289Y84150
X605179Y73990
X605179Y84150
X614069Y73990
X614069Y84150
X622959Y73990
X622959Y84150
X631849Y73990
X631849Y84150
X640739Y73990
X640739Y84150
X649629Y73990
X649629Y84150
T02
X22884Y16205
X22884Y20015
X22884Y24460
X22884Y28270
X22884Y32715
X22884Y36525
X22884Y40970
X22884Y44780
X22884Y49225
X22884Y53035
X22884Y57480
X22884Y61290
X22884Y65735
X22884Y69545
X40664Y16205
X40664Y20015
X40664Y24460
X40664Y28270
X40664Y32715
X40664Y36525
X40664Y40970
X40664Y44780
X40664Y49225
X40664Y53035
X40664Y57480
X40664Y61290
X40664Y65735
X40664Y69545
X31774Y16205
X31774Y20015
X31774Y24460
X31774Y28270
X31774Y32715
X31774Y36525
X31774Y40970
X31774Y44780
X31774Y49225
X31774Y53035
X31774Y57480
X31774Y61290
X31774Y65735
X31774Y69545
X58444Y16205
X58444Y20015
X58444Y24460
X58444Y28270
X58444Y32715
X58444Y36525
X58444Y40970
X58444Y44780
X58444Y49225
X58444Y53035
X58444Y57480
X58444Y61290
X58444Y65735
X58444Y69545
X76224Y16205
X76224Y20015
X76224Y24460
X76224Y28270
X76224Y32715
X76224Y36525
X76224Y40970
X76224Y44780
X76224Y49225
X76224Y53035
X76224Y57480
X76224Y61290
X76224Y65735
X76224Y69545
X67334Y16205
X67334Y20015
X67334Y24460
X67334Y28270
X67334Y32715
X67334Y36525
X67334Y40970
X67334Y44780
X67334Y49225
X67334Y53035
X67334Y57480
X67334Y61290
X67334Y65735
X67334Y69545
X49554Y16205
X49554Y20015
X49554Y24460
X49554Y28270
X49554Y32715
X49554Y36525
X49554Y40970
X49554Y44780
X49554Y49225
X49554Y53035
X49554Y57480
X49554Y61290
X49554Y65735
X49554Y69545
X94004Y16205
X94004Y20015
X94004Y24460
X94004Y28270
X94004Y32715
X94004Y36525
X94004Y40970
X94004Y44780
X94004Y49225
X94004Y53035
X94004Y57480
X94004Y61290
X94004Y65735
X94004Y69545
X111784Y16205
X111784Y20015
X111784Y24460
X111784Y28270
X111784Y32715
X111784Y36525
X111784Y40970
X111784Y44780
X111784Y49225
X111784Y53035
X111784Y57480
X111784Y61290
X111784Y65735
X111784Y69545
X102894Y16205
X102894Y20015
X102894Y24460
X102894Y28270
X102894Y32715
X102894Y36525
X102894Y40970
X102894Y44780
X102894Y49225
X102894Y53035
X102894Y57480
X102894Y61290
X102894Y65735
X102894Y69545
X129564Y16205
X129564Y20015
X129564Y24460
X129564Y28270
X129564Y32715
X129564Y36525
X129564Y40970
X129564Y44780
X129564Y49225
X129564Y53035
X129564Y57480
X129564Y61290
X129564Y65735
X129564Y69545
X147344Y16205
X147344Y20015
X147344Y24460
X147344Y28270
X147344Y32715
X147344Y36525
X147344Y40970
X147344Y44780
X147344Y49225
X147344Y53035
X147344Y57480
X147344Y61290
X147344Y65735
X147344Y69545
X138454Y16205
X138454Y20015
X138454Y24460
X138454Y28270
X138454Y32715
X138454Y36525
X138454Y40970
X138454Y44780
X138454Y49225
X138454Y53035
X138454Y57480
X138454Y61290
X138454Y65735
X138454Y69545
X120674Y16205
X120674Y20015
X120674Y24460
X120674Y28270
X120674Y32715
X120674Y36525
X120674Y40970
X120674Y44780
X120674Y49225
X120674Y53035
X120674Y57480
X120674Y61290
X120674Y65735
X120674Y69545
X85114Y16205
X85114Y20015
X85114Y24460
X85114Y28270
X85114Y32715
X85114Y36525
X85114Y40970
X85114Y44780
X85114Y49225
X85114Y53035
X85114Y57480
X85114Y61290
X85114Y65735
X85114Y69545
X165124Y16205
X165124Y20015
X165124Y24460
X165124Y28270
X165124Y32715
X165124Y36525
X165124Y40970
X165124Y44780
X165124Y49225
X165124Y53035
X165124Y57480
X165124Y61290
X165124Y65735
X165124Y69545
X182904Y16205
X182904Y20015
X182904Y24460
X182904Y28270
X182904Y32715
X182904Y36525
X182904Y40970
X182904Y44780
X182904Y49225
X182904Y53035
X182904Y57480
X182904Y61290
X182904Y65735
X182904Y69545
X174014Y16205
X174014Y20015
X174014Y24460
X174014Y28270
X174014Y32715
X174014Y36525
X174014Y40970
X174014Y44780
X174014Y49225
X174014Y53035
X174014Y57480
X174014Y61290
X174014Y65735
X174014Y69545
X200684Y16205
X200684Y20015
X200684Y24460
X200684Y28270
X200684Y32715
X200684Y36525
X200684Y40970
X200684Y44780
X200684Y49225
X200684Y53035
X200684Y57480
X200684Y61290
X200684Y65735
X200684Y69545
X218464Y16205
X218464Y20015
X218464Y24460
X218464Y28270
X218464Y32715
X218464Y36525
X218464Y40970
X218464Y44780
X218464Y49225
X218464Y53035
X218464Y57480
X218464Y61290
X218464Y65735
X218464Y69545
X209574Y16205
X209574Y20015
X209574Y24460
X209574Y28270
X209574Y32715
X209574Y36525
X209574Y40970
X209574Y44780
X209574Y49225
X209574Y53035
X209574Y57480
X209574Y61290
X209574Y65735
X209574Y69545
X191794Y16205
X191794Y20015
X191794Y24460
X191794Y28270
X191794Y32715
X191794Y36525
X191794Y40970
X191794Y44780
X191794Y49225
X191794Y53035
X191794Y57480
X191794Y61290
X191794Y65735
X191794Y69545
X236244Y16205
X236244Y20015
X236244Y24460
X236244Y28270
X236244Y32715
X236244Y36525
X236244Y40970
X236244Y44780
X236244Y49225
X236244Y53035
X236244Y57480
X236244Y61290
X236244Y65735
X236244Y69545
X254024Y16205
X254024Y20015
X254024Y24460
X254024Y28270
X254024Y32715
X254024Y36525
X254024Y40970
X254024Y44780
X254024Y49225
X254024Y53035
X254024Y57480
X254024Y61290
X254024Y65735
X254024Y69545
X245134Y16205
X245134Y20015
X245134Y24460
X245134Y28270
X245134Y32715
X245134Y36525
X245134Y40970
X245134Y44780
X245134Y49225
X245134Y53035
X245134Y57480
X245134Y61290
X245134Y65735
X245134Y69545
X271804Y16205
X271804Y20015
X271804Y24460
X271804Y28270
X271804Y32715
X271804Y36525
X271804Y40970
X271804Y44780
X271804Y49225
X271804Y53035
X271804Y57480
X271804Y61290
X271804Y65735
X271804Y69545
X289584Y16205
X289584Y20015
X289584Y24460
X289584Y28270
X289584Y32715
X289584Y36525
X289584Y40970
X289584Y44780
X289584Y49225
X289584Y53035
X289584Y57480
X289584Y61290
X289584Y65735
X289584Y69545
X280694Y16205
X280694Y20015
X280694Y24460
X280694Y28270
X280694Y32715
X280694Y36525
X280694Y40970
X280694Y44780
X280694Y49225
X280694Y53035
X280694Y57480
X280694Y61290
X280694Y65735
X280694Y69545
X262914Y16205
X262914Y20015
X262914Y24460
X262914Y28270
X262914Y32715
X262914Y36525
X262914Y40970
X262914Y44780
X262914Y49225
X262914Y53035
X262914Y57480
X262914Y61290
X262914Y65735
X262914Y69545
X227354Y16205
X227354Y20015
X227354Y24460
X227354Y28270
X227354Y32715
X227354Y36525
X227354Y40970
X227354Y44780
X227354Y49225
X227354Y53035
X227354Y57480
X227354Y61290
X227354Y65735
X227354Y69545
X156234Y16205
X156234Y20015
X156234Y24460
X156234Y28270
X156234Y32715
X156234Y36525
X156234Y40970
X156234Y44780
X156234Y49225
X156234Y53035
X156234Y57480
X156234Y61290
X156234Y65735
X156234Y69545
X307364Y16205
X307364Y20015
X307364Y24460
X307364Y28270
X307364Y32715
X307364Y36525
X307364Y40970
X307364Y44780
X307364Y49225
X307364Y53035
X307364Y57480
X307364Y61290
X307364Y65735
X307364Y69545
X325144Y16205
X325144Y20015
X325144Y24460
X325144Y28270
X325144Y32715
X325144Y36525
X325144Y40970
X325144Y44780
X325144Y49225
X325144Y53035
X325144Y57480
X325144Y61290
X325144Y65735
X325144Y69545
X316254Y16205
X316254Y20015
X316254Y24460
X316254Y28270
X316254Y32715
X316254Y36525
X316254Y40970
X316254Y44780
X316254Y49225
X316254Y53035
X316254Y57480
X316254Y61290
X316254Y65735
X316254Y69545
X342924Y16205
X342924Y20015
X342924Y24460
X342924Y28270
X342924Y32715
X342924Y36525
X342924Y40970
X342924Y44780
X342924Y49225
X342924Y53035
X342924Y57480
X342924Y61290
X342924Y65735
X342924Y69545
X360704Y16205
X360704Y20015
X360704Y24460
X360704Y28270
X360704Y32715
X360704Y36525
X360704Y40970
X360704Y44780
X360704Y49225
X360704Y53035
X360704Y57480
X360704Y61290
X360704Y65735
X360704Y69545
X351814Y16205
X351814Y20015
X351814Y24460
X351814Y28270
X351814Y32715
X351814Y36525
X351814Y40970
X351814Y44780
X351814Y49225
X351814Y53035
X351814Y57480
X351814Y61290
X351814Y65735
X351814Y69545
X334034Y16205
X334034Y20015
X334034Y24460
X334034Y28270
X334034Y32715
X334034Y36525
X334034Y40970
X334034Y44780
X334034Y49225
X334034Y53035
X334034Y57480
X334034Y61290
X334034Y65735
X334034Y69545
X378484Y16205
X378484Y20015
X378484Y24460
X378484Y28270
X378484Y32715
X378484Y36525
X378484Y40970
X378484Y44780
X378484Y49225
X378484Y53035
X378484Y57480
X378484Y61290
X378484Y65735
X378484Y69545
X396264Y16205
X396264Y20015
X396264Y24460
X396264Y28270
X396264Y32715
X396264Y36525
X396264Y40970
X396264Y44780
X396264Y49225
X396264Y53035
X396264Y57480
X396264Y61290
X396264Y65735
X396264Y69545
X387374Y16205
X387374Y20015
X387374Y24460
X387374Y28270
X387374Y32715
X387374Y36525
X387374Y40970
X387374Y44780
X387374Y49225
X387374Y53035
X387374Y57480
X387374Y61290
X387374Y65735
X387374Y69545
X414044Y16205
X414044Y20015
X414044Y24460
X414044Y28270
X414044Y32715
X414044Y36525
X414044Y40970
X414044Y44780
X414044Y49225
X414044Y53035
X414044Y57480
X414044Y61290
X414044Y65735
X414044Y69545
X431824Y16205
X431824Y20015
X431824Y24460
X431824Y28270
X431824Y32715
X431824Y36525
X431824Y40970
X431824Y44780
X431824Y49225
X431824Y53035
X431824Y57480
X431824Y61290
X431824Y65735
X431824Y69545
X422934Y16205
X422934Y20015
X422934Y24460
X422934Y28270
X422934Y32715
X422934Y36525
X422934Y40970
X422934Y44780
X422934Y49225
X422934Y53035
X422934Y57480
X422934Y61290
X422934Y65735
X422934Y69545
X405154Y16205
X405154Y20015
X405154Y24460
X405154Y28270
X405154Y32715
X405154Y36525
X405154Y40970
X405154Y44780
X405154Y49225
X405154Y53035
X405154Y57480
X405154Y61290
X405154Y65735
X405154Y69545
X369594Y16205
X369594Y20015
X369594Y24460
X369594Y28270
X369594Y32715
X369594Y36525
X369594Y40970
X369594Y44780
X369594Y49225
X369594Y53035
X369594Y57480
X369594Y61290
X369594Y65735
X369594Y69545
X449604Y16205
X449604Y20015
X449604Y24460
X449604Y28270
X449604Y32715
X449604Y36525
X449604Y40970
X449604Y44780
X449604Y49225
X449604Y53035
X449604Y57480
X449604Y61290
X449604Y65735
X449604Y69545
X467384Y16205
X467384Y20015
X467384Y24460
X467384Y28270
X467384Y32715
X467384Y36525
X467384Y40970
X467384Y44780
X467384Y49225
X467384Y53035
X467384Y57480
X467384Y61290
X467384Y65735
X467384Y69545
X458494Y16205
X458494Y20015
X458494Y24460
X458494Y28270
X458494Y32715
X458494Y36525
X458494Y40970
X458494Y44780
X458494Y49225
X458494Y53035
X458494Y57480
X458494Y61290
X458494Y65735
X458494Y69545
X485164Y16205
X485164Y20015
X485164Y24460
X485164Y28270
X485164Y32715
X485164Y36525
X485164Y40970
X485164Y44780
X485164Y49225
X485164Y53035
X485164Y57480
X485164Y61290
X485164Y65735
X485164Y69545
X502944Y16205
X502944Y20015
X502944Y24460
X502944Y28270
X502944Y32715
X502944Y36525
X502944Y40970
X502944Y44780
X502944Y49225
X502944Y53035
X502944Y57480
X502944Y61290
X502944Y65735
X502944Y69545
X494054Y16205
X494054Y20015
X494054Y24460
X494054Y28270
X494054Y32715
X494054Y36525
X494054Y40970
X494054Y44780
X494054Y49225
X494054Y53035
X494054Y57480
X494054Y61290
X494054Y65735
X494054Y69545
X476274Y16205
X476274Y20015
X476274Y24460
X476274Y28270
X476274Y32715
X476274Y36525
X476274Y40970
X476274Y44780
X476274Y49225
X476274Y53035
X476274Y57480
X476274Y61290
X476274Y65735
X476274Y69545
X520724Y16205
X520724Y20015
X520724Y24460
X520724Y28270
X520724Y32715
X520724Y36525
X520724Y40970
X520724Y44780
X520724Y49225
X520724Y53035
X520724Y57480
X520724Y61290
X520724Y65735
X520724Y69545
X538504Y16205
X538504Y20015
X538504Y24460
X538504Y28270
X538504Y32715
X538504Y36525
X538504Y40970
X538504Y44780
X538504Y49225
X538504Y53035
X538504Y57480
X538504Y61290
X538504Y65735
X538504Y69545
X529614Y16205
X529614Y20015
X529614Y24460
X529614Y28270
X529614Y32715
X529614Y36525
X529614Y40970
X529614Y44780
X529614Y49225
X529614Y53035
X529614Y57480
X529614Y61290
X529614Y65735
X529614Y69545
X556284Y16205
X556284Y20015
X556284Y24460
X556284Y28270
X556284Y32715
X556284Y36525
X556284Y40970
X556284Y44780
X556284Y49225
X556284Y53035
X556284Y57480
X556284Y61290
X556284Y65735
X556284Y69545
X574064Y16205
X574064Y20015
X574064Y24460
X574064Y28270
X574064Y32715
X574064Y36525
X574064Y40970
X574064Y44780
X574064Y49225
X574064Y53035
X574064Y57480
X574064Y61290
X574064Y65735
X574064Y69545
X565174Y16205
X565174Y20015
X565174Y24460
X565174Y28270
X565174Y32715
X565174Y36525
X565174Y40970
X565174Y44780
X565174Y49225
X565174Y53035
X565174Y57480
X565174Y61290
X565174Y65735
X565174Y69545
X547394Y16205
X547394Y20015
X547394Y24460
X547394Y28270
X547394Y32715
X547394Y36525
X547394Y40970
X547394Y44780
X547394Y49225
X547394Y53035
X547394Y57480
X547394Y61290
X547394Y65735
X547394Y69545
X511834Y16205
X511834Y20015
X511834Y24460
X511834Y28270
X511834Y32715
X511834Y36525
X511834Y40970
X511834Y44780
X511834Y49225
X511834Y53035
X511834Y57480
X511834Y61290
X511834Y65735
X511834Y69545
X440714Y16205
X440714Y20015
X440714Y24460
X440714Y28270
X440714Y32715
X440714Y36525
X440714Y40970
X440714Y44780
X440714Y49225
X440714Y53035
X440714Y57480
X440714Y61290
X440714Y65735
X440714Y69545
X298474Y16205
X298474Y20015
X298474Y24460
X298474Y28270
X298474Y32715
X298474Y36525
X298474Y40970
X298474Y44780
X298474Y49225
X298474Y53035
X298474Y57480
X298474Y61290
X298474Y65735
X298474Y69545
X591844Y16205
X591844Y20015
X591844Y24460
X591844Y28270
X591844Y32715
X591844Y36525
X591844Y40970
X591844Y44780
X591844Y49225
X591844Y53035
X591844Y57480
X591844Y61290
X591844Y65735
X591844Y69545
X609624Y16205
X609624Y20015
X609624Y24460
X609624Y28270
X609624Y32715
X609624Y36525
X609624Y40970
X609624Y44780
X609624Y49225
X609624Y53035
X609624Y57480
X609624Y61290
X609624Y65735
X609624Y69545
X600734Y16205
X600734Y20015
X600734Y24460
X600734Y28270
X600734Y32715
X600734Y36525
X600734Y40970
X600734Y44780
X600734Y49225
X600734Y53035
X600734Y57480
X600734Y61290
X600734Y65735
X600734Y69545
X627404Y16205
X627404Y20015
X627404Y24460
X627404Y28270
X627404Y32715
X627404Y36525
X627404Y40970
X627404Y44780
X627404Y49225
X627404Y53035
X627404Y57480
X627404Y61290
X627404Y65735
X627404Y69545
X645184Y16205
X645184Y20015
X645184Y24460
X645184Y28270
X645184Y32715
X645184Y36525
X645184Y40970
X645184Y44780
X645184Y49225
X645184Y53035
X645184Y57480
X645184Y61290
X645184Y65735
X645184Y69545
X636294Y16205
X636294Y20015
X636294Y24460
X636294Y28270
X636294Y32715
X636294Y36525
X636294Y40970
X636294Y44780
X636294Y49225
X636294Y53035
X636294Y57480
X636294Y61290
X636294Y65735
X636294Y69545
X618514Y16205
X618514Y20015
X618514Y24460
X618514Y28270
X618514Y32715
X618514Y36525
X618514Y40970
X618514Y44780
X618514Y49225
X618514Y53035
X618514Y57480
X618514Y61290
X618514Y65735
X618514Y69545
X582954Y16205
X582954Y20015
X582954Y24460
X582954Y28270
X582954Y32715
X582954Y36525
X582954Y40970
X582954Y44780
X582954Y49225
X582954Y53035
X582954Y57480
X582954Y61290
X582954Y65735
X582954Y69545
X127659Y103346
X127659Y100514
X198779Y103346
X198779Y100514
X269899Y103346
X269899Y100514
X341019Y103346
X341019Y100514
X412139Y103346
X412139Y100514
X483259Y103346
X483259Y100514
X554379Y103346
X554379Y100514
X625499Y103346
X625499Y100514
X184809Y104763
X184809Y99244
X255294Y105105
X255294Y98755
X326414Y105105
X326414Y98755
X396899Y105105
X396899Y98755
X469924Y98755
X469924Y104763
X541044Y98755
X541044Y105105
X612164Y98755
X612164Y105105
X675029Y109550
X675029Y4140
X10819Y4140
X10819Y109550
X240689Y110820
X443889Y110820
X443889Y4140
X240689Y4140
T03
X659154Y50495
X659154Y47955
X659154Y45415
X659154Y42875
X659154Y40335
X659154Y37795
X661694Y50495
X661694Y47955
X661694Y45415
X661694Y42875
X661694Y40335
X661694Y37795
X659154Y35255
X661694Y35255
M30
